<?xml version="1.0" standalone="no"?>
<!DOCTYPE svg PUBLIC "-//W3C//DTD SVG 1.1//EN" "http://www.w3.org/Graphics/SVG/1.1/DTD/svg11.dtd" >
<svg xmlns="http://www.w3.org/2000/svg" xmlns:xlink="http://www.w3.org/1999/xlink" version="1.1">
<metadata>
Created by FontForge 20170731 at Sat Nov  7 22:17:23 2020
 By Aleksey,,,
Copyright (c) 2013 by Jonathan Hill. All rights reserved.
</metadata>
<defs>
<font id="Corbert-Regular" horiz-adv-x="1230" >
  <font-face 
    font-family="Corbert"
    font-weight="400"
    font-stretch="normal"
    units-per-em="2048"
    panose-1="0 0 5 0 0 0 0 0 0 0"
    ascent="1638"
    descent="-410"
    x-height="1024"
    cap-height="1434"
    bbox="-150 -524 2488 2180"
    underline-thickness="102"
    underline-position="-307"
    unicode-range="U+0020-FB02"
  />
<missing-glyph horiz-adv-x="1024" 
d="M0 0v1434h1024v-1434h-1024zM512 809l348 522h-696zM573 717l349 -522v1044zM164 102h696l-348 523zM102 1239v-1044l349 522z" />
    <glyph glyph-name="fi" unicode="fi" horiz-adv-x="1294" 
d="M799 1532v-90q-194 0 -307 -101q-61 -53 -89 -129t-28 -188h740v-1024h-117v933h-623v-933h-118v933h-188v91h188q0 264 162 394q145 120 380 114z" />
    <glyph glyph-name="fl" unicode="fl" horiz-adv-x="1499" 
d="M1109 1533v-1103q0 -175 78 -263q78 -87 236 -87v-90q-208 -6 -318 103q-113 112 -113 337v1012h-192q-195 0 -308 -101q-61 -53 -89 -129t-28 -188h338v-91h-338v-933h-118v933h-188v91h188q0 264 162 394q144 120 374 115h316z" />
    <glyph glyph-name="f_f" unicode="ff" horiz-adv-x="1599" 
d="M1599 1532v-90q-194 0 -307 -101q-61 -53 -89.5 -129t-28.5 -188h339v-91h-339v-933h-117v933h-682v-933h-118v933h-188v91h188q0 264 162 394q145 120 381 114v-90q-195 0 -308 -101q-61 -53 -89 -129t-28 -188h682q0 265 161 394q145 120 381 114z" />
    <glyph glyph-name="f_f_i" unicode="ffi" horiz-adv-x="2093" 
d="M1599 1532v-90q-194 0 -307 -101q-61 -53 -89.5 -129t-28.5 -188h741v-1024h-118v933h-623v-933h-117v933h-682v-933h-118v933h-188v91h188q0 264 162 394q145 120 381 114v-90q-195 0 -308 -101q-61 -53 -89 -129t-28 -188h682q0 265 161 394q145 120 381 114z" />
    <glyph glyph-name="f_f_l" unicode="ffl" horiz-adv-x="2299" 
d="M799 1532v-90q-194 0 -307 -101q-61 -53 -89 -129t-28 -188h682q0 265 161 394q143 120 374 115h317v-1103q0 -176 77 -263q78 -87 236 -87v-90q-207 -6 -317 103q-114 113 -114 337v1012h-192q-194 0 -307 -101q-61 -53 -89.5 -129t-28.5 -188h339v-91h-339v-933h-117
v933h-682v-933h-118v933h-188v91h188q0 264 162 394q145 120 380 114z" />
    <glyph glyph-name=".notdef" horiz-adv-x="1024" 
d="M0 0v1434h1024v-1434h-1024zM512 809l348 522h-696zM573 717l349 -522v1044zM164 102h696l-348 523zM102 1239v-1044l349 522z" />
    <glyph glyph-name=".null" horiz-adv-x="0" 
 />
    <glyph glyph-name="nonmarkingreturn" horiz-adv-x="682" 
 />
    <glyph glyph-name="space" unicode=" " horiz-adv-x="604" 
 />
    <glyph glyph-name="exclam" unicode="!" horiz-adv-x="327" 
d="M225 313h-122v1120h122v-1120zM164 124q29 0 50 -19.5t21 -47.5t-21 -47.5t-50 -19.5t-50.5 19.5t-21.5 47.5t21.5 47.5t50.5 19.5z" />
    <glyph glyph-name="quotedbl" unicode="&#x22;" horiz-adv-x="602" 
d="M193 921h-101v525h101v-525zM510 921h-101v525h101v-525z" />
    <glyph glyph-name="numbersign" unicode="#" horiz-adv-x="1302" 
d="M1015 1045h195l-19 -92h-195l-101 -472h195l-19 -92h-195l-83 -389h-108l83 389h-390l-83 -389h-107l82 389h-178l20 92h178l100 472h-177l19 92h178l82 389h108l-82 -389h389l83 389h108zM498 953l-100 -472h390l100 472h-390z" />
    <glyph glyph-name="dollar" unicode="$" horiz-adv-x="1368" 
d="M743 1456h37q257 -7 435 -115l-71 -88q-172 106 -415 106q-122 0 -222 -31t-165.5 -99t-65.5 -163q0 -48 14.5 -86t45 -65.5t62.5 -47t84 -35t90.5 -24.5t99.5 -21q223 -42 290 -62q194 -55 264 -162q51 -77 51 -191q0 -93 -44.5 -167t-121 -120.5t-170 -73t-198.5 -31.5
v-195h-113v192q-162 9 -308.5 60.5t-229.5 134.5l74 83q80 -82 225 -129t302 -47q71 0 136 10.5t123.5 33.5t101.5 56.5t68.5 83t25.5 109.5q0 65 -26 113t-54.5 75.5t-102.5 52t-114 33t-144 27.5q-46 9 -70 13q-62 12 -106.5 22t-98.5 26.5t-91.5 35.5t-76 47t-61 61.5
t-37 80t-14.5 101.5q0 86 38.5 156.5t105 118t151.5 77t183 39.5v197h113v-192z" />
    <glyph glyph-name="percent" unicode="%" horiz-adv-x="1779" 
d="M475 -35h-121l947 1503h121zM419 1446q97 0 163 -30t100.5 -86.5t48.5 -123t14 -154.5q0 -89 -14.5 -156t-49.5 -123.5t-101 -86.5t-161 -30t-161.5 30t-101.5 86.5t-49.5 123.5t-14.5 156q0 88 14 154.5t48.5 123t101 86.5t163.5 30zM419 1368q-132 0 -181.5 -77.5
t-49.5 -238.5t50.5 -239.5t180.5 -78.5t180 78t50 240q0 161 -49 238.5t-181 77.5zM1361 777q78 0 136.5 -20.5t94.5 -55t58 -86t30 -107t8 -125.5t-8.5 -126.5t-31 -108t-58.5 -85.5t-94 -54.5t-135 -20.5q-95 0 -161 29.5t-101 86t-49.5 123.5t-14.5 156q0 88 14 154.5
t48.5 123t100.5 86.5t163 30zM1361 700q-132 0 -181 -78t-49 -239q0 -162 50 -240t180 -78t180.5 78.5t50.5 239.5t-49.5 239t-181.5 78z" />
    <glyph glyph-name="ampersand" unicode="&#x26;" horiz-adv-x="1423" 
d="M457 788l-143 151q-69 78 -69 206q0 73 21 128t57.5 89.5t91 56t114 30t134.5 8.5q74 0 133 -8t113.5 -29.5t91 -56t58 -89.5t21.5 -129q0 -193 -151 -267l-290 -123l500 -524q46 66 46 173q0 135 -77 207l64 47q111 -103 111 -288q0 -138 -63 -228l101 -107l10 -35h-129
l-66 70q-129 -115 -444 -115q-105 0 -190 11t-163.5 39.5t-131 74.5t-84 119.5t-31.5 170.5q0 248 204 350zM568 833l295 125q97 48 97 184q0 124 -74.5 170.5t-222.5 46.5t-222.5 -47t-74.5 -170q0 -99 44 -144zM530 709l-166 -70q-154 -73 -154 -267q0 -75 22.5 -131
t62 -91.5t100 -57.5t128.5 -30.5t156 -8.5q281 0 379 101z" />
    <glyph glyph-name="quotesingle" unicode="'" horiz-adv-x="284" 
d="M193 921h-101v525h101v-525z" />
    <glyph glyph-name="parenleft" unicode="(" horiz-adv-x="667" 
d="M571 1469l4 -97q-107 -18 -181 -83.5t-114.5 -177t-57.5 -244t-17 -308.5q0 -177 17 -310t57.5 -243.5t114.5 -176t181 -83.5l-4 -96q-97 12 -173 49.5t-127.5 100t-87 140t-55.5 180t-28 207t-8 232.5q0 109 5.5 200.5t20 183t38 163.5t60.5 137t86.5 110t117.5 75.5
t151 40.5z" />
    <glyph glyph-name="parenright" unicode=")" horiz-adv-x="667" 
d="M92 1372l4 97q83 -10 151 -40.5t117.5 -75.5t86.5 -110t60.5 -137t38 -163.5t20 -183t5.5 -200.5q0 -128 -8 -232.5t-28 -207t-55.5 -180t-87 -140t-127.5 -100t-173 -49.5l-4 96q108 18 182 84.5t114.5 178.5t57 244t16.5 308t-17 309t-58 243.5t-114.5 175.5t-180.5 83
z" />
    <glyph glyph-name="asterisk" unicode="*" horiz-adv-x="663" 
d="M372 1286l174 59l26 -81l-175 -54l110 -147l-69 -49l-106 149l-106 -149l-68 49l110 147l-176 54l27 81l173 -59l-2 183h85z" />
    <glyph glyph-name="plus" unicode="+" horiz-adv-x="1009" 
d="M554 648h363v-98h-363v-364h-98v364h-364v98h364v364h98v-364z" />
    <glyph glyph-name="comma" unicode="," horiz-adv-x="331" 
d="M179 -23v13q-6 -2 -19 -2q-31 0 -49.5 17.5t-18.5 43.5t18.5 44t49.5 18q38 0 57 -27q22 -30 22 -94q0 -63 -21.5 -97t-78.5 -34h-20l8 53h8q26 0 34.5 13.5t9.5 51.5z" />
    <glyph glyph-name="hyphen" unicode="-" horiz-adv-x="944" 
d="M851 660h-759v99h759v-99z" />
    <glyph glyph-name="period" unicode="." horiz-adv-x="319" 
d="M160 115q31 0 49 -18t18 -44t-18 -44.5t-49 -18.5t-49.5 18.5t-18.5 44.5t18.5 44t49.5 18z" />
    <glyph glyph-name="slash" unicode="/" horiz-adv-x="952" 
d="M207 -35h-120l658 1503h119z" />
    <glyph glyph-name="zero" unicode="0" horiz-adv-x="1417" 
d="M708 1406q140 0 245 -36.5t169 -98.5t103.5 -155.5t54 -194.5t14.5 -230t-15.5 -231.5t-55.5 -196t-104.5 -155.5t-168.5 -98.5t-242 -36.5t-241.5 36.5t-168.5 98.5t-105 155.5t-55 196t-15 231.5t14.5 229.5t53.5 194.5t103.5 156t169 98.5t244.5 36.5zM708 1308
q-111 0 -192.5 -28.5t-133 -79t-82.5 -130t-43 -169.5t-12 -210t12.5 -211.5t44.5 -170.5t83.5 -129.5t132.5 -79t190 -28.5q135 0 227.5 42t143.5 126t72 192t21 259t-20 257t-70.5 191t-143 127t-230.5 42z" />
    <glyph glyph-name="one" unicode="1" horiz-adv-x="669" 
d="M475 0h-122v1283l-281 -63v102l313 71h90v-1393z" />
    <glyph glyph-name="two" unicode="2" horiz-adv-x="1273" 
d="M222 1036h-114q0 109 37.5 183t111.5 114.5t166 57.5t219 17q100 0 176.5 -9.5t145.5 -34.5t113.5 -66.5t70.5 -107t26 -154.5q0 -111 -31 -185t-97.5 -116t-150 -61t-210.5 -26q-117 -7 -198 -25.5t-142.5 -56.5t-90.5 -100t-29 -152v-212h943v-102h-1060v313
q0 113 39.5 194t117 129.5t176.5 73.5t234 32q102 6 168.5 20.5t118 46.5t74.5 87t23 138q0 66 -19.5 114.5t-54 79.5t-88 50t-115 26t-141.5 7q-101 0 -174 -12.5t-130 -42.5t-86 -85t-29 -135z" />
    <glyph glyph-name="three" unicode="3" horiz-adv-x="1290" 
d="M244 1045h-117q3 105 41 177t109.5 111.5t158 56t202.5 16.5q92 0 165 -9t140.5 -33.5t112 -64t71 -103.5t26.5 -149q0 -143 -68.5 -221t-197.5 -108q147 -30 225 -114.5t78 -243.5q0 -92 -28 -160.5t-76 -111t-120 -69t-150.5 -36.5t-177.5 -10t-177 10.5t-148.5 37.5
t-117.5 70t-75.5 111.5t-29.5 159.5h115q2 -85 32.5 -143.5t89.5 -90t133.5 -44.5t177.5 -13q104 0 178.5 13t134 45.5t89 92.5t29.5 149q0 72 -20.5 124.5t-55.5 86t-91 53.5t-118.5 27.5t-145.5 7.5h-216v95h216q96 0 163.5 11.5t121.5 41t81 83.5t27 135t-27 135
t-81 83.5t-122 41.5t-163 12q-193 0 -291.5 -57t-102.5 -206z" />
    <glyph glyph-name="four" unicode="4" horiz-adv-x="1314" 
d="M1046 418h176v-98h-176v-320h-120v320h-839v105l839 970h120v-977zM220 418h705v819z" />
    <glyph glyph-name="five" unicode="5" horiz-adv-x="1265" 
d="M1091 1295h-811v-430h357q97 0 174 -11.5t147.5 -42t116.5 -79.5t73.5 -128t27.5 -185t-27.5 -185t-73.5 -128t-116.5 -79.5t-147.5 -42t-174 -11.5q-120 0 -211 19.5t-166 65.5t-116 130.5t-44 206.5h126q3 -76 23.5 -132.5t55 -93t87 -58.5t112.5 -31t137 -9
q100 0 171 15t128 52t85.5 106.5t28.5 171.5q0 104 -28 174.5t-85 108t-128 52.5t-172 15h-483v627h933v-98z" />
    <glyph glyph-name="six" unicode="6" horiz-adv-x="1335" 
d="M247 738v-70q48 114 163.5 160t296.5 46q92 0 167 -12.5t143 -43.5t113.5 -81.5t72.5 -130t27 -184.5q0 -106 -28 -186t-75.5 -129.5t-119.5 -80t-150.5 -42t-178.5 -11.5t-180 19t-137.5 52t-100 84.5t-68.5 109.5t-41.5 134t-21.5 151t-6 168t5.5 166.5t20.5 150
t40.5 133.5t68 109t100 85t138.5 52t182 19q418 0 533 -327l-116 -29q-45 129 -143 193.5t-274 64.5q-107 0 -184 -27t-124 -72.5t-74.5 -120.5t-37.5 -156t-11 -194zM680 782q-194 0 -301.5 -61.5t-128.5 -218.5q9 -104 34 -179t73 -133.5t128.5 -88t194.5 -29.5
q83 0 146 9t119 33t91.5 63.5t56 102t20.5 147.5t-20.5 147.5t-56 102t-91.5 63.5t-119 33t-146 9z" />
    <glyph glyph-name="seven" unicode="7" horiz-adv-x="1216" 
d="M1123 1325l-762 -1325h-135l752 1296h-886v99h1031v-70z" />
    <glyph glyph-name="eight" unicode="8" horiz-adv-x="1402" 
d="M702 1406q97 0 173 -9t146.5 -33.5t117 -64t74 -103.5t27.5 -149q0 -141 -70 -218t-202 -107q151 -31 231 -115.5t80 -242.5q0 -93 -29.5 -162.5t-79 -112.5t-125 -69.5t-157.5 -36.5t-186 -10t-187.5 10.5t-158.5 37.5t-125 70.5t-79 112.5t-29 160q0 157 81 241.5
t234 116.5q-134 31 -205 108.5t-71 216.5q0 84 27 147.5t74 103t117 64.5t147.5 34.5t174.5 9.5zM702 1308q-99 0 -171 -12.5t-128 -42.5t-84 -84t-28 -133t28 -133t84.5 -83.5t127.5 -42t171 -12.5q99 0 169.5 11.5t126.5 41t84 83.5t28 135t-28 135t-84 83.5t-126.5 41.5
t-169.5 12zM702 667q-86 0 -152.5 -8t-123.5 -28.5t-94 -54t-58 -85.5t-21 -122q0 -87 30.5 -146t92 -91.5t139.5 -46t187 -13.5q108 0 185.5 13t139 45t92.5 91.5t31 147.5q0 71 -21 123.5t-58 85.5t-94.5 53.5t-123 28t-151.5 7.5z" />
    <glyph glyph-name="nine" unicode="9" horiz-adv-x="1335" 
d="M1088 640v72q-49 -113 -164.5 -159.5t-290.5 -46.5q-94 0 -169 12t-144 43t-115 81t-73 130t-27 185q0 106 28 186t75.5 129.5t119.5 80t150.5 42t178.5 11.5t180 -19t137.5 -52t100 -84.5t68.5 -109.5t41.5 -134t21.5 -151t6 -168t-5.5 -166.5t-20.5 -150t-40.5 -133.5
t-68 -109t-100 -85t-138.5 -52t-182 -19q-418 0 -533 328l116 28q45 -129 143 -193t274 -64q77 0 138 13.5t106 38t77.5 63.5t53 83.5t33 105.5t17.5 123t6 141zM655 1308q-83 0 -146 -9t-118.5 -33t-91 -63.5t-56 -102t-20.5 -147.5q0 -106 29.5 -177t89.5 -109.5t134 -54
t179 -15.5q194 0 301.5 61.5t128.5 218.5q-9 104 -34 179t-73 134t-128.5 88.5t-194.5 29.5z" />
    <glyph glyph-name="colon" unicode=":" horiz-adv-x="319" 
d="M160 988q31 0 49 -17.5t18 -43.5t-18 -44t-49 -18t-49.5 18t-18.5 44t18.5 43.5t49.5 17.5zM160 115q31 0 49.5 -18t18.5 -44t-18.5 -44.5t-49.5 -18.5t-49 18.5t-18 44.5t18 44t49 18z" />
    <glyph glyph-name="semicolon" unicode=";" horiz-adv-x="331" 
d="M160 988q31 0 49 -17.5t18 -43.5t-18 -44t-49 -18t-49.5 18t-18.5 44t18.5 43.5t49.5 17.5zM179 -20v12q-6 -2 -19 -2q-31 0 -49 17.5t-18 43.5t18 44t49 18q38 0 57 -27q23 -31 23 -96q0 -62 -22 -95.5t-79 -33.5h-19l7 53h9q25 0 33.5 14t9.5 52z" />
    <glyph glyph-name="less" unicode="&#x3c;" horiz-adv-x="966" 
d="M874 605v-126l-782 -470v116l666 417l-666 418v115z" />
    <glyph glyph-name="equal" unicode="=" horiz-adv-x="1009" 
d="M917 738h-825v98h825v-98zM917 341h-825v98h825v-98z" />
    <glyph glyph-name="greater" unicode="&#x3e;" horiz-adv-x="966" 
d="M874 960l-666 -418l666 -417v-116l-782 470v126l782 470v-115z" />
    <glyph glyph-name="question" unicode="?" horiz-adv-x="1255" 
d="M214 1092h-122q0 106 39 179.5t114 113.5t166.5 56.5t213.5 16.5q97 0 173 -9.5t146.5 -34.5t117 -65.5t74 -106t27.5 -153.5q0 -66 -11.5 -120.5t-28.5 -92.5t-47 -68.5t-55.5 -48.5t-66 -33.5t-67.5 -23t-69 -16.5q-35 -8 -52 -12.5t-46.5 -14t-44.5 -18.5t-35 -25.5
t-29 -35.5t-16.5 -47t-7.5 -62v-158h-122v198q0 60 18.5 105t39.5 70.5t69.5 46.5t75 28.5t90.5 21.5q5 1 8 2q33 7 52 12t48.5 15t47.5 20.5t40.5 27t36 38t26.5 49t18.5 64.5t5.5 81q0 64 -19.5 111t-53.5 77t-87 48t-113 25t-140 7t-141 -7.5t-114 -25.5t-87 -48.5
t-53 -77t-19 -109.5zM525 124q29 0 50.5 -19.5t21.5 -47.5t-21.5 -47.5t-50.5 -19.5t-50 19.5t-21 47.5t21 47.5t50 19.5z" />
    <glyph glyph-name="at" unicode="@" horiz-adv-x="2023" 
d="M1262 -324l27 -105q-143 -34 -278 -34q-210 0 -383.5 72t-290.5 199.5t-181 305t-64 386.5q0 207 62.5 383t178 303.5t289.5 199.5t388 72q210 0 384 -69.5t291 -193t181 -295t64 -372.5q0 -212 -123.5 -340.5t-320.5 -128.5h-250l-4 122q-72 -83 -144 -112.5t-155 -29.5
q-181 0 -284 114t-103 317q0 187 123 305.5t316 118.5q139 0 241 -66v55h98v-714h169q147 2 236.5 98t89.5 261q0 241 -96.5 426.5t-281 290.5t-431.5 105q-189 0 -342 -63t-254.5 -175.5t-156 -268.5t-54.5 -343q0 -188 55.5 -345.5t158.5 -269.5t255 -174.5t338 -62.5
q131 0 252 28zM1226 267v476q-86 71 -221 71q-163 0 -262.5 -96.5t-99.5 -247.5q0 -164 81 -257.5t233 -93.5q76 0 138.5 29t130.5 119z" />
    <glyph glyph-name="A" unicode="A" horiz-adv-x="1497" 
d="M1410 0h-128l-163 396h-741l-163 -396h-128l597 1434h129zM416 498h665l-332 805z" />
    <glyph glyph-name="B" unicode="B" horiz-adv-x="1413" 
d="M200 1434h642q177 0 278.5 -99.5t101.5 -262.5q0 -117 -51.5 -201.5t-147.5 -122.5q123 -33 191 -128.5t68 -232.5q0 -176 -106.5 -281.5t-295.5 -105.5h-680v1434zM322 1335v-546h529q120 6 185 78.5t65 194.5q0 126 -72 199.5t-199 73.5h-508zM322 100h539
q138 0 214.5 78.5t76.5 215.5q0 135 -77 214.5t-214 79.5h-539v-588z" />
    <glyph glyph-name="C" unicode="C" horiz-adv-x="1402" 
d="M1202 180l77 -84q-173 -119 -416 -119q-168 0 -305 56t-227 155.5t-138.5 235t-48.5 294.5t48.5 294.5t138.5 234.5t227 155t305 56q243 0 416 -119l-77 -83q-139 99 -339 99q-186 0 -322.5 -81t-206 -224t-69.5 -332t69.5 -332t206 -224t322.5 -81q200 0 339 99z" />
    <glyph glyph-name="D" unicode="D" horiz-adv-x="1521" 
d="M200 1434h456q224 0 388.5 -90.5t249 -251.5t84.5 -374q0 -215 -83.5 -376.5t-248 -251.5t-390.5 -90h-456v1434zM322 103h334q286 0 443 163.5t157 451.5q0 284 -158.5 448.5t-441.5 164.5h-334v-1228z" />
    <glyph glyph-name="E" unicode="E" horiz-adv-x="1210" 
d="M1095 1331h-773v-541h709v-102h-709v-586h773v-102h-895v1434h895v-103z" />
    <glyph glyph-name="F" unicode="F" horiz-adv-x="1175" 
d="M1060 1331h-738v-564h674v-102h-674v-665h-122v1434h860v-103z" />
    <glyph glyph-name="G" unicode="G" horiz-adv-x="1617" 
d="M1435 768v-538q-94 -122 -239 -188.5t-333 -66.5q-220 0 -384.5 96.5t-249.5 264t-85 382.5q0 159 48.5 294.5t138.5 234.5t227 155t305 56q171 0 308 -56.5t231 -160.5l-75 -70q-179 184 -463 184q-276 0 -437.5 -174t-161.5 -463t161 -464.5t437 -175.5q292 0 453 188
v404h-453v98h572z" />
    <glyph glyph-name="H" unicode="H" horiz-adv-x="1533" 
d="M1334 0h-121v666h-891v-666h-122v1434h122v-666h891v666h121v-1434z" />
    <glyph glyph-name="I" unicode="I" horiz-adv-x="522" 
d="M322 0h-122v1434h122v-1434z" />
    <glyph glyph-name="J" unicode="J" horiz-adv-x="1028" 
d="M828 1434v-879q0 -104 -15.5 -187.5t-52.5 -155.5t-96 -120.5t-150 -76t-210 -27.5q-121 0 -217 32l23 87q80 -20 194 -20q115 0 194 30t124 92t64.5 145.5t19.5 200.5v879h122z" />
    <glyph glyph-name="K" unicode="K" horiz-adv-x="1320" 
d="M651 793l583 -793h-152l-508 699l-254 -305v-394h-120v1434h120v-863l710 863h151z" />
    <glyph glyph-name="L" unicode="L" horiz-adv-x="1155" 
d="M322 98h746v-98h-868v1434h122v-1336z" />
    <glyph glyph-name="M" unicode="M" horiz-adv-x="1808" 
d="M1608 0h-122v1198l-532 -1198h-118l-532 1198v-1198h-122v1434h151l562 -1295l562 1295h151v-1434z" />
    <glyph glyph-name="N" unicode="N" horiz-adv-x="1490" 
d="M1309 0h-148l-857 1230v-1230h-122v1434h147l858 -1231v1231h122v-1434z" />
    <glyph glyph-name="O" unicode="O" horiz-adv-x="1728" 
d="M863 1458q168 0 305 -56t228 -155t140 -234.5t49 -294.5q0 -161 -48.5 -297t-139 -235.5t-227.5 -155t-307 -55.5q-220 0 -384.5 96.5t-249.5 264t-85 382.5q0 159 48.5 294.5t138.5 234.5t227 155t305 56zM863 1355q-186 0 -322.5 -81t-206 -224t-69.5 -332
q0 -289 161 -464t437 -175q282 0 441 174t159 465q0 287 -160 462t-440 175z" />
    <glyph glyph-name="P" unicode="P" horiz-adv-x="1409" 
d="M200 1434h591q224 0 351.5 -129.5t127.5 -342.5q0 -215 -126.5 -344t-352.5 -129h-469v-489h-122v1434zM322 1333v-743h457q175 0 272 99.5t97 272.5q0 171 -97.5 271t-271.5 100h-457z" />
    <glyph glyph-name="Q" unicode="Q" horiz-adv-x="1736" 
d="M1528 -31l-179 179q-187 -173 -486 -173q-220 0 -384.5 96.5t-249.5 264t-85 382.5q0 159 48.5 294.5t138.5 234.5t227 155t305 56t305 -56t228 -155t140 -234.5t49 -294.5q0 -299 -156 -493l177 -177zM863 1355q-186 0 -322.5 -81t-206 -224t-69.5 -332q0 -289 161 -464
t437 -175q282 0 441 174t159 465q0 287 -160 462t-440 175z" />
    <glyph glyph-name="R" unicode="R" horiz-adv-x="1429" 
d="M200 1434h590q212 0 333 -122.5t121 -324.5q0 -178 -93.5 -294.5t-262.5 -141.5l408 -551h-145l-389 538h-440v-538h-122v1434zM322 1333v-694h456q164 0 254.5 93t90.5 254q0 159 -91.5 253t-253.5 94h-456z" />
    <glyph glyph-name="S" unicode="S" horiz-adv-x="1400" 
d="M100 172l74 83q80 -82 225 -129t302 -47q71 0 136 10.5t123.5 33.5t101.5 56.5t68.5 83t25.5 109.5q0 65 -26 113t-54.5 75.5t-102.5 52t-114 33t-144 27.5q-46 9 -70 13q-62 12 -106.5 22t-98.5 26.5t-91.5 35.5t-76 47t-61 61.5t-37 80t-14.5 101.5q0 99 49.5 177
t133.5 125.5t188 72t219 24.5q129 0 253.5 -30.5t219.5 -87.5l-71 -88q-172 106 -416 106q-122 0 -222 -31t-165 -99t-65 -163q0 -48 14.5 -86t45 -65.5t62.5 -47t84 -35t90.5 -24.5t99.5 -21q223 -42 290 -62q193 -55 264 -162q50 -77 50 -191q0 -80 -33 -146.5t-89 -112
t-131.5 -77.5t-159.5 -46.5t-174 -14.5q-175 0 -340 52.5t-257 144.5z" />
    <glyph glyph-name="T" unicode="T" horiz-adv-x="1363" 
d="M1276 1331h-533v-1331h-122v1331h-534v103h1189v-103z" />
    <glyph glyph-name="U" unicode="U" horiz-adv-x="1525" 
d="M1344 1434v-783q0 -125 -16.5 -224.5t-57.5 -186t-105.5 -144.5t-163.5 -90.5t-229 -32.5q-129 0 -227.5 32t-163.5 89t-106 142.5t-58 186.5t-17 228v783h122v-774q0 -144 22.5 -247.5t73.5 -179t139 -112.5t215 -37q128 0 216 38t139 114.5t73 179t22 244.5v774h122z
" />
    <glyph glyph-name="V" unicode="V" horiz-adv-x="1466" 
d="M795 0h-122l-586 1434h128l519 -1295l519 1295h127z" />
    <glyph glyph-name="W" unicode="W" horiz-adv-x="2234" 
d="M1183 1434l408 -1252l421 1252h134l-496 -1434h-125l-408 1237l-408 -1237h-126l-496 1434h134l421 -1252l408 1252h133z" />
    <glyph glyph-name="X" unicode="X" horiz-adv-x="1390" 
d="M775 732l528 -732h-140l-470 653l-465 -653h-141l528 737l-494 697h141l435 -617l432 617h140z" />
    <glyph glyph-name="Y" unicode="Y" horiz-adv-x="1413" 
d="M768 571v-571h-122v572l-559 862h141l479 -750l478 750h141z" />
    <glyph glyph-name="Z" unicode="Z" horiz-adv-x="1310" 
d="M1195 1363l-930 -1261h946v-102h-1111v71l931 1260h-859v103h1023v-71z" />
    <glyph glyph-name="bracketleft" unicode="[" horiz-adv-x="587" 
d="M495 1377h-290v-1621h290v-90h-403v1802h403v-91z" />
    <glyph glyph-name="backslash" unicode="\" horiz-adv-x="952" 
d="M864 -35h-119l-658 1503h120z" />
    <glyph glyph-name="bracketright" unicode="]" horiz-adv-x="587" 
d="M495 -334h-403v90h290v1621h-290v91h403v-1802z" />
    <glyph glyph-name="asciicircum" unicode="^" horiz-adv-x="1155" 
d="M1062 789h-136l-349 536l-349 -536h-136l424 638h123z" />
    <glyph glyph-name="underscore" unicode="_" horiz-adv-x="1128" 
d="M1036 -313h-944v98h944v-98z" />
    <glyph glyph-name="grave" unicode="`" horiz-adv-x="571" 
d="M480 1218l-62 -74l-326 274l62 73z" />
    <glyph glyph-name="a" unicode="a" horiz-adv-x="1187" 
d="M227 875l-32 74q183 102 381 102q86 0 166 -24t145 -70t104 -120t39 -166v-671h-105l-4 154q-156 -179 -410 -179q-107 0 -196 36.5t-147 114.5t-58 184q0 86 36.5 152.5t99 106t139.5 59.5t165 20q205 0 363 -90v116q0 92 -54 160t-133 99.5t-170 31.5q-169 0 -329 -90z
M913 237v241q-68 44 -159 68.5t-185 24.5q-96 0 -172 -25.5t-126 -84.5t-50 -145q0 -119 91.5 -185.5t225.5 -66.5q236 0 375 173z" />
    <glyph glyph-name="b" unicode="b" horiz-adv-x="1265" 
d="M292 1511v-636q124 104 208 140t182 36q228 0 345.5 -141.5t117.5 -395.5q0 -248 -128.5 -393.5t-355.5 -145.5q-238 0 -377 177l-4 -152h-106v1511h118zM292 770v-514q120 -186 339 -186q193 0 295 121t102 323q0 442 -372 442q-91 0 -166.5 -37t-197.5 -149z" />
    <glyph glyph-name="c" unicode="c" horiz-adv-x="1058" 
d="M893 129l64 -76q-57 -38 -139 -59t-161 -21q-245 0 -390.5 151.5t-145.5 387.5q0 113 36 211t103 171t169.5 115t227.5 42q91 0 168 -20.5t123 -54.5l-65 -76q-74 56 -219 56q-196 0 -311 -124t-115 -320q0 -200 117 -322t309 -122q59 0 122.5 16t106.5 45z" />
    <glyph glyph-name="d" unicode="d" horiz-adv-x="1265" 
d="M1092 0h-106l-4 152q-139 -177 -377 -177q-227 0 -355.5 145.5t-128.5 393.5q0 254 117.5 395.5t345.5 141.5q97 0 181.5 -36t208.5 -141v637h118v-1511zM974 256v514q-122 112 -197.5 149t-166.5 37q-372 0 -372 -442q0 -202 102 -323t295 -121q219 0 339 186z" />
    <glyph glyph-name="e" unicode="e" 
d="M991 148l50 -63q-164 -110 -390 -110q-247 0 -388.5 150t-141.5 390q0 154 58 274t177 192t283 72q235 0 362.5 -120t127.5 -350q0 -71 -12 -134h-879q17 -175 126 -278t287 -104q187 -3 340 81zM238 522h775q6 44 6 82q0 358 -378 358q-189 0 -294.5 -115.5
t-108.5 -301.5v-23z" />
    <glyph glyph-name="f" unicode="f" horiz-adv-x="798" 
d="M799 1532v-90q-194 0 -307 -101q-61 -53 -89 -129t-28 -188h338v-91h-338v-933h-118v933h-188v91h188q0 264 162 394q145 120 380 114z" />
    <glyph glyph-name="g" unicode="g" 
d="M425 103h189q67 1 121.5 -3t117 -14.5t109 -33t86 -56t60.5 -86t21 -119.5t-29.5 -121t-78 -89t-115 -59t-137 -34t-146.5 -10q-78 0 -150 9.5t-141 33t-119.5 58.5t-81.5 89.5t-31 122.5q0 206 210 272q-71 12 -113 52.5t-42 89.5q0 48 35 96t100 82q-143 99 -143 298
q0 180 122.5 279.5t320.5 99.5q116 0 208 -36h320v-74l-229 -6q68 -40 106 -107.5t38 -155.5q0 -183 -119.5 -280.5t-323.5 -97.5q-124 0 -213 42q-58 -24 -87 -59.5t-29 -72.5q0 -46 43.5 -77.5t120.5 -32.5zM590 967q-153 0 -244 -74.5t-91 -211.5q0 -139 89 -212.5
t246 -73.5q156 0 245 74.5t89 211.5t-90.5 211.5t-243.5 74.5zM592 14q-87 0 -149 -9t-116.5 -32t-82.5 -68.5t-28 -113.5q0 -74 55 -126t140.5 -74.5t192.5 -22.5q113 0 201.5 21.5t146.5 73t58 128.5q0 59 -22.5 100.5t-57.5 65t-92.5 36.5t-112.5 17t-133 4z" />
    <glyph glyph-name="h" unicode="h" horiz-adv-x="1282" 
d="M310 1511v-642q112 98 196 140.5t192 42.5q79 0 153.5 -24t136.5 -69.5t99.5 -120t37.5 -166.5v-672h-118v651q0 74 -29 133.5t-78 96t-108.5 56t-123.5 19.5q-95 0 -171 -41t-187 -146v-769h-118v1511h118z" />
    <glyph glyph-name="i" unicode="i" horiz-adv-x="493" 
d="M257 1399q29 0 50.5 -19.5t21.5 -47.5t-21.5 -47.5t-50.5 -19.5t-50 19.5t-21 47.5t21 47.5t50 19.5zM316 0h-118v1024h118v-1024z" />
    <glyph glyph-name="j" unicode="j" horiz-adv-x="503" 
d="M265 1399q29 0 50.5 -19.5t21.5 -47.5t-21.5 -47.5t-50.5 -19.5t-50 19.5t-21 47.5t21 47.5t50 19.5zM324 1024v-1063q0 -231 -147 -352q-125 -121 -327 -133v90q168 19 264 125q93 98 93 270v1063h117z" />
    <glyph glyph-name="k" unicode="k" horiz-adv-x="1116" 
d="M310 487l539 537h137l-399 -406l455 -618h-140l-388 535l-204 -200v-335h-118v1510h118v-1023z" />
    <glyph glyph-name="l" unicode="l" horiz-adv-x="700" 
d="M310 1511v-1081q0 -176 77 -263q78 -87 236 -87v-90q-207 -6 -317 103q-114 113 -114 337v1081h118z" />
    <glyph glyph-name="m" unicode="m" horiz-adv-x="1937" 
d="M280 1024l4 -155q103 97 180 140t177 43q105 0 199.5 -48t145.5 -137q114 105 199.5 145t194.5 40q59 0 116 -14.5t108.5 -46t91 -75.5t62.5 -107t23 -137v-672h-117v651q0 74 -26.5 133.5t-71 96t-99 56t-112.5 19.5q-91 0 -163 -34t-177 -136q22 -58 22 -125v-661h-117
v651q0 74 -26.5 133.5t-71 96t-99 56t-112.5 19.5q-85 0 -152 -39.5t-167 -139.5v-777h-118v1024h106z" />
    <glyph glyph-name="n" unicode="n" horiz-adv-x="1271" 
d="M280 1024l4 -157q114 99 199.5 142t196.5 43q64 0 125.5 -14.5t118 -46t99 -75.5t67.5 -107t25 -137v-672h-118v651q0 97 -51.5 168.5t-128 104t-164.5 32.5q-95 0 -171.5 -40t-189.5 -142v-774h-118v1024h106z" />
    <glyph glyph-name="o" unicode="o" horiz-adv-x="1312" 
d="M657 1051q250 0 392.5 -148.5t142.5 -390.5q0 -158 -60.5 -278.5t-183 -190.5t-291.5 -70q-126 0 -228.5 41t-169 113.5t-102.5 171t-36 213.5t36 213.5t102.5 171t169 113.5t228.5 41zM657 956q-194 0 -306.5 -122t-112.5 -322t112.5 -322t306.5 -122q197 0 307.5 120
t110.5 324q0 205 -112 324.5t-306 119.5z" />
    <glyph glyph-name="p" unicode="p" horiz-adv-x="1284" 
d="M298 1024l4 -152q139 177 377 177q230 0 357 -145t127 -394q0 -254 -117.5 -395.5t-345.5 -141.5q-98 0 -182 36t-208 140v-636h-118v1511h106zM310 768v-514q122 -112 197.5 -149t166.5 -37q372 0 372 442q0 202 -102 323t-295 121q-219 0 -339 -186z" />
    <glyph glyph-name="q" unicode="q" horiz-adv-x="1265" 
d="M974 -487v636q-124 -104 -208 -140t-182 -36q-228 0 -345.5 141.5t-117.5 395.5q0 249 127 394t357 145q238 0 377 -177l4 152h106v-1511h-118zM974 254v514q-120 186 -339 186q-193 0 -295 -121t-102 -323q0 -442 372 -442q91 0 166.5 37t197.5 149z" />
    <glyph glyph-name="r" unicode="r" horiz-adv-x="735" 
d="M684 1051v-97h-29q-103 0 -198 -51.5t-165 -159.5v-743h-118v1024h106l5 -181q75 100 175 153.5t210 54.5h14z" />
    <glyph glyph-name="s" unicode="s" horiz-adv-x="1028" 
d="M80 122l40 75q58 -56 166.5 -91t222.5 -35q134 0 222.5 51t88.5 151q0 37 -9 66t-34 50t-42.5 33.5t-64 25.5t-66.5 17t-80 15q-25 5 -37 7q-59 11 -97 19.5t-85 23t-75.5 33.5t-55 46t-38.5 65t-12 86q0 94 62.5 160.5t156 96.5t206.5 30q204 0 347 -89l-36 -78
q-62 36 -146 56.5t-168 20.5q-129 0 -217.5 -51t-88.5 -145q0 -38 13.5 -66.5t34 -46.5t56 -32.5t66.5 -22.5t79 -17q16 -3 49 -9q83 -15 124.5 -24t104 -31.5t92 -50.5t53 -76.5t23.5 -114.5q0 -95 -63.5 -162t-157 -96.5t-203.5 -29.5q-126 0 -245 37.5t-186 102.5z" />
    <glyph glyph-name="t" unicode="t" horiz-adv-x="813" 
d="M373 1024h311v-91h-311v-508q0 -151 81 -241q80 -89 236 -106v-90q-203 12 -316 121q-118 113 -118 316v508h-207v91h207v299h117v-299z" />
    <glyph glyph-name="u" unicode="u" horiz-adv-x="1253" 
d="M1097 0h-106l-4 157q-115 -99 -199.5 -142.5t-195.5 -43.5q-64 0 -125.5 15t-118 46t-99 75.5t-67.5 107.5t-25 137v672h117v-651q0 -97 51.5 -168.5t128.5 -104t165 -32.5q95 0 171 40t189 142v774h118v-1024z" />
    <glyph glyph-name="v" unicode="v" horiz-adv-x="1056" 
d="M592 0h-127l-414 1024h121l356 -905l357 905h120z" />
    <glyph glyph-name="w" unicode="w" horiz-adv-x="1669" 
d="M1243 0h-125l-284 851l-283 -851h-126l-374 1024h120l316 -885l292 885h111l291 -885l316 885h120z" />
    <glyph glyph-name="x" unicode="x" horiz-adv-x="1017" 
d="M585 512l381 -512h-128l-327 439l-332 -439h-128l388 515l-372 509h127l319 -431l310 431h128z" />
    <glyph glyph-name="y" unicode="y" horiz-adv-x="1118" 
d="M1067 1024l-495 -1225q-65 -157 -194 -235q-121 -72 -296 -72v90q149 0 253 66q96 65 146 188l65 164h-23l-421 1024h120l365 -907l360 907h120z" />
    <glyph glyph-name="z" unicode="z" horiz-adv-x="968" 
d="M869 972l-632 -881h644v-91h-796v54l629 879h-597v91h752v-52z" />
    <glyph glyph-name="braceleft" unicode="{" horiz-adv-x="774" 
d="M679 1463l2 -90q-148 -18 -233 -107.5t-85 -237.5v-259q0 -76 -39 -133t-104 -84q65 -27 104 -84t39 -133v-259q0 -149 85 -238t233 -108l-3 -90q-195 18 -311.5 127.5t-116.5 307.5v260q0 71 -41 116t-117 53v96q77 8 118 53t41 115v260q0 199 117 308.5t311 126.5z" />
    <glyph glyph-name="bar" unicode="|" horiz-adv-x="307" 
d="M214 -295h-122v1831h122v-1831z" />
    <glyph glyph-name="braceright" unicode="}" horiz-adv-x="774" 
d="M92 1373l3 90q194 -17 311 -126.5t117 -308.5v-259q0 -71 41 -116t117 -53v-96q-76 -8 -117 -53t-41 -116v-259q0 -101 -32 -181t-90 -132.5t-135 -83t-171 -39.5l-2 90q148 19 232.5 108t84.5 237v260q0 76 39 133t104 84q-65 27 -104 83.5t-39 132.5v260
q0 149 -85.5 238t-232.5 107z" />
    <glyph glyph-name="asciitilde" unicode="~" horiz-adv-x="1087" 
d="M156 505l-64 35q92 182 245 182q95 0 246 -86q114 -65 197 -65q114 0 151 105l65 -34q-30 -74 -86 -113t-126 -39q-93 0 -211 67q-148 84 -232 84q-118 0 -185 -136z" />
    <glyph glyph-name="exclamdown" unicode="&#xa1;" horiz-adv-x="327" 
d="M164 1074q29 0 50 -19.5t21 -47.5t-21 -47t-50 -19t-50.5 19t-21.5 47t21.5 47.5t50.5 19.5zM222 -369h-116v1120h116v-1120z" />
    <glyph glyph-name="cent" unicode="&#xa2;" horiz-adv-x="1013" 
d="M641 1048l23 -1q164 -9 253 -71l-65 -76q-74 56 -219 56q-196 0 -311 -124t-115 -320q0 -200 117 -322t309 -122q59 0 122.5 16t106.5 45l64 -76q-50 -32 -123 -52.5t-139 -23.5l-23 -2v-159h-111v168q-203 28 -321.5 172t-118.5 356q0 208 117 354t323 174v169h111v-161
z" />
    <glyph glyph-name="sterling" unicode="&#xa3;" horiz-adv-x="1286" 
d="M94 738h159q-18 61 -27 94t-18.5 94.5t-9.5 120.5q7 413 484 413q89 0 159 -10.5t131.5 -37t103 -68.5t65.5 -107.5t26 -152.5h-118q-3 79 -28.5 133t-75 83.5t-111.5 42t-148 12.5q-171 0 -265 -74t-97 -244q0 -57 9.5 -117t18 -90.5t27.5 -91.5h552v-102h-531
q19 -79 19 -140q0 -174 -168 -394h943v-102h-1101v102q100 113 145.5 199.5t52.5 162.5q3 22 3 45q0 50 -18 127h-182v102z" />
    <glyph glyph-name="currency" unicode="&#xa4;" horiz-adv-x="1495" 
 />
    <glyph glyph-name="yen" unicode="&#xa5;" horiz-adv-x="1413" 
d="M895 766h193v-91h-249l-71 -120v-125h320v-91h-320v-339h-122v339h-321v91h321v125l-72 120h-249v91h194l-432 668h141l479 -750l478 750h141z" />
    <glyph glyph-name="brokenbar" unicode="&#xa6;" horiz-adv-x="307" 
d="M214 787h-122v749h122v-749zM214 -295h-122v749h122v-749z" />
    <glyph glyph-name="section" unicode="&#xa7;" horiz-adv-x="1150" 
d="M92 -137l58 84q66 -64 189.5 -105.5t253.5 -41.5q150 0 250.5 60.5t100.5 175.5q0 52 -19 90t-46.5 61t-78 41t-92 27.5t-109.5 21.5q-23 4 -34 6q-57 11 -95 19t-85 22t-77.5 29.5t-62 39t-49.5 52t-29.5 68.5t-11.5 88q0 95 55.5 163t150.5 106q-98 36 -152 96t-54 164
q0 82 40.5 147.5t109 105.5t153 60.5t178.5 20.5q219 0 376 -93l-58 -87q-143 81 -331 81q-148 0 -249.5 -59t-101.5 -169q0 -45 17 -79.5t41 -55.5t67.5 -38t79 -25.5t93.5 -19.5q190 -36 248 -54q158 -48 210 -149q32 -63 32 -150q0 -172 -181 -260q87 -37 134 -100.5
t47 -168.5q0 -84 -41 -150t-110.5 -105.5t-153.5 -60t-176 -20.5q-143 0 -277 43t-210 119zM557 814l-63 13q-102 -22 -163.5 -77.5t-61.5 -139.5q0 -44 16 -78t40 -55t65.5 -38t78.5 -26t93 -20q171 -32 199 -40q87 26 137.5 79t50.5 132q0 52 -18.5 90.5t-48 62t-77 41
t-93.5 27.5t-109 21q-31 5 -46 8z" />
    <glyph glyph-name="dieresis" unicode="&#xa8;" horiz-adv-x="729" 
d="M167 1362q31 0 49 -18t18 -44t-18 -44.5t-49 -18.5t-49.5 18.5t-18.5 44.5t18.5 44t49.5 18zM563 1362q31 0 49 -18t18 -44t-18 -44.5t-49 -18.5t-49.5 18.5t-18.5 44.5t18.5 44t49.5 18z" />
    <glyph glyph-name="copyright" unicode="&#xa9;" horiz-adv-x="1658" 
d="M829 1454q150 0 286.5 -58.5t235 -157t157 -235t58.5 -286.5t-58.5 -286.5t-157 -235t-235 -157t-286.5 -58.5t-286.5 58.5t-235 157t-157 235t-58.5 286.5t58.5 286.5t157 235t235 157t286.5 58.5zM829 1371q-176 0 -326 -87.5t-237.5 -238t-87.5 -327.5
q0 -133 51.5 -253.5t139 -208t208 -139.5t252.5 -52t253 52t208 139.5t139 208t52 253.5t-52 253.5t-139.5 208t-208 139.5t-252.5 52zM1023 445l53 -60q-97 -71 -234 -71q-182 0 -287.5 113.5t-105.5 289.5t105.5 289t287.5 113q138 0 234 -70l-53 -60q-72 59 -181 59
q-144 0 -226 -90.5t-82 -240.5t82 -240.5t226 -90.5q109 0 181 59z" />
    <glyph glyph-name="ordfeminine" unicode="&#xaa;" horiz-adv-x="1114" 
d="M304 1315l-27 59q126 72 264 72q59 0 114 -16.5t99.5 -48t71.5 -82t27 -113.5v-456h-84l-3 94q-106 -112 -270 -112q-113 0 -193.5 61.5t-80.5 169.5q0 59 25 104.5t68 72.5t96 41t112 14q134 0 237 -56v70q-1 60 -35.5 103.5t-85.5 64t-111 20.5q-116 0 -224 -62z
M761 896v157q-95 60 -225 60q-98 0 -162.5 -41t-64.5 -124q0 -78 59 -121t147 -43q156 0 246 112z" />
    <glyph glyph-name="guillemotleft" unicode="&#xab;" horiz-adv-x="1134" 
d="M612 1019l-383 -419l383 -418l-77 -61l-443 479l443 480zM1042 1019l-382 -419l382 -418l-76 -61l-444 479l444 480z" />
    <glyph glyph-name="logicalnot" unicode="&#xac;" horiz-adv-x="1495" 
 />
    <glyph glyph-name="registered" unicode="&#xae;" horiz-adv-x="1658" 
d="M829 1454q150 0 286.5 -58.5t235 -157t157 -235t58.5 -286.5t-58.5 -286.5t-157 -235t-235 -157t-286.5 -58.5t-286.5 58.5t-235 157t-157 235t-58.5 286.5t58.5 286.5t157 235t235 157t286.5 58.5zM829 1371q-176 0 -326 -87.5t-237.5 -238t-87.5 -327.5
q0 -133 51.5 -253.5t139 -208t208 -139.5t252.5 -52t253 52t208 139.5t139 208t52 253.5t-52 253.5t-139.5 208t-208 139.5t-252.5 52zM553 1099h314q113 0 178.5 -66.5t65.5 -172.5q0 -91 -47 -152.5t-132 -77.5l214 -290h-93l-196 278h-226v-278h-78v759zM631 685h231
q82 0 126.5 46.5t44.5 128.5q0 81 -45 128t-126 47h-231v-350z" />
    <glyph glyph-name="macron" unicode="&#xaf;" horiz-adv-x="798" 
d="M707 1385h-615v77h615v-77z" />
    <glyph glyph-name="degree" unicode="&#xb0;" horiz-adv-x="808" 
d="M404 1640q130 0 221 -89.5t91 -213.5t-91 -213.5t-221 -89.5t-221 89.5t-91 213.5t91 213.5t221 89.5zM404 1567q-92 0 -161 -66.5t-69 -163.5t69 -163.5t161 -66.5t161 66.5t69 163.5t-69 163.5t-161 66.5z" />
    <glyph glyph-name="plusminus" unicode="&#xb1;" horiz-adv-x="1009" 
d="M554 845h363v-98h-363v-356h-98v356h-364v98h364v355h98v-355zM917 -33h-825v99h825v-99z" />
    <glyph glyph-name="twosuperior" unicode="&#xb2;" horiz-adv-x="753" 
d="M185 1236h-87q-4 117 70 163.5t212 46.5q64 0 112 -9t88 -30t61 -61t21 -98q0 -112 -64 -156t-196 -51q-110 -6 -161.5 -38.5t-52.5 -109.5v-100h470v-75h-560v168q0 114 78 166.5t220 60.5q98 6 137.5 32.5t39.5 101.5q0 74 -46 100t-147 26q-104 0 -150 -28.5
t-45 -108.5z" />
    <glyph glyph-name="threesuperior" unicode="&#xb3;" horiz-adv-x="765" 
d="M200 1250h-89q0 196 271 196q59 0 105 -8.5t85.5 -29t61 -59.5t21.5 -95q0 -123 -111 -164q129 -41 129 -179q0 -60 -22.5 -101.5t-64.5 -63.5t-91 -31.5t-113 -9.5q-134 0 -211.5 47.5t-78.5 163.5h89q0 -79 48.5 -108t152.5 -29q103 0 151.5 28.5t48.5 108.5
t-48.5 109.5t-151.5 29.5h-104v68h104q93 0 137 26.5t44 99.5q0 72 -43.5 97.5t-137.5 25.5t-138 -26t-44 -96z" />
    <glyph glyph-name="acute" unicode="&#xb4;" horiz-adv-x="571" 
d="M480 1418l-326 -274l-62 74l326 273z" />
    <glyph glyph-name="paragraph" unicode="&#xb6;" horiz-adv-x="1523" 
d="M1431 1335h-203v-1814h-122v1814h-324v-1814h-122v970h-112q-215 7 -335.5 134.5t-120.5 336.5q0 213 128 342.5t352 129.5h859v-99z" />
    <glyph glyph-name="periodcentered" unicode="&#xb7;" horiz-adv-x="319" 
d="M160 682q31 0 49 -17.5t18 -43.5t-18 -44t-49 -18t-49.5 18t-18.5 44t18.5 43.5t49.5 17.5z" />
    <glyph glyph-name="cedilla" unicode="&#xb8;" horiz-adv-x="608" 
d="M365 14l-85 -139q24 4 38 4q89 -2 144 -48.5t55 -130.5q0 -88 -65.5 -140t-165.5 -52q-137 0 -194 84l50 46q40 -58 138 -58q68 0 108.5 33t40.5 92q0 58 -41.5 91.5t-111.5 33.5q-38 0 -63 -8l-34 20l102 172h84z" />
    <glyph glyph-name="onesuperior" unicode="&#xb9;" horiz-adv-x="417" 
d="M325 712h-92v638l-141 -31v76l171 38h62v-721z" />
    <glyph glyph-name="ordmasculine" unicode="&#xba;" 
d="M615 1446q170 0 268.5 -101.5t98.5 -265.5q0 -163 -97 -265t-270 -102q-171 0 -268.5 103.5t-97.5 263.5t97.5 263.5t268.5 103.5zM615 1371q-128 0 -201 -79.5t-73 -212.5t73 -213t201 -80q130 0 202.5 78.5t72.5 214.5t-73.5 214t-201.5 78z" />
    <glyph glyph-name="guillemotright" unicode="&#xbb;" horiz-adv-x="1134" 
d="M1043 600l-444 -479l-76 61l382 418l-382 419l76 61zM612 600l-443 -479l-77 61l383 418l-383 419l77 61z" />
    <glyph glyph-name="onequarter" unicode="&#xbc;" horiz-adv-x="1347" 
d="M231 -35h-121l921 1503h121zM340 712h-92v638l-141 -31v76l170 38h63v-721zM1168 233h88v-73h-88v-160h-83v160h-428v68l427 494h84v-489zM761 233h324v379z" />
    <glyph glyph-name="onehalf" unicode="&#xbd;" horiz-adv-x="1521" 
d="M231 -35h-121l921 1503h121zM340 712h-92v638l-141 -31v76l170 38h63v-721zM952 518h-87q-4 117 70 163.5t212 46.5q64 0 112 -9t88 -30t61 -61t21 -98q0 -112 -64 -155.5t-196 -50.5q-110 -6 -161.5 -38.5t-52.5 -110.5v-100h470v-75h-560v169q0 114 78 166.5t220 60.5
q98 6 137.5 32t39.5 101q0 74 -46 100t-147 26q-104 0 -150 -28.5t-45 -108.5z" />
    <glyph glyph-name="threequarters" unicode="&#xbe;" horiz-adv-x="1574" 
d="M458 -35h-121l921 1503h121zM200 1250h-89q0 196 271 196q59 0 105 -8.5t85.5 -29t61 -59.5t21.5 -95q0 -123 -111 -164q129 -41 129 -179q0 -60 -22.5 -101.5t-64.5 -63.5t-91 -31.5t-113 -9.5q-134 0 -211.5 47.5t-78.5 163.5h89q0 -79 48.5 -108t152.5 -29
q103 0 151.5 28.5t48.5 108.5t-48.5 109.5t-151.5 29.5h-104v68h104q93 0 137 26.5t44 99.5q0 72 -43.5 97.5t-137.5 25.5t-138 -26t-44 -96zM1395 233h88v-73h-88v-160h-83v160h-428v68l427 494h84v-489zM988 233h324v379z" />
    <glyph glyph-name="questiondown" unicode="&#xbf;" horiz-adv-x="1255" 
d="M730 1116q29 0 50 -19.5t21 -47.5t-21 -47.5t-50 -19.5t-50 19.5t-21 47.5t21 47.5t50 19.5zM791 793v-198q0 -34 -5.5 -63t-13.5 -51t-24 -41.5t-29.5 -32.5t-37.5 -25.5t-40 -19.5t-46.5 -15.5t-47 -12.5t-49.5 -11q-3 -1 -5 -1.5t-4 -0.5q-37 -8 -59.5 -14t-55 -18.5
t-52.5 -26t-43 -36.5t-35.5 -52t-21 -70t-8.5 -91q0 -64 19.5 -111t53.5 -77t87 -48t113 -25t140 -7t141 7t114.5 25.5t87.5 48t53 76.5t19 110h121q0 -85 -26.5 -149.5t-72.5 -104.5t-115 -65.5t-145.5 -35t-173.5 -9.5t-173 9.5t-146.5 34.5t-117 65.5t-74 106.5
t-27.5 153q0 66 11.5 121t28.5 92.5t47 68t55.5 48.5t66 33.5t67 22.5t69.5 17q31 7 46 10.5t41.5 11.5t40 15.5t33.5 19.5t30 26.5t21 33.5t15.5 44t4.5 55v157h122z" />
    <glyph glyph-name="Agrave" unicode="&#xc0;" horiz-adv-x="1497" 
d="M941 1627l-62 -73l-326 274l62 73zM1410 0h-128l-163 396h-741l-163 -396h-128l597 1434h129zM416 498h665l-332 805z" />
    <glyph glyph-name="Aacute" unicode="&#xc1;" horiz-adv-x="1497" 
d="M945 1828l-326 -274l-61 73l326 274zM1410 0h-128l-163 396h-741l-163 -396h-128l597 1434h129zM416 498h665l-332 805z" />
    <glyph glyph-name="Acircumflex" unicode="&#xc2;" horiz-adv-x="1497" 
d="M1057 1607l-63 -63l-248 253l-249 -253l-63 63l312 314zM1410 0h-128l-163 396h-741l-163 -396h-128l597 1434h129zM416 498h665l-332 805z" />
    <glyph glyph-name="Atilde" unicode="&#xc3;" horiz-adv-x="1497" 
d="M538 1669l-69 40q59 128 154 128q52 0 135 -46q85 -45 125 -45q50 0 80 69l69 -39q-47 -113 -138 -113q-54 0 -141 47q-81 45 -119 45q-55 0 -96 -86zM1410 0h-128l-163 396h-741l-163 -396h-128l597 1434h129zM416 498h665l-332 805z" />
    <glyph glyph-name="Adieresis" unicode="&#xc4;" horiz-adv-x="1497" 
d="M548 1771q31 0 49 -18t18 -44t-18 -44t-49 -18t-49.5 18t-18.5 44t18.5 44t49.5 18zM944 1771q31 0 49 -18t18 -44t-18 -44t-49 -18t-49.5 18t-18.5 44t18.5 44t49.5 18zM1410 0h-128l-163 396h-741l-163 -396h-128l597 1434h129zM416 498h665l-332 805z" />
    <glyph glyph-name="Aring" unicode="&#xc5;" horiz-adv-x="1497" 
d="M746 1969q95 0 161 -64.5t66 -153.5t-66.5 -154t-160.5 -65t-160 65t-66 154t66 153.5t160 64.5zM746 1903q-60 0 -106 -44t-46 -108t46 -108.5t106 -44.5t106.5 44.5t46.5 108.5t-46.5 108t-106.5 44zM1410 0h-128l-163 396h-741l-163 -396h-128l597 1434h129zM416 498
h665l-332 805z" />
    <glyph glyph-name="AE" unicode="&#xc6;" horiz-adv-x="1759" 
d="M1644 1331h-773v-541h709v-102h-709v-586h773v-102h-895v396h-371l-163 -396h-128l597 1434h960v-103zM416 498h333v805z" />
    <glyph glyph-name="Ccedilla" unicode="&#xc7;" horiz-adv-x="1402" 
d="M577 -158l94 156q-250 56 -388.5 250.5t-138.5 469.5q0 159 48.5 294.5t139 234.5t227.5 155t305 56q242 0 415 -119l-77 -83q-137 99 -338 99q-186 0 -322.5 -81t-206.5 -224t-70 -332t70 -332t206.5 -224t322.5 -81q201 0 338 99l77 -84q-167 -113 -397 -119
q-66 0 -133 9l-71 -111q26 4 40 4q89 -3 143 -49.5t54 -129.5q0 -88 -65.5 -140t-165.5 -52q-137 0 -194 84l50 46q40 -58 138 -58q68 0 108.5 33t40.5 92q0 58 -41.5 91.5t-111.5 33.5q-38 0 -63 -8z" />
    <glyph glyph-name="Egrave" unicode="&#xc8;" horiz-adv-x="1210" 
d="M808 1627l-62 -73l-326 274l62 73zM1095 1331h-773v-541h709v-102h-709v-586h773v-102h-895v1434h895v-103z" />
    <glyph glyph-name="Eacute" unicode="&#xc9;" horiz-adv-x="1210" 
d="M813 1828l-326 -274l-62 73l326 274zM1095 1331h-773v-541h709v-102h-709v-586h773v-102h-895v1434h895v-103z" />
    <glyph glyph-name="Ecircumflex" unicode="&#xca;" horiz-adv-x="1210" 
d="M924 1607l-63 -63l-248 253l-248 -253l-63 63l311 314zM1095 1331h-773v-541h709v-102h-709v-586h773v-102h-895v1434h895v-103z" />
    <glyph glyph-name="Edieresis" unicode="&#xcb;" horiz-adv-x="1210" 
d="M415 1771q31 0 49.5 -18t18.5 -44t-18.5 -44t-49.5 -18t-49 18t-18 44t18 44t49 18zM811 1771q31 0 49 -18t18 -44t-18 -44t-49 -18t-49.5 18t-18.5 44t18.5 44t49.5 18zM1095 1331h-773v-541h709v-102h-709v-586h773v-102h-895v1434h895v-103z" />
    <glyph glyph-name="Igrave" unicode="&#xcc;" horiz-adv-x="522" 
d="M455 1627l-62 -73l-326 274l62 73zM322 0h-122v1434h122v-1434z" />
    <glyph glyph-name="Iacute" unicode="&#xcd;" horiz-adv-x="522" 
d="M459 1828l-326 -274l-62 73l327 274zM322 0h-122v1434h122v-1434z" />
    <glyph glyph-name="Icircumflex" unicode="&#xce;" horiz-adv-x="522" 
d="M571 1607l-63 -63l-249 253l-249 -253l-61 63l310 314zM322 0h-122v1434h122v-1434z" />
    <glyph glyph-name="Idieresis" unicode="&#xcf;" horiz-adv-x="522" 
d="M62 1771q31 0 49 -18t18 -44t-18 -44t-49 -18t-49.5 18t-18.5 44t18.5 44t49.5 18zM458 1771q31 0 49 -18t18 -44t-18 -44t-49 -18t-49.5 18t-18.5 44t18.5 44t49.5 18zM322 0h-122v1434h122v-1434z" />
    <glyph glyph-name="Eth" unicode="&#xd0;" horiz-adv-x="1538" 
d="M215 1434h457q224 0 388.5 -90.5t249 -251.5t84.5 -374q0 -215 -83.5 -376.5t-248 -251.5t-390.5 -90h-457v654h-209v99h209v681zM337 1331v-578h392v-98h-392v-552h335q286 0 443 163.5t157 451.5q0 284 -158.5 448.5t-441.5 164.5h-335z" />
    <glyph glyph-name="Ntilde" unicode="&#xd1;" horiz-adv-x="1490" 
d="M539 1669l-69 40q59 128 153 128q53 0 136 -46q85 -45 124 -45q51 0 81 69l69 -39q-47 -113 -138 -113q-54 0 -141 47q-81 45 -119 45q-55 0 -96 -86zM1309 0h-148l-857 1230v-1230h-122v1434h147l858 -1231v1231h122v-1434z" />
    <glyph glyph-name="Ograve" unicode="&#xd2;" horiz-adv-x="1728" 
d="M1060 1627l-61 -73l-326 274l61 73zM863 1458q168 0 305 -56t228 -155t140 -234.5t49 -294.5q0 -161 -48.5 -297t-139 -235.5t-227.5 -155t-307 -55.5q-220 0 -384.5 96.5t-249.5 264t-85 382.5q0 159 48.5 294.5t138.5 234.5t227 155t305 56zM863 1355
q-186 0 -322.5 -81t-206 -224t-69.5 -332q0 -289 161 -464t437 -175q282 0 441 174t159 465q0 287 -160 462t-440 175z" />
    <glyph glyph-name="Oacute" unicode="&#xd3;" horiz-adv-x="1728" 
d="M1065 1828l-326 -274l-62 73l326 274zM863 1458q168 0 305 -56t228 -155t140 -234.5t49 -294.5q0 -161 -48.5 -297t-139 -235.5t-227.5 -155t-307 -55.5q-220 0 -384.5 96.5t-249.5 264t-85 382.5q0 159 48.5 294.5t138.5 234.5t227 155t305 56zM863 1355
q-186 0 -322.5 -81t-206 -224t-69.5 -332q0 -289 161 -464t437 -175q282 0 441 174t159 465q0 287 -160 462t-440 175z" />
    <glyph glyph-name="Ocircumflex" unicode="&#xd4;" horiz-adv-x="1728" 
d="M1176 1607l-63 -63l-248 253l-248 -253l-63 63l311 314zM863 1458q168 0 305 -56t228 -155t140 -234.5t49 -294.5q0 -161 -48.5 -297t-139 -235.5t-227.5 -155t-307 -55.5q-220 0 -384.5 96.5t-249.5 264t-85 382.5q0 159 48.5 294.5t138.5 234.5t227 155t305 56z
M863 1355q-186 0 -322.5 -81t-206 -224t-69.5 -332q0 -289 161 -464t437 -175q282 0 441 174t159 465q0 287 -160 462t-440 175z" />
    <glyph glyph-name="Otilde" unicode="&#xd5;" horiz-adv-x="1728" 
d="M657 1669l-68 40q59 128 153 128q53 0 136 -46q85 -45 124 -45q51 0 81 69l69 -39q-47 -113 -138 -113q-55 0 -142 47q-81 45 -118 45q-56 0 -97 -86zM863 1458q168 0 305 -56t228 -155t140 -234.5t49 -294.5q0 -161 -48.5 -297t-139 -235.5t-227.5 -155t-307 -55.5
q-220 0 -384.5 96.5t-249.5 264t-85 382.5q0 159 48.5 294.5t138.5 234.5t227 155t305 56zM863 1355q-186 0 -322.5 -81t-206 -224t-69.5 -332q0 -289 161 -464t437 -175q282 0 441 174t159 465q0 287 -160 462t-440 175z" />
    <glyph glyph-name="Odieresis" unicode="&#xd6;" horiz-adv-x="1728" 
d="M667 1771q31 0 49.5 -18t18.5 -44t-18.5 -44t-49.5 -18t-49 18t-18 44t18 44t49 18zM1063 1771q31 0 49.5 -18t18.5 -44t-18.5 -44t-49.5 -18t-49 18t-18 44t18 44t49 18zM863 1458q168 0 305 -56t228 -155t140 -234.5t49 -294.5q0 -161 -48.5 -297t-139 -235.5
t-227.5 -155t-307 -55.5q-220 0 -384.5 96.5t-249.5 264t-85 382.5q0 159 48.5 294.5t138.5 234.5t227 155t305 56zM863 1355q-186 0 -322.5 -81t-206 -224t-69.5 -332q0 -289 161 -464t437 -175q282 0 441 174t159 465q0 287 -160 462t-440 175z" />
    <glyph glyph-name="multiply" unicode="&#xd7;" horiz-adv-x="837" 
d="M419 668l257 257l69 -69l-257 -257l257 -257l-69 -69l-257 257l-257 -257l-70 69l257 257l-257 257l70 69z" />
    <glyph glyph-name="Oslash" unicode="&#xd8;" horiz-adv-x="1728" 
d="M1283 1536l-68 -155q177 -88 273.5 -262t96.5 -401q0 -161 -48.5 -297t-139 -235.5t-227.5 -155t-307 -55.5q-130 0 -247 36l-50 -113h-120l68 154q-176 88 -273 263t-97 403q0 159 48.5 294.5t138.5 234.5t227 155t305 56q133 0 250 -36l50 114h120zM557 152l514 1173
q-95 30 -208 30q-186 0 -322.5 -81t-206 -224t-69.5 -332q0 -195 76 -342t216 -224zM1172 1282l-514 -1173q93 -30 205 -30q282 0 441 174t159 465q0 195 -75 341.5t-216 222.5z" />
    <glyph glyph-name="Ugrave" unicode="&#xd9;" horiz-adv-x="1525" 
d="M958 1627l-62 -73l-326 274l62 73zM1344 1434v-783q0 -125 -16.5 -224.5t-57.5 -186t-105.5 -144.5t-163.5 -90.5t-229 -32.5q-129 0 -227.5 32t-163.5 89t-106 142.5t-58 186.5t-17 228v783h122v-774q0 -144 22.5 -247.5t73.5 -179t139 -112.5t215 -37q128 0 216 38
t139 114.5t73 179t22 244.5v774h122z" />
    <glyph glyph-name="Uacute" unicode="&#xda;" horiz-adv-x="1525" 
d="M962 1828l-326 -274l-61 73l326 274zM1344 1434v-783q0 -125 -16.5 -224.5t-57.5 -186t-105.5 -144.5t-163.5 -90.5t-229 -32.5q-129 0 -227.5 32t-163.5 89t-106 142.5t-58 186.5t-17 228v783h122v-774q0 -144 22.5 -247.5t73.5 -179t139 -112.5t215 -37q128 0 216 38
t139 114.5t73 179t22 244.5v774h122z" />
    <glyph glyph-name="Ucircumflex" unicode="&#xdb;" horiz-adv-x="1525" 
d="M1074 1607l-63 -63l-249 253l-248 -253l-63 63l311 314zM1344 1434v-783q0 -125 -16.5 -224.5t-57.5 -186t-105.5 -144.5t-163.5 -90.5t-229 -32.5q-129 0 -227.5 32t-163.5 89t-106 142.5t-58 186.5t-17 228v783h122v-774q0 -144 22.5 -247.5t73.5 -179t139 -112.5
t215 -37q128 0 216 38t139 114.5t73 179t22 244.5v774h122z" />
    <glyph glyph-name="Udieresis" unicode="&#xdc;" horiz-adv-x="1525" 
d="M565 1771q31 0 49 -18t18 -44t-18 -44t-49 -18t-49.5 18t-18.5 44t18.5 44t49.5 18zM961 1771q31 0 49 -18t18 -44t-18.5 -44t-49.5 -18t-49 18t-18 44t18.5 44t49.5 18zM1344 1434v-783q0 -125 -16.5 -224.5t-57.5 -186t-105.5 -144.5t-163.5 -90.5t-229 -32.5
q-129 0 -227.5 32t-163.5 89t-106 142.5t-58 186.5t-17 228v783h122v-774q0 -144 22.5 -247.5t73.5 -179t139 -112.5t215 -37q128 0 216 38t139 114.5t73 179t22 244.5v774h122z" />
    <glyph glyph-name="Yacute" unicode="&#xdd;" horiz-adv-x="1413" 
d="M905 1828l-326 -274l-61 73l326 274zM768 571v-571h-122v572l-559 862h141l479 -750l478 750h141z" />
    <glyph glyph-name="Thorn" unicode="&#xde;" horiz-adv-x="1417" 
d="M322 1196h469q224 0 351.5 -129.5t127.5 -342.5q0 -215 -126.5 -344t-352.5 -129h-469v-251h-122v1434h122v-238zM322 352h457q175 0 272 99.5t97 272.5q0 171 -97.5 271t-271.5 100h-457v-743z" />
    <glyph glyph-name="germandbls" unicode="&#xdf;" horiz-adv-x="1374" 
d="M180 1v1090q2 85 26.5 150t66 106t102.5 66.5t128 35.5t151 10q85 0 152 -9.5t128.5 -35.5t102.5 -67.5t65 -108.5t24 -156q0 -137 -54 -214.5t-156 -111.5q165 -28 253 -117t88 -265q0 -96 -28.5 -166t-75.5 -112.5t-120.5 -67.5t-150 -33.5t-176.5 -8.5h-238v104h242
q83 0 144 6.5t117 25.5t90 51t54.5 85t20.5 126q0 90 -28.5 151t-86 94t-128.5 46.5t-171 14.5h-37v102h19q72 3 123.5 17.5t93 45t62.5 85t21 132.5q0 84 -24 140.5t-72 87t-108.5 42.5t-145.5 12q-172 0 -260.5 -59t-91.5 -211v-1083h-122z" />
    <glyph glyph-name="agrave" unicode="&#xe0;" horiz-adv-x="1187" 
d="M794 1218l-62 -74l-326 274l62 73zM227 875l-32 74q183 102 381 102q86 0 166 -24t145 -70t104 -120t39 -166v-671h-105l-4 154q-156 -179 -410 -179q-107 0 -196 36.5t-147 114.5t-58 184q0 86 36.5 152.5t99 106t139.5 59.5t165 20q205 0 363 -90v116q0 92 -54 160
t-133 99.5t-170 31.5q-169 0 -329 -90zM913 237v241q-68 44 -159 68.5t-185 24.5q-96 0 -172 -25.5t-126 -84.5t-50 -145q0 -119 91.5 -185.5t225.5 -66.5q236 0 375 173z" />
    <glyph glyph-name="aacute" unicode="&#xe1;" horiz-adv-x="1187" 
d="M799 1418l-326 -274l-62 74l326 273zM227 875l-32 74q183 102 381 102q86 0 166 -24t145 -70t104 -120t39 -166v-671h-105l-4 154q-156 -179 -410 -179q-107 0 -196 36.5t-147 114.5t-58 184q0 86 36.5 152.5t99 106t139.5 59.5t165 20q205 0 363 -90v116q0 92 -54 160
t-133 99.5t-170 31.5q-169 0 -329 -90zM913 237v241q-68 44 -159 68.5t-185 24.5q-96 0 -172 -25.5t-126 -84.5t-50 -145q0 -119 91.5 -185.5t225.5 -66.5q236 0 375 173z" />
    <glyph glyph-name="acircumflex" unicode="&#xe2;" horiz-adv-x="1187" 
d="M910 1198l-63 -63l-248 253l-248 -253l-63 63l311 314zM227 875l-32 74q183 102 381 102q86 0 166 -24t145 -70t104 -120t39 -166v-671h-105l-4 154q-156 -179 -410 -179q-107 0 -196 36.5t-147 114.5t-58 184q0 86 36.5 152.5t99 106t139.5 59.5t165 20q205 0 363 -90
v116q0 92 -54 160t-133 99.5t-170 31.5q-169 0 -329 -90zM913 237v241q-68 44 -159 68.5t-185 24.5q-96 0 -172 -25.5t-126 -84.5t-50 -145q0 -119 91.5 -185.5t225.5 -66.5q236 0 375 173z" />
    <glyph glyph-name="atilde" unicode="&#xe3;" horiz-adv-x="1187" 
d="M391 1259l-69 40q59 129 154 129q52 0 135 -46q87 -46 125 -46q50 0 80 69l69 -39q-47 -112 -137 -112q-57 0 -142 46q-81 45 -118 45q-56 0 -97 -86zM227 875l-32 74q183 102 381 102q86 0 166 -24t145 -70t104 -120t39 -166v-671h-105l-4 154q-156 -179 -410 -179
q-107 0 -196 36.5t-147 114.5t-58 184q0 86 36.5 152.5t99 106t139.5 59.5t165 20q205 0 363 -90v116q0 92 -54 160t-133 99.5t-170 31.5q-169 0 -329 -90zM913 237v241q-68 44 -159 68.5t-185 24.5q-96 0 -172 -25.5t-126 -84.5t-50 -145q0 -119 91.5 -185.5t225.5 -66.5
q236 0 375 173z" />
    <glyph glyph-name="adieresis" unicode="&#xe4;" horiz-adv-x="1187" 
d="M401 1362q31 0 49.5 -18t18.5 -44t-18.5 -44.5t-49.5 -18.5t-49 18.5t-18 44.5t18 44t49 18zM797 1362q31 0 49 -18t18 -44t-18 -44.5t-49 -18.5t-49.5 18.5t-18.5 44.5t18.5 44t49.5 18zM227 875l-32 74q183 102 381 102q86 0 166 -24t145 -70t104 -120t39 -166v-671
h-105l-4 154q-156 -179 -410 -179q-107 0 -196 36.5t-147 114.5t-58 184q0 86 36.5 152.5t99 106t139.5 59.5t165 20q205 0 363 -90v116q0 92 -54 160t-133 99.5t-170 31.5q-169 0 -329 -90zM913 237v241q-68 44 -159 68.5t-185 24.5q-96 0 -172 -25.5t-126 -84.5t-50 -145
q0 -119 91.5 -185.5t225.5 -66.5q236 0 375 173z" />
    <glyph glyph-name="aring" unicode="&#xe5;" horiz-adv-x="1187" 
d="M600 1559q94 0 160 -64.5t66 -153.5t-66 -153.5t-160 -64.5q-95 0 -161 64.5t-66 153.5t66 153.5t161 64.5zM600 1493q-60 0 -106.5 -44t-46.5 -108t46.5 -108t106.5 -44t106 44t46 108t-46 108t-106 44zM227 875l-32 74q183 102 381 102q86 0 166 -24t145 -70t104 -120
t39 -166v-671h-105l-4 154q-156 -179 -410 -179q-107 0 -196 36.5t-147 114.5t-58 184q0 86 36.5 152.5t99 106t139.5 59.5t165 20q205 0 363 -90v116q0 92 -54 160t-133 99.5t-170 31.5q-169 0 -329 -90zM913 237v241q-68 44 -159 68.5t-185 24.5q-96 0 -172 -25.5
t-126 -84.5t-50 -145q0 -119 91.5 -185.5t225.5 -66.5q236 0 375 173z" />
    <glyph glyph-name="ae" unicode="&#xe6;" horiz-adv-x="2068" 
d="M227 875l-32 74q183 102 381 102q102 0 193.5 -33t159 -104t82.5 -168q52 143 171.5 225t294.5 82q235 0 362.5 -120t127.5 -350q0 -71 -12 -134h-879q17 -175 126 -278t287 -104q190 -3 340 81l50 -64q-163 -109 -390 -109q-169 0 -288 78t-171 215v-268h-105l-4 154
q-156 -179 -410 -179q-107 0 -196 36.5t-147 114.5t-58 184q0 86 36.5 152.5t99 106t139.5 59.5t165 20q205 0 363 -90v117q-1 92 -54.5 159.5t-132.5 99t-170 31.5q-169 0 -329 -90zM1076 522h775q6 44 6 82q0 358 -378 358q-189 0 -294.5 -115.5t-108.5 -301.5v-23z
M913 237v241q-68 44 -159 68.5t-185 24.5q-96 0 -172 -25.5t-126 -84.5t-50 -145q0 -119 91.5 -185.5t225.5 -66.5q235 0 375 173z" />
    <glyph glyph-name="ccedilla" unicode="&#xe7;" horiz-adv-x="1058" 
d="M410 -158l90 150q-177 45 -278 185.5t-101 334.5q0 113 36 211t103 171t169.5 115t227.5 42q91 0 168 -20.5t123 -54.5l-65 -76q-74 56 -219 56q-196 0 -311 -124t-115 -320q0 -200 117 -322t309 -122q59 0 122.5 16t106.5 45l64 -76q-53 -35 -130.5 -56t-151.5 -24
q-51 0 -97 9l-68 -107q26 4 40 4q89 -3 143 -49.5t54 -129.5q0 -89 -65 -140.5t-165 -51.5q-137 0 -194 84l50 46q40 -58 137 -58q68 0 108.5 33t40.5 92q0 58 -41.5 91.5t-111.5 33.5q-37 0 -62 -8z" />
    <glyph glyph-name="egrave" unicode="&#xe8;" 
d="M808 1218l-62 -74l-326 274l62 73zM991 148l50 -63q-164 -110 -390 -110q-247 0 -388.5 150t-141.5 390q0 154 58 274t177 192t283 72q235 0 362.5 -120t127.5 -350q0 -71 -12 -134h-879q17 -175 126 -278t287 -104q187 -3 340 81zM238 522h775q6 44 6 82q0 358 -378 358
q-189 0 -294.5 -115.5t-108.5 -301.5v-23z" />
    <glyph glyph-name="eacute" unicode="&#xe9;" 
d="M812 1418l-326 -274l-61 74l326 273zM991 148l50 -64q-163 -109 -390 -109q-247 0 -388.5 150t-141.5 390q0 154 58 274t177 192t283 72q235 0 362.5 -120t127.5 -350q0 -71 -12 -134h-879q17 -175 126 -278t287 -104q187 -3 340 81zM238 522h775q6 44 6 82
q0 358 -378 358q-189 0 -294.5 -115.5t-108.5 -301.5v-23z" />
    <glyph glyph-name="ecircumflex" unicode="&#xea;" 
d="M924 1198l-63 -63l-248 253l-249 -253l-63 63l312 314zM991 148l50 -64q-163 -109 -390 -109q-247 0 -388.5 150t-141.5 390q0 154 58 274t177 192t283 72q235 0 362.5 -120t127.5 -350q0 -71 -12 -134h-879q17 -175 126 -278t287 -104q187 -3 340 81zM238 522h775
q6 44 6 82q0 358 -378 358q-189 0 -294.5 -115.5t-108.5 -301.5v-23z" />
    <glyph glyph-name="edieresis" unicode="&#xeb;" 
d="M415 1362q31 0 49 -18t18 -44t-18 -44.5t-49 -18.5t-49.5 18.5t-18.5 44.5t18.5 44t49.5 18zM811 1362q31 0 49 -18t18 -44t-18 -44.5t-49 -18.5t-49.5 18.5t-18.5 44.5t18.5 44t49.5 18zM991 148l51 -63q-164 -110 -391 -110q-247 0 -388.5 150t-141.5 390q0 154 58 274
t177 192t283 72q235 0 362.5 -120t127.5 -350q0 -71 -12 -134h-879q17 -175 126 -278t287 -104q187 -3 340 81zM238 522h775q6 44 6 82q0 358 -377 358q-189 0 -295 -115.5t-109 -301.5v-23z" />
    <glyph glyph-name="igrave" unicode="&#xec;" horiz-adv-x="468" 
d="M439 1218l-62 -74l-326 274l62 73zM302 0h-117v1024h117v-1024z" />
    <glyph glyph-name="iacute" unicode="&#xed;" horiz-adv-x="468" 
d="M443 1418l-326 -274l-61 74l326 273zM302 0h-117v1024h117v-1024z" />
    <glyph glyph-name="icircumflex" unicode="&#xee;" horiz-adv-x="468" 
d="M555 1198l-63 -63l-249 253l-247 -253l-64 63l311 314zM302 0h-117v1024h117v-1024z" />
    <glyph glyph-name="idieresis" unicode="&#xef;" horiz-adv-x="468" 
d="M46 1362q31 0 49 -18t18 -44t-18 -44.5t-49 -18.5t-48.5 18.5t-17.5 44.5t17.5 44t48.5 18zM442 1362q31 0 49 -18t18 -44t-18 -44.5t-49 -18.5t-49.5 18.5t-18.5 44.5t18.5 44t49.5 18zM302 0h-117v1024h117v-1024z" />
    <glyph glyph-name="eth" unicode="&#xf0;" horiz-adv-x="1228" 
d="M305 1361l-50 79q87 63 177.5 90.5t208.5 27.5q290 0 418 -162l148 86l48 -76l-148 -87q51 -96 70 -231t19 -325q0 -101 -5.5 -182t-21.5 -164t-42 -145.5t-68.5 -118t-100 -91t-137.5 -56t-180 -20.5t-178.5 12.5t-150.5 46t-119.5 88t-75.5 142t-28 203.5
q0 115 27 201.5t73 140t115.5 87t146 46t173.5 12.5q69 0 120.5 -5t104 -19.5t91.5 -40t74.5 -67.5t62.5 -100l1 96q0 151 -15.5 255.5t-57.5 175.5l-227 -132l-48 77l224 130q-95 125 -313 125q-103 0 -182 -22.5t-154 -76.5zM641 868q-106 0 -180.5 -16.5t-135 -59
t-90.5 -121t-30 -195.5t30 -195.5t90 -120.5t135 -59t181 -17q116 0 198 33.5t131 100t73.5 151.5t32.5 203q-21 76 -51.5 129.5t-66.5 86t-87 50.5t-103.5 24t-126.5 6z" />
    <glyph glyph-name="ntilde" unicode="&#xf1;" horiz-adv-x="1271" 
d="M438 1259l-69 40q59 129 154 129q52 0 135 -46q87 -46 125 -46q50 0 80 69l70 -39q-47 -112 -138 -112q-57 0 -142 46q-81 45 -118 45q-56 0 -97 -86zM280 1024l4 -157q114 99 199.5 142t196.5 43q64 0 125.5 -14.5t118 -46t99 -75.5t67.5 -107t25 -137v-672h-118v651
q0 97 -51.5 168.5t-128 104t-164.5 32.5q-95 0 -171.5 -40t-189.5 -142v-774h-118v1024h106z" />
    <glyph glyph-name="ograve" unicode="&#xf2;" horiz-adv-x="1312" 
d="M852 1218l-62 -74l-326 274l62 73zM657 1051q250 0 392.5 -148.5t142.5 -390.5q0 -158 -60.5 -278.5t-183 -190.5t-291.5 -70q-126 0 -228.5 41t-169 113.5t-102.5 171t-36 213.5t36 213.5t102.5 171t169 113.5t228.5 41zM657 956q-194 0 -306.5 -122t-112.5 -322
t112.5 -322t306.5 -122q197 0 307.5 120t110.5 324q0 205 -112 324.5t-306 119.5z" />
    <glyph glyph-name="oacute" unicode="&#xf3;" horiz-adv-x="1312" 
d="M856 1418l-326 -274l-61 74l326 273zM657 1051q250 0 392.5 -148.5t142.5 -390.5q0 -158 -60.5 -278.5t-183 -190.5t-291.5 -70q-126 0 -228.5 41t-169 113.5t-102.5 171t-36 213.5t36 213.5t102.5 171t169 113.5t228.5 41zM657 956q-194 0 -306.5 -122t-112.5 -322
t112.5 -322t306.5 -122q197 0 307.5 120t110.5 324q0 205 -112 324.5t-306 119.5z" />
    <glyph glyph-name="ocircumflex" unicode="&#xf4;" horiz-adv-x="1312" 
d="M968 1198l-63 -63l-248 253l-249 -253l-63 63l312 314zM657 1051q250 0 392.5 -148.5t142.5 -390.5q0 -158 -60.5 -278.5t-183 -190.5t-291.5 -70q-126 0 -228.5 41t-169 113.5t-102.5 171t-36 213.5t36 213.5t102.5 171t169 113.5t228.5 41zM657 956q-194 0 -306.5 -122
t-112.5 -322t112.5 -322t306.5 -122q197 0 307.5 120t110.5 324q0 205 -112 324.5t-306 119.5z" />
    <glyph glyph-name="otilde" unicode="&#xf5;" horiz-adv-x="1312" 
d="M449 1259l-69 40q59 129 154 129q52 0 135 -46q87 -46 125 -46q50 0 80 69l69 -39q-47 -112 -138 -112q-56 0 -141 46q-81 45 -119 45q-55 0 -96 -86zM657 1051q250 0 392.5 -148.5t142.5 -390.5q0 -158 -60.5 -278.5t-183 -190.5t-291.5 -70q-126 0 -228.5 41
t-169 113.5t-102.5 171t-36 213.5t36 213.5t102.5 171t169 113.5t228.5 41zM657 956q-194 0 -306.5 -122t-112.5 -322t112.5 -322t306.5 -122q197 0 307.5 120t110.5 324q0 205 -112 324.5t-306 119.5z" />
    <glyph glyph-name="odieresis" unicode="&#xf6;" horiz-adv-x="1312" 
d="M459 1362q31 0 49 -18t18 -44t-18 -44.5t-49 -18.5t-49.5 18.5t-18.5 44.5t18.5 44t49.5 18zM855 1362q31 0 49 -18t18 -44t-18 -44.5t-49 -18.5t-49.5 18.5t-18.5 44.5t18.5 44t49.5 18zM657 1051q250 0 393 -148.5t143 -390.5q0 -117 -35.5 -215.5t-102 -170.5
t-168.5 -112.5t-230 -40.5q-126 0 -228.5 41t-169 113.5t-102.5 171t-36 213.5t36 213.5t102.5 171t169 113.5t228.5 41zM657 956q-194 0 -306.5 -122t-112.5 -322t112.5 -322t306.5 -122q197 0 307.5 120t110.5 324q0 205 -112 324.5t-306 119.5z" />
    <glyph glyph-name="divide" unicode="&#xf7;" horiz-adv-x="1009" 
d="M505 1088q31 0 49 -18t18 -44t-18 -43.5t-49 -17.5t-49.5 17.5t-18.5 43.5t18.5 44t49.5 18zM917 645h-825v98h825v-98zM505 424q31 0 49 -18t18 -44t-18 -44t-49 -18t-49.5 18t-18.5 44t18.5 44t49.5 18z" />
    <glyph glyph-name="oslash" unicode="&#xf8;" horiz-adv-x="1312" 
d="M978 1126l-58 -131q131 -63 201.5 -189.5t70.5 -293.5q0 -158 -60.5 -278.5t-183 -190.5t-291.5 -70q-93 0 -174 23l-43 -98h-105l58 132q-131 65 -201.5 191.5t-70.5 290.5q0 115 36 213.5t102.5 171t169 113.5t228.5 41q96 0 174 -22l43 97h104zM434 123l357 815
q-67 18 -134 18q-194 0 -306.5 -122t-112.5 -322q0 -133 51 -234t145 -155zM879 902l-357 -816q62 -18 135 -18q197 0 307.5 120t110.5 324q0 136 -51 236t-145 154z" />
    <glyph glyph-name="ugrave" unicode="&#xf9;" horiz-adv-x="1253" 
d="M826 1218l-62 -74l-326 274l62 73zM1097 0h-106l-4 157q-115 -99 -199.5 -142.5t-195.5 -43.5q-64 0 -125.5 15t-118 46t-99 75.5t-67.5 107.5t-25 137v672h117v-651q0 -97 51.5 -168.5t128.5 -104t165 -32.5q95 0 171 40t189 142v774h118v-1024z" />
    <glyph glyph-name="uacute" unicode="&#xfa;" horiz-adv-x="1253" 
d="M830 1418l-326 -274l-61 74l326 273zM1097 0h-106l-4 157q-115 -99 -199.5 -142.5t-195.5 -43.5q-64 0 -125.5 15t-118 46t-99 75.5t-67.5 107.5t-25 137v672h117v-651q0 -97 51.5 -168.5t128.5 -104t165 -32.5q95 0 171 40t189 142v774h118v-1024z" />
    <glyph glyph-name="ucircumflex" unicode="&#xfb;" horiz-adv-x="1253" 
d="M942 1198l-63 -63l-248 253l-249 -253l-63 63l312 314zM1097 0h-106l-4 157q-115 -99 -199.5 -142.5t-195.5 -43.5q-64 0 -125.5 15t-118 46t-99 75.5t-67.5 107.5t-25 137v672h117v-651q0 -97 51.5 -168.5t128.5 -104t165 -32.5q95 0 171 40t189 142v774h118v-1024z" />
    <glyph glyph-name="udieresis" unicode="&#xfc;" horiz-adv-x="1253" 
d="M433 1362q31 0 49 -18t18 -44t-18 -44.5t-49 -18.5t-49 18.5t-18 44.5t18 44t49 18zM829 1362q31 0 49 -18t18 -44t-18 -44.5t-49 -18.5t-49.5 18.5t-18.5 44.5t18.5 44t49.5 18zM1097 0h-106l-4 157q-115 -99 -199.5 -142.5t-195.5 -43.5q-64 0 -125.5 15t-118 46
t-99 75.5t-67.5 107.5t-25 137v672h117v-651q0 -97 51.5 -168.5t128.5 -104t165 -32.5q95 0 171 40t189 142v774h118v-1024z" />
    <glyph glyph-name="yacute" unicode="&#xfd;" horiz-adv-x="1118" 
d="M756 1418l-326 -274l-62 74l326 273zM1067 1024l-495 -1225q-65 -157 -194 -235q-121 -72 -296 -72v90q149 0 253 66q96 65 146 188l65 164h-23l-421 1024h120l365 -907l360 907h120z" />
    <glyph glyph-name="thorn" unicode="&#xfe;" horiz-adv-x="1284" 
d="M310 1434v-555q138 170 369 170q230 0 357 -145t127 -394q0 -254 -117.5 -395.5t-345.5 -141.5q-98 0 -182 36t-208 140v-636h-118v1921h118zM310 768v-514q122 -112 197.5 -149t166.5 -37q372 0 372 442q0 202 -102 323t-295 121q-219 0 -339 -186z" />
    <glyph glyph-name="ydieresis" unicode="&#xff;" horiz-adv-x="1118" 
d="M359 1362q31 0 49 -18t18 -44t-18 -44.5t-49 -18.5t-49.5 18.5t-18.5 44.5t18.5 44t49.5 18zM754 1362q31 0 49.5 -18t18.5 -44t-18.5 -44.5t-49.5 -18.5t-49 18.5t-18 44.5t18 44t49 18zM1067 1024l-495 -1225q-65 -157 -194 -235q-121 -72 -296 -72v90q149 0 253 66
q96 65 146 188l65 164h-23l-421 1024h120l365 -907l360 907h120z" />
    <glyph glyph-name="Amacron" unicode="&#x100;" horiz-adv-x="1497" 
d="M1053 1794h-614v78h614v-78zM1410 0h-128l-163 396h-741l-163 -396h-128l597 1434h129zM416 498h665l-332 805z" />
    <glyph glyph-name="amacron" unicode="&#x101;" horiz-adv-x="1187" 
d="M907 1385h-615v77h615v-77zM227 875l-32 74q183 102 381 102q86 0 166 -24t145 -70t104 -120t39 -166v-671h-105l-4 154q-156 -179 -410 -179q-107 0 -196 36.5t-147 114.5t-58 184q0 86 36.5 152.5t99 106t139.5 59.5t165 20q205 0 363 -90v116q0 92 -54 160t-133 99.5
t-170 31.5q-169 0 -329 -90zM913 237v241q-68 44 -159 68.5t-185 24.5q-96 0 -172 -25.5t-126 -84.5t-50 -145q0 -119 91.5 -185.5t225.5 -66.5q236 0 375 173z" />
    <glyph glyph-name="Abreve" unicode="&#x102;" horiz-adv-x="1497" 
d="M952 1851l83 -3q-11 -111 -93 -184.5t-196 -73.5t-196 73.5t-93 184.5l83 3q10 -83 69 -135t137 -52t137 52t69 135zM1410 0h-128l-163 396h-741l-163 -396h-128l597 1434h129zM416 498h665l-332 805z" />
    <glyph glyph-name="abreve" unicode="&#x103;" horiz-adv-x="1187" 
d="M805 1441l84 -3q-11 -111 -93.5 -184.5t-196.5 -73.5t-196 73.5t-93 184.5l83 3q10 -83 69 -134.5t137 -51.5t137 51.5t69 134.5zM227 875l-32 74q183 102 381 102q86 0 166 -24t145 -70t104 -120t39 -166v-671h-105l-4 154q-156 -179 -410 -179q-107 0 -196 36.5
t-147 114.5t-58 184q0 86 36.5 152.5t99 106t139.5 59.5t165 20q205 0 363 -90v116q0 92 -54 160t-133 99.5t-170 31.5q-169 0 -329 -90zM913 237v241q-68 44 -159 68.5t-185 24.5q-96 0 -172 -25.5t-126 -84.5t-50 -145q0 -119 91.5 -185.5t225.5 -66.5q236 0 375 173z" />
    <glyph glyph-name="Aogonek" unicode="&#x104;" horiz-adv-x="1497" 
d="M1410 0l-22 -10q-101 -71 -150 -143.5t-49 -133.5q0 -58 40.5 -94t107.5 -36q74 0 159 44l35 -67q-110 -53 -210 -53q-71 0 -123.5 26.5t-79.5 73.5q-23 43 -23 94q0 71 46.5 148.5t140.5 150.5l-163 396h-741l-163 -396h-128l597 1434h129zM416 498h665l-332 805z" />
    <glyph glyph-name="aogonek" unicode="&#x105;" horiz-adv-x="1187" 
d="M227 875l-32 74q183 102 381 102q86 0 166 -24t145 -70t104 -120t39 -166v-681q-104 -74 -155 -148.5t-51 -136.5q0 -56 40.5 -93t107.5 -37q73 0 159 46l35 -67q-112 -54 -210 -54q-70 0 -123 27t-80 74q-23 43 -23 94q0 73 48 152t147 153l-4 154q-156 -179 -410 -179
q-107 0 -196 36.5t-147 114.5t-58 184q0 86 36.5 152.5t99 106t139.5 59.5t165 20q205 0 363 -90v116q0 92 -54 160t-133 99.5t-170 31.5q-169 0 -329 -90zM913 237v241q-68 44 -159 68.5t-185 24.5q-96 0 -172 -25.5t-126 -84.5t-50 -145q0 -119 91.5 -185.5t225.5 -66.5
q236 0 375 173z" />
    <glyph glyph-name="Cacute" unicode="&#x106;" horiz-adv-x="1402" 
d="M1063 1827l-327 -274l-61 74l326 273zM1202 180l77 -84q-173 -119 -416 -119q-168 0 -305 56t-227 155.5t-138.5 235t-48.5 294.5t48.5 294.5t138.5 234.5t227 155t305 56q243 0 416 -119l-77 -83q-139 99 -339 99q-186 0 -322.5 -81t-206 -224t-69.5 -332t69.5 -332
t206 -224t322.5 -81q200 0 339 99z" />
    <glyph glyph-name="cacute" unicode="&#x107;" horiz-adv-x="1058" 
d="M857 1421l-326 -274l-62 74l326 273zM893 129l64 -76q-57 -38 -139 -59t-161 -21q-245 0 -390.5 151.5t-145.5 387.5q0 113 36 211t103 171t169.5 115t227.5 42q91 0 168 -20.5t123 -54.5l-65 -76q-74 56 -219 56q-196 0 -311 -124t-115 -320q0 -200 117 -322t309 -122
q59 0 122.5 16t106.5 45z" />
    <glyph glyph-name="Cdotaccent" unicode="&#x10a;" horiz-adv-x="1402" 
d="M863 1770q31 0 49 -17.5t18 -43.5t-18 -44.5t-49 -18.5t-49.5 18.5t-18.5 44.5t18.5 43.5t49.5 17.5zM1202 180l77 -84q-173 -119 -416 -119q-168 0 -305 56t-227 155.5t-138.5 235t-48.5 294.5t48.5 294.5t138.5 234.5t227 155t305 56q243 0 416 -119l-77 -83
q-139 99 -339 99q-186 0 -322.5 -81t-206 -224t-69.5 -332t69.5 -332t206 -224t322.5 -81q200 0 339 99z" />
    <glyph glyph-name="cdotaccent" unicode="&#x10b;" horiz-adv-x="1058" 
d="M657 1365q31 0 49.5 -18t18.5 -44t-18.5 -44.5t-49.5 -18.5t-49 18.5t-18 44.5t18 44t49 18zM893 129l64 -76q-57 -38 -139 -59t-161 -21q-245 0 -390.5 151.5t-145.5 387.5q0 113 36 211t103 171t169.5 115t227.5 42q91 0 168 -20.5t123 -54.5l-65 -76q-74 56 -219 56
q-196 0 -311 -124t-115 -320q0 -200 117 -322t309 -122q59 0 122.5 16t106.5 45z" />
    <glyph glyph-name="Ccaron" unicode="&#x10c;" horiz-adv-x="1402" 
d="M1174 1847l-311 -314l-312 314l64 63l248 -253l248 253zM1202 180l77 -84q-173 -119 -416 -119q-168 0 -305 56t-227 155.5t-138.5 235t-48.5 294.5t48.5 294.5t138.5 234.5t227 155t305 56q243 0 416 -119l-77 -83q-139 99 -339 99q-186 0 -322.5 -81t-206 -224
t-69.5 -332t69.5 -332t206 -224t322.5 -81q200 0 339 99z" />
    <glyph glyph-name="ccaron" unicode="&#x10d;" horiz-adv-x="1058" 
d="M968 1441l-311 -314l-311 314l63 63l248 -253l248 253zM893 129l64 -76q-57 -38 -139 -59t-161 -21q-245 0 -390.5 151.5t-145.5 387.5q0 113 36 211t103 171t169.5 115t227.5 42q91 0 168 -20.5t123 -54.5l-65 -76q-74 56 -219 56q-196 0 -311 -124t-115 -320
q0 -200 117 -322t309 -122q59 0 122.5 16t106.5 45z" />
    <glyph glyph-name="Dcaron" unicode="&#x10e;" horiz-adv-x="1521" 
d="M968 1848l-312 -314l-311 314l63 62l248 -253l249 253zM200 1434h456q224 0 388.5 -90.5t249 -251.5t84.5 -374q0 -215 -83.5 -376.5t-248 -251.5t-390.5 -90h-456v1434zM322 103h334q286 0 443 163.5t157 451.5q0 284 -158.5 448.5t-441.5 164.5h-334v-1228z" />
    <glyph glyph-name="dcaron" unicode="&#x10f;" horiz-adv-x="1454" 
d="M1342 1440v12q-9 -3 -19 -3q-31 0 -49 18.5t-18 44.5t18 44t49 18q38 0 57 -28q23 -31 23 -95q0 -62 -22 -95.5t-79 -33.5h-20l8 53h9q25 0 33.5 13.5t9.5 51.5zM1092 0h-106l-4 152q-139 -177 -377 -177q-227 0 -355.5 145.5t-128.5 393.5q0 254 117.5 395.5
t345.5 141.5q97 0 181.5 -36t208.5 -141v637h118v-1511zM974 256v514q-122 112 -197.5 149t-166.5 37q-372 0 -372 -442q0 -202 102 -323t295 -121q219 0 339 186z" />
    <glyph glyph-name="Dcroat" unicode="&#x110;" horiz-adv-x="1538" 
d="M215 1434h457q224 0 388.5 -90.5t249 -251.5t84.5 -374q0 -215 -83.5 -376.5t-248 -251.5t-390.5 -90h-457v654h-209v99h209v681zM337 1331v-578h392v-98h-392v-552h335q286 0 443 163.5t157 451.5q0 284 -158.5 448.5t-441.5 164.5h-335z" />
    <glyph glyph-name="dcroat" unicode="&#x111;" horiz-adv-x="1265" 
d="M1292 1248h-200v-1248h-106l-4 152q-139 -177 -377 -177q-227 0 -355.5 145.5t-128.5 393.5q0 254 117.5 395.5t345.5 141.5q97 0 181.5 -36t208.5 -141v374h-297v76h297v187h118v-187h200v-76zM974 256v514q-122 112 -197.5 149t-166.5 37q-372 0 -372 -442
q0 -202 102 -323t295 -121q219 0 339 186z" />
    <glyph glyph-name="Emacron" unicode="&#x112;" horiz-adv-x="1210" 
d="M921 1794h-615v78h615v-78zM1095 1331h-773v-541h709v-102h-709v-586h773v-102h-895v1434h895v-103z" />
    <glyph glyph-name="emacron" unicode="&#x113;" 
d="M920 1385h-614v77h614v-77zM991 148l50 -63q-164 -110 -390 -110q-247 0 -388.5 150t-141.5 390q0 154 58 274t177 192t283 72q235 0 362.5 -120t127.5 -350q0 -71 -12 -134h-879q17 -175 126 -278t287 -104q187 -3 340 81zM238 522h775q6 44 6 82q0 358 -378 358
q-189 0 -294.5 -115.5t-108.5 -301.5v-23z" />
    <glyph glyph-name="Edotaccent" unicode="&#x116;" horiz-adv-x="1210" 
d="M613 1771q31 0 49 -18t18 -44t-18 -44t-49 -18t-49.5 18t-18.5 44t18.5 44t49.5 18zM1095 1331h-773v-541h709v-102h-709v-586h773v-102h-895v1434h895v-103z" />
    <glyph glyph-name="edotaccent" unicode="&#x117;" 
d="M613 1362q31 0 49 -18t18 -44t-18 -44.5t-49 -18.5t-49.5 18.5t-18.5 44.5t18.5 44t49.5 18zM991 148l50 -63q-164 -110 -390 -110q-247 0 -388.5 150t-141.5 390q0 154 58 274t177 192t283 72q235 0 362.5 -120t127.5 -350q0 -71 -12 -134h-879q17 -175 126 -278
t287 -104q187 -3 340 81zM238 522h775q6 44 6 82q0 358 -378 358q-189 0 -294.5 -115.5t-108.5 -301.5v-23z" />
    <glyph glyph-name="Eogonek" unicode="&#x118;" horiz-adv-x="1210" 
d="M1095 1331h-773v-541h709v-102h-709v-586h773v-102h-166q-93 -69 -138 -138.5t-45 -127.5t40.5 -94.5t107.5 -36.5q72 0 159 45l35 -68q-110 -53 -209 -53q-71 0 -123.5 26.5t-79.5 73.5q-24 45 -24 95q0 144 161 278h-613v1434h895v-103z" />
    <glyph glyph-name="eogonek" unicode="&#x119;" 
d="M1018 -344l35 -67q-110 -53 -209 -53q-71 0 -123.5 26.5t-79.5 73.5q-23 41 -23 93q0 132 141 259q-53 -6 -104 -6q-18 0 -56 2q-224 14 -351 159.5t-127 372.5q0 154 58 274t177 191.5t283 71.5q235 0 362.5 -119.5t127.5 -349.5q0 -71 -12 -134h-879q17 -175 126 -278
t287 -104q187 -3 340 81l50 -64q-61 -41 -133 -67q-100 -71 -148.5 -143t-48.5 -134q0 -32 14 -60q39 -71 135 -71q72 0 158 46zM238 523h775q6 44 6 81q0 358 -378 358q-189 0 -294.5 -115.5t-108.5 -301.5v-22z" />
    <glyph glyph-name="Ecaron" unicode="&#x11a;" horiz-adv-x="1210" 
d="M924 1848l-311 -314l-311 314l63 62l248 -253l248 253zM1095 1331h-773v-541h709v-102h-709v-586h773v-102h-895v1434h895v-103z" />
    <glyph glyph-name="ecaron" unicode="&#x11b;" 
d="M924 1438l-311 -314l-312 314l63 63l249 -253l248 253zM991 148l50 -64q-163 -109 -390 -109q-247 0 -388.5 150t-141.5 390q0 154 58 274t177 192t283 72q235 0 362.5 -120t127.5 -350q0 -71 -12 -134h-879q17 -175 126 -278t287 -104q187 -3 340 81zM238 522h775
q6 44 6 82q0 358 -378 358q-189 0 -294.5 -115.5t-108.5 -301.5v-23z" />
    <glyph glyph-name="Gbreve" unicode="&#x11e;" horiz-adv-x="1617" 
d="M1013 1851l83 -3q-11 -111 -93 -184.5t-196 -73.5t-196.5 73.5t-93.5 184.5l84 3q10 -83 69 -135t137 -52t137 52t69 135zM1435 768v-538q-94 -122 -239 -188.5t-333 -66.5q-220 0 -384.5 96.5t-249.5 264t-85 382.5q0 159 48.5 294.5t138.5 234.5t227 155t305 56
q171 0 308 -56.5t231 -160.5l-75 -70q-179 184 -463 184q-276 0 -437.5 -174t-161.5 -463t161 -464.5t437 -175.5q292 0 453 188v404h-453v98h572z" />
    <glyph glyph-name="gbreve" unicode="&#x11f;" 
d="M820 1441l84 -3q-11 -111 -93.5 -184.5t-196.5 -73.5t-196 73.5t-93 184.5l83 3q10 -83 69 -134.5t137 -51.5t137 51.5t69 134.5zM425 103h189q67 1 121.5 -3t117 -14.5t109 -33t86 -56t60.5 -86t21 -119.5t-29.5 -121t-78 -89t-115 -59t-137 -34t-146.5 -10
q-78 0 -150 9.5t-141 33t-119.5 58.5t-81.5 89.5t-31 122.5q0 206 210 272q-71 12 -113 52.5t-42 89.5q0 48 35 96t100 82q-143 99 -143 298q0 180 122.5 279.5t320.5 99.5q116 0 208 -36h320v-74l-229 -6q68 -40 106 -107.5t38 -155.5q0 -183 -119.5 -280.5t-323.5 -97.5
q-124 0 -213 42q-58 -24 -87 -59.5t-29 -72.5q0 -46 43.5 -77.5t120.5 -32.5zM590 967q-153 0 -244 -74.5t-91 -211.5q0 -139 89 -212.5t246 -73.5q156 0 245 74.5t89 211.5t-90.5 211.5t-243.5 74.5zM592 14q-87 0 -149 -9t-116.5 -32t-82.5 -68.5t-28 -113.5
q0 -74 55 -126t140.5 -74.5t192.5 -22.5q113 0 201.5 21.5t146.5 73t58 128.5q0 59 -22.5 100.5t-57.5 65t-92.5 36.5t-112.5 17t-133 4z" />
    <glyph glyph-name="Gdotaccent" unicode="&#x120;" horiz-adv-x="1617" 
d="M806 1771q31 0 49.5 -18t18.5 -44t-18.5 -44t-49.5 -18t-49 18t-18 44t18 44t49 18zM1435 768v-538q-94 -122 -239 -188.5t-333 -66.5q-220 0 -384.5 96.5t-249.5 264t-85 382.5q0 159 48.5 294.5t138.5 234.5t227 155t305 56q171 0 308 -56.5t231 -160.5l-75 -70
q-179 184 -463 184q-276 0 -437.5 -174t-161.5 -463t161 -464.5t437 -175.5q292 0 453 188v404h-453v98h572z" />
    <glyph glyph-name="gdotaccent" unicode="&#x121;" 
d="M614 1362q31 0 49 -18t18 -44t-18 -44.5t-49 -18.5t-49.5 18.5t-18.5 44.5t18.5 44t49.5 18zM425 103h189q67 1 121.5 -3t117 -14.5t109 -33t86 -56t60.5 -86t21 -119.5t-29.5 -121t-78 -89t-115 -59t-137 -34t-146.5 -10q-78 0 -150 9.5t-141 33t-119.5 58.5t-81.5 89.5
t-31 122.5q0 206 210 272q-71 12 -113 52.5t-42 89.5q0 48 35 96t100 82q-143 99 -143 298q0 180 122.5 279.5t320.5 99.5q116 0 208 -36h320v-74l-229 -6q68 -40 106 -107.5t38 -155.5q0 -183 -119.5 -280.5t-323.5 -97.5q-124 0 -213 42q-58 -24 -87 -59.5t-29 -72.5
q0 -46 43.5 -77.5t120.5 -32.5zM590 967q-153 0 -244 -74.5t-91 -211.5q0 -139 89 -212.5t246 -73.5q156 0 245 74.5t89 211.5t-90.5 211.5t-243.5 74.5zM592 14q-87 0 -149 -9t-116.5 -32t-82.5 -68.5t-28 -113.5q0 -74 55 -126t140.5 -74.5t192.5 -22.5q113 0 201.5 21.5
t146.5 73t58 128.5q0 59 -22.5 100.5t-57.5 65t-92.5 36.5t-112.5 17t-133 4z" />
    <glyph glyph-name="Gcommaaccent" unicode="&#x122;" horiz-adv-x="1617" 
d="M1435 768v-538q-94 -122 -239 -188.5t-333 -66.5q-220 0 -384.5 96.5t-249.5 264t-85 382.5q0 159 48.5 294.5t138.5 234.5t227 155t305 56q171 0 308 -56.5t231 -160.5l-75 -70q-179 184 -463 184q-276 0 -437.5 -174t-161.5 -463t161 -464.5t437 -175.5q292 0 453 188
v404h-453v98h572zM823 -328v11q-6 -2 -19 -2q-31 0 -49 17.5t-18 43.5t18 43.5t49 17.5q39 0 57 -26q23 -31 23 -94q0 -53 -22 -82t-79 -29h-20l8 43h8q26 0 34.5 12t9.5 45z" />
    <glyph glyph-name="gcommaaccent" unicode="&#x123;" 
d="M654 1498h-9q-26 0 -34 -12t-9 -45l-1 -10q9 3 20 3q31 0 49 -18.5t18 -44.5t-18 -44t-49 -18q-38 0 -57 28q-23 31 -23 95q0 52 22 80.5t79 28.5h19zM425 103h189q67 1 121.5 -3t117 -14.5t109 -33t86 -56t60.5 -86t21 -119.5t-29.5 -121t-78 -89t-115 -59t-137 -34
t-146.5 -10q-78 0 -150 9.5t-141 33t-119.5 58.5t-81.5 89.5t-31 122.5q0 206 210 272q-71 12 -113 52.5t-42 89.5q0 48 35 96t100 82q-143 99 -143 298q0 180 122.5 279.5t320.5 99.5q116 0 208 -36h320v-74l-229 -6q68 -40 106 -107.5t38 -155.5q0 -183 -119.5 -280.5
t-323.5 -97.5q-124 0 -213 42q-58 -24 -87 -59.5t-29 -72.5q0 -46 43.5 -77.5t120.5 -32.5zM590 967q-153 0 -244 -74.5t-91 -211.5q0 -139 89 -212.5t246 -73.5q156 0 245 74.5t89 211.5t-90.5 211.5t-243.5 74.5zM592 14q-87 0 -149 -9t-116.5 -32t-82.5 -68.5t-28 -113.5
q0 -74 55 -126t140.5 -74.5t192.5 -22.5q113 0 201.5 21.5t146.5 73t58 128.5q0 59 -22.5 100.5t-57.5 65t-92.5 36.5t-112.5 17t-133 4z" />
    <glyph glyph-name="Hbar" unicode="&#x126;" horiz-adv-x="1533" 
d="M1534 1063h-200v-1063h-122v666h-890v-666h-122v1063h-200v102h200v269h122v-269h890v269h122v-269h200v-102zM1212 1063h-890v-295h890v295z" />
    <glyph glyph-name="hbar" unicode="&#x127;" horiz-adv-x="1282" 
d="M310 1234v-365q112 98 196 140.5t192 42.5q79 0 153.5 -24t136.5 -69.5t99.5 -120t37.5 -166.5v-672h-118v651q0 74 -29 133.5t-78 96t-108.5 56t-123.5 19.5q-95 0 -171 -41t-187 -146v-769h-118v1234h-202v90h202v187h118v-187h373v-90h-373z" />
    <glyph glyph-name="Itilde" unicode="&#x128;" horiz-adv-x="522" 
d="M52 1669l-68 40q57 128 152 128q53 0 136 -46q85 -45 124 -45q51 0 81 69l69 -39q-47 -113 -138 -113q-54 0 -141 47q-81 45 -119 45q-55 0 -96 -86zM322 0h-122v1434h122v-1434z" />
    <glyph glyph-name="itilde" unicode="&#x129;" horiz-adv-x="468" 
d="M36 1259l-69 40q59 129 153 129q53 0 136 -46q87 -46 125 -46q50 0 80 69l69 -39q-47 -112 -138 -112q-56 0 -141 46q-81 45 -119 45q-55 0 -96 -86zM302 0h-117v1024h117v-1024z" />
    <glyph glyph-name="Imacron" unicode="&#x12a;" horiz-adv-x="522" 
d="M567 1794h-614v78h614v-78zM322 0h-122v1434h122v-1434z" />
    <glyph glyph-name="imacron" unicode="&#x12b;" horiz-adv-x="468" 
d="M551 1385h-614v77h614v-77zM302 0h-117v1024h117v-1024z" />
    <glyph glyph-name="Iogonek" unicode="&#x12e;" horiz-adv-x="522" 
d="M322 1433v-1443q-105 -74 -156.5 -148.5t-51.5 -136.5q0 -56 40.5 -93t107.5 -37q73 0 159 46l35 -67q-114 -54 -211 -54q-70 0 -122.5 27t-79.5 74q-22 41 -22 89q0 71 45.5 149.5t136.5 150.5l-3 10v1433h122z" />
    <glyph glyph-name="iogonek" unicode="&#x12f;" horiz-adv-x="468" 
d="M243 1362q31 0 49.5 -18t18.5 -44t-18.5 -44.5t-49.5 -18.5t-49 18.5t-18 44.5t18 44t49 18zM302 1024v-1034q-104 -73 -155 -148t-51 -137q0 -56 40.5 -93t107.5 -37q73 0 159 46l35 -67q-114 -54 -212 -54q-70 0 -122 27t-79 74q-22 41 -22 89q0 70 45.5 148t135.5 152
l1 10v1024h117z" />
    <glyph glyph-name="Idotaccent" unicode="&#x130;" horiz-adv-x="522" 
d="M259 1771q31 0 49.5 -18t18.5 -44t-18.5 -44t-49.5 -18t-49 18t-18 44t18 44t49 18zM322 0h-122v1434h122v-1434z" />
    <glyph glyph-name="dotlessi" unicode="&#x131;" horiz-adv-x="468" 
d="M302 0h-117v1024h117v-1024z" />
    <glyph glyph-name="IJ" unicode="&#x132;" horiz-adv-x="1550" 
d="M322 0h-122v1434h122v-1434zM1350 1434v-879q0 -104 -15.5 -187.5t-53 -155.5t-96.5 -120.5t-150 -76t-210 -27.5q-120 0 -216 32l23 87q80 -20 193 -20q115 0 194 30t124.5 92t65 145.5t19.5 200.5v879h122z" />
    <glyph glyph-name="ij" unicode="&#x133;" horiz-adv-x="997" 
d="M257 1399q29 0 50.5 -19.5t21.5 -47.5t-21.5 -47.5t-50.5 -19.5t-50 19.5t-21 47.5t21 47.5t50 19.5zM760 1399q29 0 50 -19.5t21 -47.5t-21 -47.5t-50 -19.5t-50.5 19.5t-21.5 47.5t21.5 47.5t50.5 19.5zM316 0h-118v1024h118v-1024zM818 1024v-1063q0 -231 -147 -352
q-125 -121 -325 -133v90q166 18 262 125q93 98 93 270v1063h117z" />
    <glyph glyph-name="Kcommaaccent" unicode="&#x136;" horiz-adv-x="1320" 
d="M651 793l583 -793h-152l-508 699l-254 -305v-394h-120v1434h120v-863l710 863h151zM673 -328v11q-6 -2 -19 -2q-31 0 -49.5 17.5t-18.5 43.5t18.5 43.5t49.5 17.5q39 0 57 -26q22 -30 22 -94q0 -53 -21.5 -82t-78.5 -29h-20l8 43h8q26 0 34.5 12t9.5 45z" />
    <glyph glyph-name="kcommaaccent" unicode="&#x137;" horiz-adv-x="1116" 
d="M310 487l539 537h137l-399 -406l455 -618h-140l-388 535l-204 -200v-335h-118v1510h118v-1023zM568 -328v11q-6 -2 -19 -2q-31 0 -49 17.5t-18 43.5t18 43.5t49 17.5q39 0 57 -26q23 -31 23 -94q0 -53 -22 -82t-79 -29h-20l8 43h8q26 0 34.5 12t9.5 45z" />
    <glyph glyph-name="Lacute" unicode="&#x139;" horiz-adv-x="1155" 
d="M785 1828l-326 -274l-62 73l326 274zM322 98h746v-98h-868v1434h122v-1336z" />
    <glyph glyph-name="lacute" unicode="&#x13a;" horiz-adv-x="700" 
d="M446 1905l-326 -274l-61 74l326 273zM310 1511v-1081q0 -176 77 -263q78 -87 236 -87v-90q-207 -6 -317 103q-114 113 -114 337v1081h118z" />
    <glyph glyph-name="Lcommaaccent" unicode="&#x13b;" horiz-adv-x="1155" 
d="M322 98h746v-98h-868v1434h122v-1336zM602 -328v11q-6 -2 -19 -2q-31 0 -49.5 17.5t-18.5 43.5t18.5 43.5t49.5 17.5q39 0 57 -26q23 -31 23 -94q0 -53 -22 -82t-79 -29h-20l8 43h8q26 0 34.5 12t9.5 45z" />
    <glyph glyph-name="lcommaaccent" unicode="&#x13c;" horiz-adv-x="700" 
d="M310 1511v-1081q0 -176 77 -263q78 -87 236 -87v-90q-207 -6 -317 103q-114 113 -114 337v1081h118zM344 -328v11q-6 -2 -19 -2q-31 0 -49.5 17.5t-18.5 43.5t18.5 43.5t49.5 17.5q39 0 57 -26q22 -30 22 -94q0 -53 -21.5 -82t-78.5 -29h-20l8 43h8q26 0 34.5 12t9.5 45z
" />
    <glyph glyph-name="Lcaron" unicode="&#x13d;" horiz-adv-x="1155" 
d="M322 98h746v-98h-868v1434h122v-1336z" />
    <glyph glyph-name="lcaron" unicode="&#x13e;" horiz-adv-x="741" 
d="M561 1440v12q-9 -3 -19 -3q-31 0 -49.5 18.5t-18.5 44.5t18.5 44t49.5 18q38 0 57 -28q22 -30 22 -95q0 -62 -21.5 -95.5t-78.5 -33.5h-20l8 53h8q25 0 34 13.5t10 51.5zM310 1511v-1081q0 -176 77 -263q78 -87 236 -87v-90q-207 -6 -317 103q-114 113 -114 337v1081h118
z" />
    <glyph glyph-name="Ldot" unicode="&#x13f;" horiz-adv-x="1155" 
d="M322 98h746v-98h-868v1434h122v-1336zM823 810q31 0 49.5 -18t18.5 -44t-18.5 -44t-49.5 -18t-49 18t-18 44t18 44t49 18z" />
    <glyph glyph-name="ldot" unicode="&#x140;" horiz-adv-x="776" 
d="M310 1511v-1081q0 -176 77 -263q78 -87 236 -87v-90q-207 -6 -317 103q-114 113 -114 337v1081h118zM655 810q31 0 49.5 -18t18.5 -44t-18.5 -44t-49.5 -18t-49.5 18t-18.5 44t18.5 44t49.5 18z" />
    <glyph glyph-name="Lslash" unicode="&#x141;" horiz-adv-x="1165" 
d="M356 937l387 211l52 -89l-439 -240v-721h746v-98h-868v752l-141 -77l-53 90l194 106v563h122v-497z" />
    <glyph glyph-name="lslash" unicode="&#x142;" horiz-adv-x="882" 
d="M426 944l337 184l44 -76l-381 -207v-415q0 -160 66 -247q77 -103 248 -103v-90q-221 -6 -331 121q-100 112 -100 319v351l-198 -108l-44 75l242 132v631h117v-567z" />
    <glyph glyph-name="Nacute" unicode="&#x143;" horiz-adv-x="1490" 
d="M946 1828l-326 -274l-62 73l327 274zM1309 0h-148l-857 1230v-1230h-122v1434h147l858 -1231v1231h122v-1434z" />
    <glyph glyph-name="nacute" unicode="&#x144;" horiz-adv-x="1271" 
d="M846 1418l-326 -274l-62 74l326 273zM280 1024l4 -157q114 99 199.5 142t196.5 43q64 0 125.5 -14.5t118 -46t99 -75.5t67.5 -107t25 -137v-672h-118v651q0 97 -51.5 168.5t-128 104t-164.5 32.5q-95 0 -171.5 -40t-189.5 -142v-774h-118v1024h106z" />
    <glyph glyph-name="Ncommaaccent" unicode="&#x145;" horiz-adv-x="1490" 
d="M1309 0h-148l-857 1230v-1230h-122v1434h147l858 -1231v1231h122v-1434zM763 -328v11q-6 -2 -19 -2q-31 0 -49 17.5t-18 43.5t18 43.5t49 17.5q39 0 57 -26q23 -31 23 -94q0 -53 -22 -82t-79 -29h-20l8 43h9q26 0 34 12t9 45z" />
    <glyph glyph-name="ncommaaccent" unicode="&#x146;" horiz-adv-x="1271" 
d="M280 1024l4 -157q114 99 199.5 142t196.5 43q64 0 125.5 -14.5t118 -46t99 -75.5t67.5 -107t25 -137v-672h-118v651q0 97 -51.5 168.5t-128 104t-164.5 32.5q-95 0 -171.5 -40t-189.5 -142v-774h-118v1024h106zM663 -328v11q-6 -2 -19 -2q-31 0 -49.5 17.5t-18.5 43.5
t18.5 43.5t49.5 17.5q39 0 57 -26q22 -30 22 -94q0 -53 -21.5 -82t-78.5 -29h-20l8 43h8q26 0 34.5 12t9.5 45z" />
    <glyph glyph-name="Ncaron" unicode="&#x147;" horiz-adv-x="1490" 
d="M1058 1848l-312 -314l-311 314l63 62l248 -253l249 253zM1309 0h-148l-857 1230v-1230h-122v1434h147l858 -1231v1231h122v-1434z" />
    <glyph glyph-name="ncaron" unicode="&#x148;" horiz-adv-x="1271" 
d="M957 1438l-311 -314l-311 314l63 63l248 -253l248 253zM280 1024l4 -157q114 99 199.5 142t196.5 43q64 0 125.5 -14.5t118 -46t99 -75.5t67.5 -107t25 -137v-672h-118v651q0 97 -51.5 168.5t-128 104t-164.5 32.5q-95 0 -171.5 -40t-189.5 -142v-774h-118v1024h106z" />
    <glyph glyph-name="Eng" unicode="&#x14a;" horiz-adv-x="1490" 
d="M1309 1434v-1336q0 -131 -25.5 -230.5t-84.5 -177.5t-163 -118.5t-252 -40.5q-130 0 -216 33l23 86q84 -21 193 -21q200 0 291.5 91.5t107.5 279.5h-22l-857 1230v-1230h-122v1434h147l858 -1229v1229h122z" />
    <glyph glyph-name="eng" unicode="&#x14b;" horiz-adv-x="1282" 
d="M280 1024l4 -157q114 99 199.5 142t196.5 43q64 0 125.5 -14.5t118 -46t99 -75.5t67.5 -107t25 -137v-713q0 -228 -148 -350q-125 -121 -325 -133v90q167 19 263 125q92 97 92 270v690q0 97 -51.5 168.5t-128 104t-164.5 32.5q-95 0 -171.5 -40t-189.5 -142v-774h-118
v1024h106z" />
    <glyph glyph-name="Omacron" unicode="&#x14c;" horiz-adv-x="1728" 
d="M1173 1794h-615v78h615v-78zM863 1458q168 0 305 -56t228 -155t140 -234.5t49 -294.5q0 -161 -48.5 -297t-139 -235.5t-227.5 -155t-307 -55.5q-220 0 -384.5 96.5t-249.5 264t-85 382.5q0 159 48.5 294.5t138.5 234.5t227 155t305 56zM863 1355q-186 0 -322.5 -81
t-206 -224t-69.5 -332q0 -289 161 -464t437 -175q282 0 441 174t159 465q0 287 -160 462t-440 175z" />
    <glyph glyph-name="omacron" unicode="&#x14d;" horiz-adv-x="1312" 
d="M964 1385h-614v77h614v-77zM657 1051q250 0 392.5 -148.5t142.5 -390.5q0 -158 -60.5 -278.5t-183 -190.5t-291.5 -70q-126 0 -228.5 41t-169 113.5t-102.5 171t-36 213.5t36 213.5t102.5 171t169 113.5t228.5 41zM657 956q-194 0 -306.5 -122t-112.5 -322t112.5 -322
t306.5 -122q197 0 307.5 120t110.5 324q0 205 -112 324.5t-306 119.5z" />
    <glyph glyph-name="Ohungarumlaut" unicode="&#x150;" horiz-adv-x="1728" 
d="M875 1837l-302 -303l-70 71l302 302zM1268 1837l-302 -303l-70 71l301 302zM863 1458q168 0 305 -56t228 -155t140 -234.5t49 -294.5q0 -161 -48.5 -297t-139 -235.5t-227.5 -155t-307 -55.5q-220 0 -384.5 96.5t-249.5 264t-85 382.5q0 159 48.5 294.5t138.5 234.5
t227 155t305 56zM863 1355q-186 0 -322.5 -81t-206 -224t-69.5 -332q0 -289 161 -464t437 -175q282 0 441 174t159 465q0 287 -160 462t-440 175z" />
    <glyph glyph-name="ohungarumlaut" unicode="&#x151;" horiz-adv-x="1312" 
d="M667 1427l-303 -302l-70 70l302 302zM1059 1427l-302 -302l-70 70l302 302zM657 1051q250 0 392.5 -148.5t142.5 -390.5q0 -158 -60.5 -278.5t-183 -190.5t-291.5 -70q-126 0 -228.5 41t-169 113.5t-102.5 171t-36 213.5t36 213.5t102.5 171t169 113.5t228.5 41zM657 956
q-194 0 -306.5 -122t-112.5 -322t112.5 -322t306.5 -122q197 0 307.5 120t110.5 324q0 205 -112 324.5t-306 119.5z" />
    <glyph glyph-name="OE" unicode="&#x152;" horiz-adv-x="2473" 
d="M1464 0l-1 373q-65 -185 -219.5 -291.5t-380.5 -106.5q-220 0 -384.5 96.5t-249.5 264t-85 382.5q0 159 48.5 294.5t138.5 234.5t227 155t305 56q224 0 380 -107t221 -292v375h895v-103h-774v-541h709v-102h-709v-586h774v-102h-895zM863 1355q-186 0 -322.5 -81
t-206 -224t-69.5 -332q0 -289 161 -464t437 -175q282 0 441 174t159 465q0 287 -160 462t-440 175z" />
    <glyph glyph-name="oe" unicode="&#x153;" horiz-adv-x="2185" 
d="M1946 148l50 -64q-163 -109 -390 -109q-181 0 -303.5 88.5t-168.5 241.5q-45 -155 -168 -243.5t-309 -88.5q-126 0 -228.5 41t-169 113.5t-102.5 171t-36 213.5t36 213.5t102.5 171t169 113.5t228.5 41q181 0 304.5 -88t170.5 -241q44 153 163 242t299 89q235 0 362 -120
t127 -350q0 -71 -12 -134h-878q17 -175 126 -278t287 -104q190 -3 340 81zM1193 522h775q5 36 5 82q0 358 -377 358q-189 0 -294.5 -115.5t-108.5 -301.5v-23zM657 956q-194 0 -306.5 -122t-112.5 -322t112.5 -322t306.5 -122q197 0 307.5 120t110.5 324q0 205 -112 324.5
t-306 119.5z" />
    <glyph glyph-name="Racute" unicode="&#x154;" horiz-adv-x="1429" 
d="M914 1828l-326 -274l-61 73l326 274zM200 1434h590q212 0 333 -122.5t121 -324.5q0 -178 -93.5 -294.5t-262.5 -141.5l408 -551h-145l-389 538h-440v-538h-122v1434zM322 1333v-694h456q164 0 254.5 93t90.5 254q0 159 -91.5 253t-253.5 94h-456z" />
    <glyph glyph-name="racute" unicode="&#x155;" horiz-adv-x="735" 
d="M573 1418l-326 -274l-61 74l326 273zM684 1051v-97h-29q-103 0 -198 -51.5t-165 -159.5v-743h-118v1024h106l5 -181q75 100 175 153.5t210 54.5h14z" />
    <glyph glyph-name="Rcommaaccent" unicode="&#x156;" horiz-adv-x="1429" 
d="M200 1434h590q212 0 333 -122.5t121 -324.5q0 -178 -93.5 -294.5t-262.5 -141.5l408 -551h-145l-389 538h-440v-538h-122v1434zM322 1333v-694h456q164 0 254.5 93t90.5 254q0 159 -91.5 253t-253.5 94h-456zM731 -328v11q-9 -3 -19 -3q-31 0 -49 18t-18 44t18 43.5
t49 17.5q39 0 57 -26q23 -31 23 -94q0 -53 -22 -82t-79 -29h-19l7 43h9q26 0 34 12t9 45z" />
    <glyph glyph-name="rcommaaccent" unicode="&#x157;" horiz-adv-x="735" 
d="M684 1051v-97h-29q-103 0 -198 -51.5t-165 -159.5v-743h-118v1024h106l5 -181q75 100 175 153.5t210 54.5h14zM390 -328l1 11q-9 -3 -20 -3q-31 0 -49 18t-18 44t18 43.5t49 17.5q39 0 57 -26q23 -31 23 -94q0 -53 -22 -82t-79 -29h-19l7 43h9q26 0 34 12t9 45z" />
    <glyph glyph-name="Rcaron" unicode="&#x158;" horiz-adv-x="1429" 
d="M1026 1848l-311 -314l-312 314l63 62l249 -253l248 253zM200 1434h590q212 0 333 -122.5t121 -324.5q0 -178 -93.5 -294.5t-262.5 -141.5l408 -551h-145l-389 538h-440v-538h-122v1434zM322 1333v-694h456q164 0 254.5 93t90.5 254q0 159 -91.5 253t-253.5 94h-456z" />
    <glyph glyph-name="rcaron" unicode="&#x159;" horiz-adv-x="735" 
d="M685 1438l-311 -314l-312 314l63 63l249 -253l248 253zM684 1051v-97h-29q-103 0 -198 -51.5t-165 -159.5v-743h-118v1024h106l5 -181q75 100 175 153.5t210 54.5h14z" />
    <glyph glyph-name="Sacute" unicode="&#x15a;" horiz-adv-x="1400" 
d="M898 1828l-326 -274l-61 73l326 274zM100 172l74 83q80 -82 225 -129t302 -47q71 0 136 10.5t123.5 33.5t101.5 56.5t68.5 83t25.5 109.5q0 65 -26 113t-54.5 75.5t-102.5 52t-114 33t-144 27.5q-46 9 -70 13q-62 12 -106.5 22t-98.5 26.5t-91.5 35.5t-76 47t-61 61.5
t-37 80t-14.5 101.5q0 99 49.5 177t133.5 125.5t188 72t219 24.5q129 0 253.5 -30.5t219.5 -87.5l-71 -88q-172 106 -416 106q-122 0 -222 -31t-165 -99t-65 -163q0 -48 14.5 -86t45 -65.5t62.5 -47t84 -35t90.5 -24.5t99.5 -21q223 -42 290 -62q193 -55 264 -162
q50 -77 50 -191q0 -80 -33 -146.5t-89 -112t-131.5 -77.5t-159.5 -46.5t-174 -14.5q-175 0 -340 52.5t-257 144.5z" />
    <glyph glyph-name="sacute" unicode="&#x15b;" horiz-adv-x="1028" 
d="M713 1418l-326 -274l-62 74l326 273zM80 122l40 75q58 -56 166.5 -91t222.5 -35q134 0 222.5 51t88.5 151q0 37 -9 66t-34 50t-42.5 33.5t-64 25.5t-66.5 17t-80 15q-25 5 -37 7q-59 11 -97 19.5t-85 23t-75.5 33.5t-55 46t-38.5 65t-12 86q0 94 62.5 160.5t156 96.5
t206.5 30q204 0 347 -89l-36 -78q-62 36 -146 56.5t-168 20.5q-129 0 -217.5 -51t-88.5 -145q0 -38 13.5 -66.5t34 -46.5t56 -32.5t66.5 -22.5t79 -17q16 -3 49 -9q83 -15 124.5 -24t104 -31.5t92 -50.5t53 -76.5t23.5 -114.5q0 -95 -63.5 -162t-157 -96.5t-203.5 -29.5
q-126 0 -245 37.5t-186 102.5z" />
    <glyph glyph-name="Scedilla" unicode="&#x15e;" horiz-adv-x="1400" 
d="M100 172l74 83q80 -82 225 -129t302 -47q71 0 136 10.5t123.5 33.5t101.5 56.5t68.5 83t25.5 109.5q0 65 -26 113t-54.5 75.5t-102.5 52t-114 33t-144 27.5q-46 9 -70 13q-62 12 -106.5 22t-98.5 26.5t-91.5 35.5t-76 47t-61 61.5t-37 80t-14.5 101.5q0 99 49.5 177
t133.5 125.5t188 72t219 24.5q129 0 253.5 -30.5t219.5 -87.5l-71 -88q-172 106 -416 106q-122 0 -222 -31t-165 -99t-65 -163q0 -48 14.5 -86t45 -65.5t62.5 -47t84 -35t90.5 -24.5t99.5 -21q223 -42 290 -62q193 -55 264 -162q50 -77 50 -191q0 -76 -29.5 -140t-81 -109
t-120.5 -77.5t-147 -49t-162 -19.5l-65 -102q24 4 38 4q90 -3 144.5 -49.5t54.5 -129.5q0 -88 -65.5 -140t-165.5 -52q-137 0 -194 84l50 46q40 -58 137 -58q68 0 108.5 33t40.5 92q0 58 -41 91.5t-111 33.5q-38 0 -63 -8l-34 20l82 135q-166 5 -319.5 56.5t-240.5 138.5z
" />
    <glyph glyph-name="scedilla" unicode="&#x15f;" horiz-adv-x="1028" 
d="M80 122l40 75q58 -56 166.5 -91t222.5 -35q134 0 222.5 51t88.5 151q0 37 -9 66t-34 50t-42.5 33.5t-64 25.5t-66.5 17t-80 15q-25 5 -37 7q-59 11 -97 19.5t-85 23t-75.5 33.5t-55 46t-38.5 65t-12 86q0 94 62.5 160.5t156 96.5t206.5 30q204 0 347 -89l-36 -78
q-62 36 -146 56.5t-168 20.5q-129 0 -217.5 -51t-88.5 -145q0 -38 13.5 -66.5t34 -46.5t56 -32.5t66.5 -22.5t79 -17q16 -3 49 -9q83 -15 124.5 -24t104 -31.5t92 -50.5t53 -76.5t23.5 -114.5t-31 -119.5t-84.5 -87.5t-119 -54t-139.5 -25l-68 -105q6 0 18 1t18 1
q91 -2 146 -48.5t55 -130.5q0 -88 -65 -139.5t-165 -51.5q-138 0 -194 83l50 46q40 -58 137 -58q68 0 108.5 33t40.5 92t-41.5 93t-111.5 34q-30 0 -62 -10l-35 20l84 140q-117 3 -225.5 39.5t-170.5 98.5z" />
    <glyph glyph-name="Scaron" unicode="&#x160;" horiz-adv-x="1400" 
d="M1010 1848l-311 -314l-312 314l63 62l249 -253l248 253zM100 172l74 83q80 -82 225 -129t302 -47q71 0 136 10.5t123.5 33.5t101.5 56.5t68.5 83t25.5 109.5q0 65 -26 113t-54.5 75.5t-102.5 52t-114 33t-144 27.5q-46 9 -70 13q-62 12 -106.5 22t-98.5 26.5t-91.5 35.5
t-76 47t-61 61.5t-37 80t-14.5 101.5q0 99 49.5 177t133.5 125.5t188 72t219 24.5q129 0 253.5 -30.5t219.5 -87.5l-71 -88q-172 106 -416 106q-122 0 -222 -31t-165 -99t-65 -163q0 -48 14.5 -86t45 -65.5t62.5 -47t84 -35t90.5 -24.5t99.5 -21q223 -42 290 -62
q193 -55 264 -162q50 -77 50 -191q0 -80 -33 -146.5t-89 -112t-131.5 -77.5t-159.5 -46.5t-174 -14.5q-175 0 -340 52.5t-257 144.5z" />
    <glyph glyph-name="scaron" unicode="&#x161;" horiz-adv-x="1028" 
d="M825 1438l-312 -314l-311 314l63 63l248 -253l248 253zM80 122l40 75q58 -56 166.5 -91t222.5 -35q134 0 222.5 51t88.5 151q0 37 -9 66t-34 50t-42.5 33.5t-64 25.5t-66.5 17t-80 15q-25 5 -37 7q-59 11 -97 19.5t-85 23t-75.5 33.5t-55 46t-38.5 65t-12 86
q0 94 62.5 160.5t156 96.5t206.5 30q204 0 347 -89l-36 -78q-62 36 -146 56.5t-168 20.5q-129 0 -217.5 -51t-88.5 -145q0 -38 13.5 -66.5t34 -46.5t56 -32.5t66.5 -22.5t79 -17q16 -3 49 -9q83 -15 124.5 -24t104 -31.5t92 -50.5t53 -76.5t23.5 -114.5q0 -95 -63.5 -162
t-157 -96.5t-203.5 -29.5q-126 0 -245 37.5t-186 102.5z" />
    <glyph glyph-name="Tcedilla" unicode="&#x162;" horiz-adv-x="1363" 
d="M1276 1331h-533v-1337l-22 -2l-74 -117q24 4 38 4q90 -3 144.5 -49.5t54.5 -129.5q0 -88 -65.5 -140t-165.5 -52q-137 0 -194 84l50 46q40 -58 138 -58q68 0 108.5 33t40.5 92q0 58 -41.5 91.5t-111.5 33.5q-37 0 -62 -8l-35 20l95 156l-20 2v1331h-534v103h1189v-103z
" />
    <glyph glyph-name="tcedilla" unicode="&#x163;" horiz-adv-x="813" 
d="M373 1024h311v-91h-311v-508q0 -151 81 -241q80 -89 236 -106v-90q-117 9 -202 54l-68 -105q12 2 38 2q90 -2 144.5 -48t54.5 -129q0 -90 -65 -142t-166 -52q-137 0 -194 84l50 45q39 -57 138 -57q68 0 108.5 32.5t40.5 91.5t-41.5 93t-111.5 34q-31 0 -63 -10l-34 21
l99 167q-31 22 -51 44q-111 114 -111 312v508h-207v91h207v299h117v-299z" />
    <glyph glyph-name="Tcaron" unicode="&#x164;" horiz-adv-x="1363" 
d="M994 1848l-311 -314l-312 314l64 62l248 -253l248 253zM1276 1331h-533v-1331h-122v1331h-534v103h1189v-103z" />
    <glyph glyph-name="tcaron" unicode="&#x165;" horiz-adv-x="806" 
d="M624 1440v12q-9 -3 -19 -3q-31 0 -49 18.5t-18 44.5t18 44t49 18q38 0 57 -28q23 -31 23 -95q0 -62 -22 -95.5t-79 -33.5h-20l8 53h9q25 0 33.5 13.5t9.5 51.5zM373 1024h311v-91h-311v-508q0 -151 81 -241q80 -89 236 -106v-90q-203 12 -316 121q-118 113 -118 316v508
h-207v91h207v299h117v-299z" />
    <glyph glyph-name="Tbar" unicode="&#x166;" horiz-adv-x="1363" 
d="M743 1331v-470h248v-78h-248v-783h-122v783h-245v78h245v470h-534v103h1189v-103h-533z" />
    <glyph glyph-name="tbar" unicode="&#x167;" horiz-adv-x="813" 
d="M373 605v-180q0 -151 81 -241q80 -89 236 -106v-90q-203 12 -316 121q-118 113 -118 316v180h-202v76h202v252h-207v91h207v299h117v-299h311v-91h-311v-252h305v-76h-305z" />
    <glyph glyph-name="Utilde" unicode="&#x168;" horiz-adv-x="1525" 
d="M555 1669l-69 40q59 128 153 128q53 0 136 -46q85 -45 124 -45q51 0 81 69l69 -39q-47 -113 -138 -113q-54 0 -141 47q-81 45 -119 45q-55 0 -96 -86zM1344 1434v-783q0 -125 -16.5 -224.5t-57.5 -186t-105.5 -144.5t-163.5 -90.5t-229 -32.5q-129 0 -227.5 32t-163.5 89
t-106 142.5t-58 186.5t-17 228v783h122v-774q0 -144 22.5 -247.5t73.5 -179t139 -112.5t215 -37q128 0 216 38t139 114.5t73 179t22 244.5v774h122z" />
    <glyph glyph-name="utilde" unicode="&#x169;" horiz-adv-x="1253" 
d="M423 1259l-69 40q59 129 154 129q52 0 135 -46q87 -46 125 -46q50 0 80 69l69 -39q-47 -112 -138 -112q-56 0 -141 46q-81 45 -119 45q-55 0 -96 -86zM1097 0h-106l-4 157q-115 -99 -199.5 -142.5t-195.5 -43.5q-64 0 -125.5 15t-118 46t-99 75.5t-67.5 107.5t-25 137
v672h117v-651q0 -97 51.5 -168.5t128.5 -104t165 -32.5q95 0 171 40t189 142v774h118v-1024z" />
    <glyph glyph-name="Umacron" unicode="&#x16a;" horiz-adv-x="1525" 
d="M1070 1794h-614v78h614v-78zM1344 1434v-783q0 -125 -16.5 -224.5t-57.5 -186t-105.5 -144.5t-163.5 -90.5t-229 -32.5q-129 0 -227.5 32t-163.5 89t-106 142.5t-58 186.5t-17 228v783h122v-774q0 -144 22.5 -247.5t73.5 -179t139 -112.5t215 -37q128 0 216 38t139 114.5
t73 179t22 244.5v774h122z" />
    <glyph glyph-name="umacron" unicode="&#x16b;" horiz-adv-x="1253" 
d="M939 1385h-615v77h615v-77zM1097 0h-106l-4 157q-115 -99 -199.5 -142.5t-195.5 -43.5q-64 0 -125.5 15t-118 46t-99 75.5t-67.5 107.5t-25 137v672h117v-651q0 -97 51.5 -168.5t128.5 -104t165 -32.5q95 0 171 40t189 142v774h118v-1024z" />
    <glyph glyph-name="Uring" unicode="&#x16e;" horiz-adv-x="1525" 
d="M763 1969q95 0 161 -64.5t66 -153.5t-66.5 -154t-160.5 -65t-160 65t-66 154t66 153.5t160 64.5zM763 1903q-60 0 -106 -44t-46 -108t46 -108.5t106 -44.5t106 44.5t46 108.5t-46 108t-106 44zM1344 1434v-783q0 -125 -16.5 -224.5t-57.5 -186t-105.5 -144.5
t-163.5 -90.5t-229 -32.5q-129 0 -227.5 32t-163.5 89t-106 142.5t-58 186.5t-17 228v783h122v-774q0 -144 22.5 -247.5t73.5 -179t139 -112.5t215 -37q128 0 216 38t139 114.5t73 179t22 244.5v774h122z" />
    <glyph glyph-name="uring" unicode="&#x16f;" horiz-adv-x="1253" 
d="M631 1559q95 0 161 -64.5t66 -153.5t-66 -153.5t-161 -64.5q-94 0 -160 64.5t-66 153.5t66 153.5t160 64.5zM631 1493q-60 0 -106 -44t-46 -108t46 -108t106 -44t106.5 44t46.5 108t-46.5 108t-106.5 44zM1097 0h-106l-4 157q-115 -99 -199.5 -142.5t-195.5 -43.5
q-64 0 -125.5 15t-118 46t-99 75.5t-67.5 107.5t-25 137v672h117v-651q0 -97 51.5 -168.5t128.5 -104t165 -32.5q95 0 171 40t189 142v774h118v-1024z" />
    <glyph glyph-name="Uhungarumlaut" unicode="&#x170;" horiz-adv-x="1525" 
d="M772 1837l-302 -303l-70 71l302 302zM1165 1837l-302 -303l-70 71l302 302zM1344 1434v-783q0 -125 -16.5 -224.5t-57.5 -186t-105.5 -144.5t-163.5 -90.5t-229 -32.5q-129 0 -227.5 32t-163.5 89t-106 142.5t-58 186.5t-17 228v783h122v-774q0 -144 22.5 -247.5
t73.5 -179t139 -112.5t215 -37q128 0 216 38t139 114.5t73 179t22 244.5v774h122z" />
    <glyph glyph-name="uhungarumlaut" unicode="&#x171;" horiz-adv-x="1253" 
d="M641 1427l-302 -302l-71 70l302 302zM1033 1427l-301 -302l-71 70l302 302zM1097 0h-106l-4 157q-115 -99 -199.5 -142.5t-195.5 -43.5q-64 0 -125.5 15t-118 46t-99 75.5t-67.5 107.5t-25 137v672h117v-651q0 -97 51.5 -168.5t128.5 -104t165 -32.5q95 0 171 40t189 142
v774h118v-1024z" />
    <glyph glyph-name="Uogonek" unicode="&#x172;" horiz-adv-x="1525" 
d="M1344 1434v-784q0 -126 -17.5 -226t-56.5 -185t-107 -144t-164 -89q-99 -70 -148 -141.5t-49 -132.5q0 -34 15 -60q37 -70 136 -70q73 0 157 44l35 -68q-110 -53 -210 -53q-71 0 -123.5 26.5t-79.5 73.5q-23 43 -23 93q0 134 145 262q-47 -5 -88 -5q-159 0 -270.5 47.5
t-175.5 139t-92 211t-28 278.5v783h122v-774q0 -144 22.5 -247.5t73.5 -179t139 -112.5t215 -37q128 0 216 38t139 114.5t73 179t22 244.5v774h122z" />
    <glyph glyph-name="uogonek" unicode="&#x173;" horiz-adv-x="1253" 
d="M1097 1024v-1034q-105 -74 -156 -148.5t-51 -136.5q0 -56 40.5 -93t108.5 -37q72 0 158 46l35 -67q-114 -54 -211 -54q-70 0 -122 27t-79 74q-24 43 -24 93q0 73 48.5 152.5t146.5 153.5l-4 157q-115 -99 -199.5 -142.5t-195.5 -43.5q-64 0 -125.5 15t-118 46t-99 75.5
t-67.5 107.5t-25 137v672h117v-651q0 -97 51.5 -168.5t128.5 -104t165 -32.5q95 0 171 40t189 142v774h118z" />
    <glyph glyph-name="Wcircumflex" unicode="&#x174;" horiz-adv-x="2234" 
d="M1432 1607l-63 -63l-248 253l-249 -253l-63 63l312 314zM1183 1434l408 -1252l421 1252h134l-496 -1434h-125l-408 1237l-408 -1237h-126l-496 1434h134l421 -1252l408 1252h133z" />
    <glyph glyph-name="wcircumflex" unicode="&#x175;" horiz-adv-x="1669" 
d="M1146 1198l-64 -63l-248 253l-248 -253l-63 63l311 314zM1243 0h-125l-284 851l-283 -851h-126l-374 1024h120l316 -885l292 885h111l291 -885l316 885h120z" />
    <glyph glyph-name="Ycircumflex" unicode="&#x176;" horiz-adv-x="1413" 
d="M1017 1607l-63 -63l-248 253l-248 -253l-64 63l312 314zM768 571v-571h-122v572l-559 862h141l479 -750l478 750h141z" />
    <glyph glyph-name="ycircumflex" unicode="&#x177;" horiz-adv-x="1118" 
d="M868 1198l-63 -63l-249 253l-248 -253l-63 63l311 314zM1067 1024l-495 -1225q-65 -157 -194 -235q-121 -72 -296 -72v90q149 0 253 66q96 65 146 188l65 164h-23l-421 1024h120l365 -907l360 907h120z" />
    <glyph glyph-name="Ydieresis" unicode="&#x178;" horiz-adv-x="1413" 
d="M508 1771q31 0 49.5 -18t18.5 -44t-18.5 -44t-49.5 -18t-49 18t-18 44t18 44t49 18zM904 1771q31 0 49 -18t18 -44t-18 -44t-49 -18t-49.5 18t-18.5 44t18.5 44t49.5 18zM768 571v-571h-122v572l-559 862h141l479 -750l478 750h141z" />
    <glyph glyph-name="Zacute" unicode="&#x179;" horiz-adv-x="1310" 
d="M860 1828l-326 -274l-61 73l326 274zM1195 1363l-930 -1261h946v-102h-1111v71l931 1260h-859v103h1023v-71z" />
    <glyph glyph-name="zacute" unicode="&#x17a;" horiz-adv-x="968" 
d="M682 1418l-326 -274l-62 74l326 273zM869 972l-632 -881h644v-91h-796v54l629 879h-597v91h752v-52z" />
    <glyph glyph-name="Zdotaccent" unicode="&#x17b;" horiz-adv-x="1310" 
d="M661 1771q31 0 49 -18t18 -44t-18 -44t-49 -18t-49.5 18t-18.5 44t18.5 44t49.5 18zM1195 1363l-930 -1261h946v-102h-1111v71l931 1260h-859v103h1023v-71z" />
    <glyph glyph-name="zdotaccent" unicode="&#x17c;" horiz-adv-x="968" 
d="M482 1362q31 0 49.5 -18t18.5 -44t-18.5 -44.5t-49.5 -18.5t-49 18.5t-18 44.5t18 44t49 18zM869 972l-632 -881h644v-91h-796v54l629 879h-597v91h752v-52z" />
    <glyph glyph-name="Zcaron" unicode="&#x17d;" horiz-adv-x="1310" 
d="M972 1848l-311 -314l-312 314l63 62l249 -253l248 253zM1195 1363l-930 -1261h946v-102h-1111v71l931 1260h-859v103h1023v-71z" />
    <glyph glyph-name="zcaron" unicode="&#x17e;" horiz-adv-x="968" 
d="M794 1438l-312 -314l-311 314l63 63l248 -253l249 253zM869 972l-632 -881h644v-91h-796v54l629 879h-597v91h752v-52z" />
    <glyph glyph-name="florin" unicode="&#x192;" horiz-adv-x="792" 
d="M792 1532v-90q-194 0 -307 -101q-62 -53 -90 -129.5t-28 -188.5v-130h339v-91h-339v-843q0 -194 -114 -303q-71 -89 -191 -137v98q77 40 126 117q62 83 62 227v841h-188v91h188v130q0 266 161 395q145 120 381 114z" />
    <glyph glyph-name="Acaron" unicode="&#x1cd;" horiz-adv-x="1497" 
d="M1057 1848l-311 -314l-312 314l63 62l249 -253l248 253zM1410 0h-128l-163 396h-741l-163 -396h-128l597 1434h129zM416 498h665l-332 805z" />
    <glyph glyph-name="acaron" unicode="&#x1ce;" horiz-adv-x="1187" 
d="M910 1438l-311 -314l-311 314l63 63l248 -253l248 253zM227 875l-32 74q183 102 381 102q86 0 166 -24t145 -70t104 -120t39 -166v-671h-105l-4 154q-156 -179 -410 -179q-107 0 -196 36.5t-147 114.5t-58 184q0 86 36.5 152.5t99 106t139.5 59.5t165 20q205 0 363 -90
v116q0 92 -54 160t-133 99.5t-170 31.5q-169 0 -329 -90zM913 237v241q-68 44 -159 68.5t-185 24.5q-96 0 -172 -25.5t-126 -84.5t-50 -145q0 -119 91.5 -185.5t225.5 -66.5q236 0 375 173z" />
    <glyph glyph-name="Icaron" unicode="&#x1cf;" horiz-adv-x="522" 
d="M571 1848l-312 -314l-310 314l61 62l249 -253l249 253zM322 0h-122v1434h122v-1434z" />
    <glyph glyph-name="icaron" unicode="&#x1d0;" horiz-adv-x="468" 
d="M555 1438l-312 -314l-311 314l64 63l247 -253l249 253zM302 0h-117v1024h117v-1024z" />
    <glyph glyph-name="Ocaron" unicode="&#x1d1;" horiz-adv-x="1728" 
d="M1176 1848l-311 -314l-311 314l63 62l248 -253l248 253zM863 1458q168 0 305 -56t228 -155t140 -234.5t49 -294.5q0 -161 -48.5 -297t-139 -235.5t-227.5 -155t-307 -55.5q-220 0 -384.5 96.5t-249.5 264t-85 382.5q0 159 48.5 294.5t138.5 234.5t227 155t305 56z
M863 1355q-186 0 -322.5 -81t-206 -224t-69.5 -332q0 -289 161 -464t437 -175q282 0 441 174t159 465q0 287 -160 462t-440 175z" />
    <glyph glyph-name="ocaron" unicode="&#x1d2;" horiz-adv-x="1312" 
d="M968 1438l-311 -314l-312 314l63 63l249 -253l248 253zM657 1051q250 0 392.5 -148.5t142.5 -390.5q0 -158 -60.5 -278.5t-183 -190.5t-291.5 -70q-126 0 -228.5 41t-169 113.5t-102.5 171t-36 213.5t36 213.5t102.5 171t169 113.5t228.5 41zM657 956q-194 0 -306.5 -122
t-112.5 -322t112.5 -322t306.5 -122q197 0 307.5 120t110.5 324q0 205 -112 324.5t-306 119.5z" />
    <glyph glyph-name="Ucaron" unicode="&#x1d3;" horiz-adv-x="1525" 
d="M1074 1848l-312 -314l-311 314l63 62l248 -253l249 253zM1344 1434v-783q0 -125 -16.5 -224.5t-57.5 -186t-105.5 -144.5t-163.5 -90.5t-229 -32.5q-129 0 -227.5 32t-163.5 89t-106 142.5t-58 186.5t-17 228v783h122v-774q0 -144 22.5 -247.5t73.5 -179t139 -112.5
t215 -37q128 0 216 38t139 114.5t73 179t22 244.5v774h122z" />
    <glyph glyph-name="ucaron" unicode="&#x1d4;" horiz-adv-x="1253" 
d="M942 1438l-311 -314l-312 314l63 63l249 -253l248 253zM1097 0h-106l-4 157q-115 -99 -199.5 -142.5t-195.5 -43.5q-64 0 -125.5 15t-118 46t-99 75.5t-67.5 107.5t-25 137v672h117v-651q0 -97 51.5 -168.5t128.5 -104t165 -32.5q95 0 171 40t189 142v774h118v-1024z" />
    <glyph glyph-name="Udieresismacron" unicode="&#x1d5;" horiz-adv-x="1525" 
d="M1070 1862h-614v78h614v-78zM565 1729q31 0 49 -17.5t18 -43.5t-18 -44.5t-49 -18.5t-49.5 18.5t-18.5 44.5t18.5 43.5t49.5 17.5zM961 1729q31 0 49 -17.5t18 -43.5t-18 -44.5t-49 -18.5t-49.5 18.5t-18.5 44.5t18.5 43.5t49.5 17.5zM1344 1434v-783
q0 -125 -16.5 -224.5t-57.5 -186t-105.5 -144.5t-163.5 -90.5t-229 -32.5q-129 0 -227.5 32t-163.5 89t-106 142.5t-58 186.5t-17 228v783h122v-774q0 -144 22.5 -247.5t73.5 -179t139 -112.5t215 -37q128 0 216 38t139 114.5t73 179t22 244.5v774h122z" />
    <glyph glyph-name="udieresismacron" unicode="&#x1d6;" horiz-adv-x="1253" 
d="M939 1485h-615v78h615v-78zM433 1362q31 0 49 -18t18 -44t-18 -44.5t-49 -18.5t-49 18.5t-18 44.5t18 44t49 18zM829 1362q31 0 49 -18t18 -44t-18 -44.5t-49 -18.5t-49.5 18.5t-18.5 44.5t18.5 44t49.5 18zM1097 0h-106l-4 157q-115 -99 -199.5 -142.5t-195.5 -43.5
q-64 0 -125.5 15t-118 46t-99 75.5t-67.5 107.5t-25 137v672h117v-651q0 -97 51.5 -168.5t128.5 -104t165 -32.5q95 0 171 40t189 142v774h118v-1024z" />
    <glyph glyph-name="Udieresisacute" unicode="&#x1d7;" horiz-adv-x="1525" 
d="M962 2106l-326 -273l-61 73l326 274zM565 1729q31 0 49 -17.5t18 -43.5t-18 -44.5t-49 -18.5t-49.5 18.5t-18.5 44.5t18.5 43.5t49.5 17.5zM961 1729q31 0 49 -17.5t18 -43.5t-18.5 -44.5t-49.5 -18.5t-49 18.5t-18 44.5t18.5 43.5t49.5 17.5zM1344 1434v-783
q0 -125 -16.5 -224.5t-57.5 -186t-105.5 -144.5t-163.5 -90.5t-229 -32.5q-129 0 -227.5 32t-163.5 89t-106 142.5t-58 186.5t-17 228v783h122v-774q0 -144 22.5 -247.5t73.5 -179t139 -112.5t215 -37q128 0 216 38t139 114.5t73 179t22 244.5v774h122z" />
    <glyph glyph-name="udieresisacute" unicode="&#x1d8;" horiz-adv-x="1253" 
d="M830 1716l-326 -274l-61 74l326 273zM433 1362q31 0 49 -18t18 -44t-18 -44.5t-49 -18.5t-49 18.5t-18 44.5t18 44t49 18zM829 1362q31 0 49 -18t18 -44t-18 -44.5t-49 -18.5t-49.5 18.5t-18.5 44.5t18.5 44t49.5 18zM1097 0h-106l-4 157q-115 -99 -199.5 -142.5
t-195.5 -43.5q-64 0 -125.5 15t-118 46t-99 75.5t-67.5 107.5t-25 137v672h117v-651q0 -97 51.5 -168.5t128.5 -104t165 -32.5q95 0 171 40t189 142v774h118v-1024z" />
    <glyph glyph-name="Udieresiscaron" unicode="&#x1d9;" horiz-adv-x="1525" 
d="M1074 2106l-312 -314l-311 314l63 63l248 -253l249 253zM565 1729q31 0 49 -17.5t18 -43.5t-18 -44.5t-49 -18.5t-49.5 18.5t-18.5 44.5t18.5 43.5t49.5 17.5zM961 1729q31 0 49 -17.5t18 -43.5t-18.5 -44.5t-49.5 -18.5t-49 18.5t-18 44.5t18.5 43.5t49.5 17.5z
M1344 1434v-783q0 -125 -16.5 -224.5t-57.5 -186t-105.5 -144.5t-163.5 -90.5t-229 -32.5q-129 0 -227.5 32t-163.5 89t-106 142.5t-58 186.5t-17 228v783h122v-774q0 -144 22.5 -247.5t73.5 -179t139 -112.5t215 -37q128 0 216 38t139 114.5t73 179t22 244.5v774h122z" />
    <glyph glyph-name="udieresiscaron" unicode="&#x1da;" horiz-adv-x="1253" 
d="M942 1721l-311 -314l-312 314l63 63l249 -253l248 253zM433 1362q31 0 49 -18t18 -44t-18 -44.5t-49 -18.5t-49 18.5t-18 44.5t18 44t49 18zM829 1362q31 0 49 -18t18 -44t-18 -44.5t-49 -18.5t-49.5 18.5t-18.5 44.5t18.5 44t49.5 18zM1097 0h-106l-4 157
q-115 -99 -199.5 -142.5t-195.5 -43.5q-64 0 -125.5 15t-118 46t-99 75.5t-67.5 107.5t-25 137v672h117v-651q0 -97 51.5 -168.5t128.5 -104t165 -32.5q95 0 171 40t189 142v774h118v-1024z" />
    <glyph glyph-name="Udieresisgrave" unicode="&#x1db;" horiz-adv-x="1525" 
d="M958 1906l-62 -73l-326 273l62 74zM565 1729q31 0 49 -17.5t18 -43.5t-18 -44.5t-49 -18.5t-49.5 18.5t-18.5 44.5t18.5 43.5t49.5 17.5zM961 1729q31 0 49 -17.5t18 -43.5t-18.5 -44.5t-49.5 -18.5t-49 18.5t-18 44.5t18.5 43.5t49.5 17.5zM1344 1434v-783
q0 -125 -16.5 -224.5t-57.5 -186t-105.5 -144.5t-163.5 -90.5t-229 -32.5q-129 0 -227.5 32t-163.5 89t-106 142.5t-58 186.5t-17 228v783h122v-774q0 -144 22.5 -247.5t73.5 -179t139 -112.5t215 -37q128 0 216 38t139 114.5t73 179t22 244.5v774h122z" />
    <glyph glyph-name="udieresisgrave" unicode="&#x1dc;" horiz-adv-x="1253" 
d="M826 1507l-62 -73l-326 273l62 74zM433 1362q31 0 49 -18t18 -44t-18 -44.5t-49 -18.5t-49 18.5t-18 44.5t18 44t49 18zM829 1362q31 0 49 -18t18 -44t-18 -44.5t-49 -18.5t-49.5 18.5t-18.5 44.5t18.5 44t49.5 18zM1097 0h-106l-4 157q-115 -99 -199.5 -142.5
t-195.5 -43.5q-64 0 -125.5 15t-118 46t-99 75.5t-67.5 107.5t-25 137v672h117v-651q0 -97 51.5 -168.5t128.5 -104t165 -32.5q95 0 171 40t189 142v774h118v-1024z" />
    <glyph glyph-name="Adieresismacron" unicode="&#x1de;" horiz-adv-x="1497" 
d="M1053 1868h-614v78h614v-78zM548 1771q31 0 49 -18t18 -44t-18 -44t-49 -18t-49 18t-18 44t18 44t49 18zM944 1771q31 0 49 -18t18 -44t-18 -44t-49 -18t-49.5 18t-18.5 44t18.5 44t49.5 18zM1410 0h-128l-163 396h-741l-163 -396h-128l597 1434h129zM416 498h665
l-332 805z" />
    <glyph glyph-name="adieresismacron" unicode="&#x1df;" horiz-adv-x="1187" 
d="M907 1485h-615v77h615v-77zM401 1362q31 0 49.5 -18t18.5 -44t-18.5 -44.5t-49.5 -18.5t-49 18.5t-18 44.5t18 44t49 18zM797 1362q31 0 49 -18t18 -44t-18 -44.5t-49 -18.5t-49.5 18.5t-18.5 44.5t18.5 44t49.5 18zM227 875l-32 74q183 102 381 102q86 0 166 -24
t145 -70t104 -120t39 -166v-671h-105l-4 154q-156 -179 -410 -179q-107 0 -196 36.5t-147 114.5t-58 184q0 86 36.5 152.5t99 106t139.5 59.5t165 20q205 0 363 -90v116q0 92 -54 160t-133 99.5t-170 31.5q-169 0 -329 -90zM913 237v241q-68 44 -159 68.5t-185 24.5
q-96 0 -172 -25.5t-126 -84.5t-50 -145q0 -119 91.5 -185.5t225.5 -66.5q236 0 375 173z" />
    <glyph glyph-name="Gcaron" unicode="&#x1e6;" horiz-adv-x="1617" 
d="M1118 1848l-312 -314l-311 314l63 62l248 -253l248 253zM1435 768v-538q-94 -122 -239 -188.5t-333 -66.5q-220 0 -384.5 96.5t-249.5 264t-85 382.5q0 159 48.5 294.5t138.5 234.5t227 155t305 56q171 0 308 -56.5t231 -160.5l-75 -70q-179 184 -463 184
q-276 0 -437.5 -174t-161.5 -463t161 -464.5t437 -175.5q292 0 453 188v404h-453v98h572z" />
    <glyph glyph-name="gcaron" unicode="&#x1e7;" 
d="M925 1438l-311 -314l-311 314l63 63l248 -253l248 253zM425 103h189q67 1 121.5 -3t117 -14.5t109 -33t86 -56t60.5 -86t21 -119.5t-29.5 -121t-78 -89t-115 -59t-137 -34t-146.5 -10q-78 0 -150 9.5t-141 33t-119.5 58.5t-81.5 89.5t-31 122.5q0 206 210 272
q-71 12 -113 52.5t-42 89.5q0 48 35 96t100 82q-143 99 -143 298q0 180 122.5 279.5t320.5 99.5q116 0 208 -36h320v-74l-229 -6q68 -40 106 -107.5t38 -155.5q0 -183 -119.5 -280.5t-323.5 -97.5q-124 0 -213 42q-58 -24 -87 -59.5t-29 -72.5q0 -46 43.5 -77.5t120.5 -32.5
zM590 967q-153 0 -244 -74.5t-91 -211.5q0 -139 89 -212.5t246 -73.5q156 0 245 74.5t89 211.5t-90.5 211.5t-243.5 74.5zM592 14q-87 0 -149 -9t-116.5 -32t-82.5 -68.5t-28 -113.5q0 -74 55 -126t140.5 -74.5t192.5 -22.5q113 0 201.5 21.5t146.5 73t58 128.5
q0 59 -22.5 100.5t-57.5 65t-92.5 36.5t-112.5 17t-133 4z" />
    <glyph glyph-name="Oslashacute" unicode="&#x1fe;" horiz-adv-x="1728" 
d="M739 1554l-62 73l326 274l62 -73zM1283 1536l-68 -155q177 -88 273.5 -262t96.5 -401q0 -161 -48.5 -297t-139 -235.5t-227.5 -155t-307 -55.5q-130 0 -247 36l-50 -113h-120l68 154q-176 88 -273 263t-97 403q0 159 48.5 294.5t138.5 234.5t227 155t305 56
q133 0 250 -36l50 114h120zM557 152l514 1173q-95 30 -208 30q-186 0 -322.5 -81t-206 -224t-69.5 -332q0 -195 76 -342t216 -224zM1172 1282l-514 -1173q93 -30 205 -30q282 0 441 174t159 465q0 195 -75 341.5t-216 222.5z" />
    <glyph glyph-name="oslashacute" unicode="&#x1ff;" horiz-adv-x="1312" 
d="M533 1144l-61 74l326 273l61 -73zM978 1126l-58 -131q131 -64 202 -190t71 -293q0 -117 -35.5 -215.5t-102 -170.5t-168.5 -112.5t-230 -40.5q-93 0 -174 23l-43 -98h-105l58 132q-131 65 -201.5 191.5t-70.5 290.5q0 115 36 213.5t102.5 171t169 113.5t228.5 41
q96 0 174 -22l43 97h104zM434 123l357 815q-67 18 -134 18q-194 0 -306.5 -122t-112.5 -322q0 -133 51 -234t145 -155zM879 902l-357 -816q62 -18 135 -18q197 0 307.5 120t110.5 324q0 136 -51 236t-145 154z" />
    <glyph glyph-name="Scommaaccent" unicode="&#x218;" horiz-adv-x="1400" 
d="M100 172l74 83q80 -82 225 -129t302 -47q71 0 136 10.5t123.5 33.5t101.5 56.5t68.5 83t25.5 109.5q0 65 -26 113t-54.5 75.5t-102.5 52t-114 33t-144 27.5q-46 9 -70 13q-62 12 -106.5 22t-98.5 26.5t-91.5 35.5t-76 47t-61 61.5t-37 80t-14.5 101.5q0 99 49.5 177
t133.5 125.5t188 72t219 24.5q129 0 253.5 -30.5t219.5 -87.5l-71 -88q-172 106 -416 106q-122 0 -222 -31t-165 -99t-65 -163q0 -48 14.5 -86t45 -65.5t62.5 -47t84 -35t90.5 -24.5t99.5 -21q223 -42 290 -62q193 -55 264 -162q50 -77 50 -191q0 -80 -33 -146.5t-89 -112
t-131.5 -77.5t-159.5 -46.5t-174 -14.5q-175 0 -340 52.5t-257 144.5zM715 -328l1 11q-6 -2 -19 -2q-31 0 -49.5 17.5t-18.5 43.5t18.5 43.5t49.5 17.5q39 0 57 -26q22 -30 22 -94q0 -53 -22 -82t-79 -29h-19l8 43h8q26 0 34 12t9 45z" />
    <glyph glyph-name="scommaaccent" unicode="&#x219;" horiz-adv-x="1028" 
d="M80 122l40 75q58 -56 166.5 -91t222.5 -35q134 0 222.5 51t88.5 151q0 37 -9 66t-34 50t-42.5 33.5t-64 25.5t-66.5 17t-80 15q-25 5 -37 7q-59 11 -97 19.5t-85 23t-75.5 33.5t-55 46t-38.5 65t-12 86q0 94 62.5 160.5t156 96.5t206.5 30q204 0 347 -89l-36 -78
q-62 36 -146 56.5t-168 20.5q-129 0 -217.5 -51t-88.5 -145q0 -38 13.5 -66.5t34 -46.5t56 -32.5t66.5 -22.5t79 -17q16 -3 49 -9q83 -15 124.5 -24t104 -31.5t92 -50.5t53 -76.5t23.5 -114.5q0 -95 -63.5 -162t-157 -96.5t-203.5 -29.5q-126 0 -245 37.5t-186 102.5z
M530 -326v11q-6 -2 -19 -2q-31 0 -49 17.5t-18 43.5q0 27 18 44t49 17q38 0 57 -24q23 -34 23 -96q0 -53 -22 -82t-79 -29h-20l8 43h8q26 0 34.5 12t9.5 45z" />
    <glyph glyph-name="uni021A" unicode="&#x21a;" horiz-adv-x="1363" 
d="M1276 1331h-533v-1331h-122v1331h-534v103h1189v-103zM699 -328l1 11q-6 -2 -19 -2q-31 0 -49.5 17.5t-18.5 43.5t18.5 43.5t49.5 17.5q39 0 57 -26q22 -30 22 -94q0 -53 -22 -82t-79 -29h-19l8 43h8q26 0 34 12t9 45z" />
    <glyph glyph-name="uni021B" unicode="&#x21b;" horiz-adv-x="813" 
d="M373 1024h311v-91h-311v-508q0 -151 81 -241q80 -89 236 -106v-90q-203 12 -316 121q-118 113 -118 316v508h-207v91h207v299h117v-299zM457 -268v10q-6 -2 -19 -2q-31 0 -49.5 18t-18.5 45q0 26 18.5 44t49.5 18q39 0 57 -29q22 -30 22 -94q0 -53 -22 -82t-79 -29h-19
l8 45h8q26 0 34.5 11.5t9.5 44.5z" />
    <glyph glyph-name="uni0228" unicode="&#x228;" horiz-adv-x="1210" 
d="M1095 1331h-773v-541h709v-102h-709v-586h773v-102h-426l-76 -119q6 0 18 1t19 1q91 -3 145.5 -49.5t54.5 -129.5q0 -88 -65.5 -139.5t-165.5 -51.5q-137 0 -194 84l50 45q40 -58 138 -58q68 0 108.5 33t40.5 92t-41.5 93t-111.5 34q-31 0 -63 -10l-34 20l93 154h-385
v1434h895v-103z" />
    <glyph glyph-name="uni0229" unicode="&#x229;" 
d="M492 -158l84 140q-214 21 -334.5 166.5t-120.5 366.5q0 154 58 274t177 192t283 72q235 0 362.5 -120t127.5 -350q0 -71 -12 -134h-879q17 -175 126 -278t287 -104q187 -3 340 81l51 -64q-153 -101 -367 -107h-17l-66 -102q24 4 37 4q91 -3 145.5 -49.5t54.5 -129.5
q0 -89 -65 -140.5t-165 -51.5q-137 0 -194 84l50 46q40 -58 137 -58q68 0 108.5 33t40.5 92q0 58 -41.5 91.5t-111.5 33.5q-37 0 -62 -8zM238 522h775q6 44 6 82q0 358 -377 358q-189 0 -295 -115.5t-109 -301.5v-23z" />
    <glyph glyph-name="circumflex" unicode="&#x2c6;" horiz-adv-x="806" 
d="M715 1198l-63 -63l-248 253l-249 -253l-63 63l312 314z" />
    <glyph glyph-name="caron" unicode="&#x2c7;" horiz-adv-x="806" 
d="M715 1438l-311 -314l-312 314l63 63l249 -253l248 253z" />
    <glyph glyph-name="breve" unicode="&#x2d8;" horiz-adv-x="763" 
d="M587 1441l84 -3q-11 -111 -93 -184.5t-196 -73.5t-196.5 73.5t-93.5 184.5l84 3q10 -83 69 -134.5t137 -51.5t136.5 51.5t68.5 134.5z" />
    <glyph glyph-name="dotaccent" unicode="&#x2d9;" horiz-adv-x="319" 
d="M160 1362q31 0 49 -18t18 -44t-18 -44.5t-49 -18.5t-49.5 18.5t-18.5 44.5t18.5 44t49.5 18z" />
    <glyph glyph-name="ring" unicode="&#x2da;" horiz-adv-x="636" 
d="M319 1559q94 0 160 -64.5t66 -153.5t-66 -153.5t-160 -64.5q-95 0 -161 64.5t-66 153.5t66 153.5t161 64.5zM319 1493q-60 0 -106 -44t-46 -108t46 -108t106 -44t106 44t46 108t-46 108t-106 44z" />
    <glyph glyph-name="ogonek" unicode="&#x2db;" horiz-adv-x="620" 
d="M287 15l121 1q-113 -76 -167.5 -153t-54.5 -141q0 -58 41 -94.5t108 -36.5q73 0 158 44l35 -67q-110 -53 -209 -53q-71 0 -123.5 26.5t-79.5 73.5q-24 45 -24 94q0 73 48 152t147 154z" />
    <glyph glyph-name="tilde" unicode="&#x2dc;" horiz-adv-x="747" 
d="M161 1259l-69 40q59 129 154 129q52 0 135 -46q87 -46 125 -46q50 0 80 69l69 -39q-47 -112 -137 -112q-57 0 -142 46q-81 45 -118 45q-56 0 -97 -86z" />
    <glyph glyph-name="hungarumlaut" unicode="&#x2dd;" horiz-adv-x="950" 
d="M465 1427l-302 -302l-71 70l302 302zM857 1427l-301 -302l-71 70l302 302z" />
    <glyph glyph-name="dotbelowcomb" unicode="&#x323;" horiz-adv-x="0" 
d="M160 -217q31 0 49 -18t18 -44t-18 -44.5t-49 -18.5t-49.5 18.5t-18.5 44.5t18.5 44t49.5 18z" />
    <glyph glyph-name="commaaccentcomb" unicode="&#x326;" horiz-adv-x="0" 
d="M179 -328v11q-6 -2 -19 -2q-31 0 -49.5 17.5t-18.5 43.5t18.5 43.5t49.5 17.5q39 0 57 -26q22 -30 22 -94q0 -53 -21.5 -82t-78.5 -29h-20l8 43h8q26 0 34.5 12t9.5 45z" />
    <glyph glyph-name="circumflexbelowcomb" unicode="&#x32d;" horiz-adv-x="0" 
d="M715 -393l-63 -62l-248 252l-249 -252l-63 62l312 313z" />
    <glyph glyph-name="macronbelowcomb" unicode="&#x331;" horiz-adv-x="0" 
d="M707 -379h-615v78h615v-78z" />
    <glyph glyph-name="Delta" unicode="&#x394;" horiz-adv-x="1228" 
 />
    <glyph glyph-name="Omega" unicode="&#x3a9;" horiz-adv-x="1228" 
 />
    <glyph glyph-name="mu" unicode="&#x3bc;" horiz-adv-x="1228" 
 />
    <glyph glyph-name="pi" unicode="&#x3c0;" horiz-adv-x="1228" 
 />
    <glyph glyph-name="Bdotbelow" unicode="&#x1e04;" horiz-adv-x="1413" 
d="M200 1434h642q177 0 278.5 -99.5t101.5 -262.5q0 -117 -51.5 -201.5t-147.5 -122.5q123 -33 191 -128.5t68 -232.5q0 -176 -106.5 -281.5t-295.5 -105.5h-680v1434zM322 1335v-546h529q120 6 185 78.5t65 194.5q0 126 -72 199.5t-199 73.5h-508zM322 100h539
q138 0 214.5 78.5t76.5 215.5q0 135 -77 214.5t-214 79.5h-539v-588zM663 -217q31 0 49.5 -18t18.5 -44t-18.5 -44.5t-49.5 -18.5t-49 18.5t-18 44.5t18 44t49 18z" />
    <glyph glyph-name="bdotbelow" unicode="&#x1e05;" horiz-adv-x="1265" 
d="M292 1511v-636q124 104 208 140t182 36q228 0 345.5 -141.5t117.5 -395.5q0 -248 -128.5 -393.5t-355.5 -145.5q-238 0 -377 177l-4 -152h-106v1511h118zM292 770v-514q120 -186 339 -186q193 0 295 121t102 323q0 442 -372 442q-91 0 -166.5 -37t-197.5 -149zM624 -217
q31 0 49 -18t18 -44t-18 -44.5t-49 -18.5t-49.5 18.5t-18.5 44.5t18.5 44t49.5 18z" />
    <glyph glyph-name="Ddotbelow" unicode="&#x1e0c;" horiz-adv-x="1521" 
d="M200 1434h456q224 0 388.5 -90.5t249 -251.5t84.5 -374q0 -215 -83.5 -376.5t-248 -251.5t-390.5 -90h-456v1434zM322 103h334q286 0 443 163.5t157 451.5q0 284 -158.5 448.5t-441.5 164.5h-334v-1228zM656 -217q31 0 49.5 -18t18.5 -44t-18.5 -44.5t-49.5 -18.5
t-49 18.5t-18 44.5t18 44t49 18z" />
    <glyph glyph-name="ddotbelow" unicode="&#x1e0d;" horiz-adv-x="1265" 
d="M1092 0h-106l-4 152q-139 -177 -377 -177q-227 0 -355.5 145.5t-128.5 393.5q0 254 117.5 395.5t345.5 141.5q97 0 181.5 -36t208.5 -141v637h118v-1511zM974 256v514q-122 112 -197.5 149t-166.5 37q-372 0 -372 -442q0 -202 102 -323t295 -121q219 0 339 186zM638 -217
q31 0 49.5 -18t18.5 -44t-18.5 -44.5t-49.5 -18.5t-49 18.5t-18 44.5t18 44t49 18z" />
    <glyph glyph-name="Dlinebelow" unicode="&#x1e0e;" horiz-adv-x="1521" 
d="M200 1434h456q224 0 388.5 -90.5t249 -251.5t84.5 -374q0 -215 -83.5 -376.5t-248 -251.5t-390.5 -90h-456v1434zM322 103h334q286 0 443 163.5t157 451.5q0 284 -158.5 448.5t-441.5 164.5h-334v-1228zM964 -379h-615v78h615v-78z" />
    <glyph glyph-name="dlinebelow" unicode="&#x1e0f;" horiz-adv-x="1265" 
d="M1092 0h-106l-4 152q-139 -177 -377 -177q-227 0 -355.5 145.5t-128.5 393.5q0 254 117.5 395.5t345.5 141.5q97 0 181.5 -36t208.5 -141v637h118v-1511zM974 256v514q-122 112 -197.5 149t-166.5 37q-372 0 -372 -442q0 -202 102 -323t295 -121q219 0 339 186zM946 -379
h-615v78h615v-78z" />
    <glyph glyph-name="Dcircumflexbelow" unicode="&#x1e12;" horiz-adv-x="1521" 
d="M200 1434h456q224 0 388.5 -90.5t249 -251.5t84.5 -374q0 -215 -83.5 -376.5t-248 -251.5t-390.5 -90h-456v1434zM322 103h334q286 0 443 163.5t157 451.5q0 284 -158.5 448.5t-441.5 164.5h-334v-1228zM968 -393l-63 -62l-249 252l-248 -252l-63 62l311 313z" />
    <glyph glyph-name="dcircumflexbelow" unicode="&#x1e13;" horiz-adv-x="1265" 
d="M1092 0h-106l-4 152q-139 -177 -377 -177q-227 0 -355.5 145.5t-128.5 393.5q0 254 117.5 395.5t345.5 141.5q97 0 181.5 -36t208.5 -141v637h118v-1511zM974 256v514q-122 112 -197.5 149t-166.5 37q-372 0 -372 -442q0 -202 102 -323t295 -121q219 0 339 186zM950 -393
l-63 -62l-248 252l-249 -252l-63 62l312 313z" />
    <glyph glyph-name="Hdotbelow" unicode="&#x1e24;" horiz-adv-x="1533" 
d="M1334 0h-121v666h-891v-666h-122v1434h122v-666h891v666h121v-1434zM762 -217q31 0 49 -18t18 -44t-18 -44.5t-49 -18.5t-49.5 18.5t-18.5 44.5t18.5 44t49.5 18z" />
    <glyph glyph-name="hdotbelow" unicode="&#x1e25;" horiz-adv-x="1282" 
d="M310 1511v-642q112 98 196 140.5t192 42.5q79 0 153.5 -24t136.5 -69.5t99.5 -120t37.5 -166.5v-672h-118v651q0 74 -29 133.5t-78 96t-108.5 56t-123.5 19.5q-95 0 -171 -41t-187 -146v-769h-118v1511h118zM649 -217q31 0 49.5 -18t18.5 -44t-18.5 -44.5t-49.5 -18.5
t-49 18.5t-18 44.5t18 44t49 18z" />
    <glyph glyph-name="Idieresisacute" unicode="&#x1e2e;" horiz-adv-x="522" 
d="M459 2105l-326 -274l-62 73l327 274zM62 1771q31 0 49 -18t18 -44t-18 -44t-49 -18t-49.5 18t-18.5 44t18.5 44t49.5 18zM458 1771q31 0 49 -18t18 -44t-18 -44t-49 -18t-49.5 18t-18.5 44t18.5 44t49.5 18zM322 0h-122v1434h122v-1434z" />
    <glyph glyph-name="idieresisacute" unicode="&#x1e2f;" horiz-adv-x="468" 
d="M443 1725l-326 -274l-61 74l326 273zM46 1362q31 0 49 -18t18 -44t-18 -44.5t-49 -18.5t-48.5 18.5t-17.5 44.5t17.5 44t48.5 18zM442 1362q31 0 49 -18t18 -44t-18 -44.5t-49 -18.5t-49.5 18.5t-18.5 44.5t18.5 44t49.5 18zM302 0h-117v1024h117v-1024z" />
    <glyph glyph-name="Ldotbelow" unicode="&#x1e36;" horiz-adv-x="1155" 
d="M322 98h746v-98h-868v1434h122v-1336zM585 -217q31 0 49 -18t18 -44t-18 -44.5t-49 -18.5t-49 18.5t-18 44.5t18 44t49 18z" />
    <glyph glyph-name="ldotbelow" unicode="&#x1e37;" horiz-adv-x="700" 
d="M310 1511v-1081q0 -176 77 -263q78 -87 236 -87v-90q-207 -6 -317 103q-114 113 -114 337v1081h118zM327 -217q31 0 49 -18t18 -44t-18 -44.5t-49 -18.5t-49 18.5t-18 44.5t18 44t49 18z" />
    <glyph glyph-name="Lcircumflexbelow" unicode="&#x1e3c;" horiz-adv-x="1155" 
d="M322 98h746v-98h-868v1434h122v-1336zM896 -393l-63 -62l-248 252l-248 -252l-63 62l311 313z" />
    <glyph glyph-name="lcircumflexbelow" unicode="&#x1e3d;" horiz-adv-x="700" 
d="M310 1511v-1081q0 -176 77 -263q78 -87 236 -87v-90q-207 -6 -317 103q-114 113 -114 337v1081h118zM638 -393l-63 -62l-248 252l-248 -252l-63 62l311 313z" />
    <glyph glyph-name="Macute" unicode="&#x1e3e;" horiz-adv-x="1808" 
d="M1087 1828l-326 -274l-61 73l326 274zM1608 0h-122v1198l-532 -1198h-118l-532 1198v-1198h-122v1434h151l562 -1295l562 1295h151v-1434z" />
    <glyph glyph-name="macute" unicode="&#x1e3f;" horiz-adv-x="1937" 
d="M1172 1418l-326 -274l-61 74l326 273zM280 1024l4 -155q103 97 180 140t177 43q105 0 199.5 -48t145.5 -137q114 105 199.5 145t193.5 40q74 0 144.5 -24t128.5 -69.5t93.5 -120t35.5 -166.5v-672h-117v651q0 74 -26.5 133.5t-71 96t-99 56t-112.5 19.5q-91 0 -163 -34
t-177 -136q22 -58 22 -125v-661h-117v651q0 74 -26.5 133.5t-71 96t-99 56t-112.5 19.5q-85 0 -152 -39.5t-167 -139.5v-777h-118v1024h106z" />
    <glyph glyph-name="Ndotaccent" unicode="&#x1e44;" horiz-adv-x="1490" 
d="M746 1771q31 0 49.5 -18t18.5 -44t-18.5 -44t-49.5 -18t-49 18t-18 44t18 44t49 18zM1309 0h-148l-857 1230v-1230h-122v1434h147l858 -1231v1231h122v-1434z" />
    <glyph glyph-name="ndotaccent" unicode="&#x1e45;" horiz-adv-x="1271" 
d="M646 1362q31 0 49.5 -18t18.5 -44t-18.5 -44.5t-49.5 -18.5t-49 18.5t-18 44.5t18 44t49 18zM280 1024l4 -157q114 99 199.5 142t196.5 43q64 0 125.5 -14.5t118 -46t99 -75.5t67.5 -107t25 -137v-672h-118v651q0 97 -51.5 168.5t-128 104t-164.5 32.5q-95 0 -171.5 -40
t-189.5 -142v-774h-118v1024h106z" />
    <glyph glyph-name="Ndotbelow" unicode="&#x1e46;" horiz-adv-x="1490" 
d="M1309 0h-148l-857 1230v-1230h-122v1434h147l858 -1231v1231h122v-1434zM746 -217q31 0 49.5 -18t18.5 -44t-18.5 -44.5t-49.5 -18.5t-49 18.5t-18 44.5t18 44t49 18z" />
    <glyph glyph-name="ndotbelow" unicode="&#x1e47;" horiz-adv-x="1271" 
d="M280 1024l4 -157q114 99 199.5 142t196.5 43q64 0 125.5 -14.5t118 -46t99 -75.5t67.5 -107t25 -137v-672h-118v651q0 97 -51.5 168.5t-128 104t-164.5 32.5q-95 0 -171.5 -40t-189.5 -142v-774h-118v1024h106zM646 -217q31 0 49 -18t18 -44t-18 -44.5t-49 -18.5
t-49 18.5t-18 44.5t18 44t49 18z" />
    <glyph glyph-name="Ncircumflexbelow" unicode="&#x1e4a;" horiz-adv-x="1490" 
d="M1309 0h-148l-857 1230v-1230h-122v1434h147l858 -1231v1231h122v-1434zM1058 -393l-63 -62l-249 252l-248 -252l-63 62l311 313z" />
    <glyph glyph-name="ncircumflexbelow" unicode="&#x1e4b;" horiz-adv-x="1271" 
d="M280 1024l4 -157q114 99 199.5 142t196.5 43q64 0 125.5 -14.5t118 -46t99 -75.5t67.5 -107t25 -137v-672h-118v651q0 97 -51.5 168.5t-128 104t-164.5 32.5q-95 0 -171.5 -40t-189.5 -142v-774h-118v1024h106zM957 -393l-63 -62l-248 252l-248 -252l-63 62l311 313z" />
    <glyph glyph-name="Otildeacute" unicode="&#x1e4c;" horiz-adv-x="1728" 
d="M1065 2104l-326 -274l-62 74l326 273zM657 1586l-68 40q59 128 153 128q53 0 136 -46q85 -45 124 -45q51 0 81 69l69 -39q-47 -113 -138 -113q-55 0 -142 47q-81 45 -118 45q-56 0 -97 -86zM863 1458q168 0 305 -56t228 -155t140 -234.5t49 -294.5q0 -161 -48.5 -297
t-139 -235.5t-227.5 -155t-307 -55.5q-220 0 -384.5 96.5t-249.5 264t-85 382.5q0 159 48.5 294.5t138.5 234.5t227 155t305 56zM863 1355q-186 0 -322.5 -81t-206 -224t-69.5 -332q0 -289 161 -464t437 -175q282 0 441 174t159 465q0 287 -160 462t-440 175z" />
    <glyph glyph-name="otildeacute" unicode="&#x1e4d;" horiz-adv-x="1312" 
d="M856 1726l-326 -274l-61 73l326 274zM449 1208l-69 40q59 129 154 129q52 0 135 -46q87 -46 125 -46q50 0 80 69l69 -39q-47 -112 -138 -112q-56 0 -141 46q-81 45 -119 45q-55 0 -96 -86zM657 1051q250 0 392.5 -148.5t142.5 -390.5q0 -158 -60.5 -278.5t-183 -190.5
t-291.5 -70q-126 0 -228.5 41t-169 113.5t-102.5 171t-36 213.5t36 213.5t102.5 171t169 113.5t228.5 41zM657 956q-194 0 -306.5 -122t-112.5 -322t112.5 -322t306.5 -122q197 0 307.5 120t110.5 324q0 205 -112 324.5t-306 119.5z" />
    <glyph glyph-name="Omacrongrave" unicode="&#x1e50;" horiz-adv-x="1728" 
d="M1060 1904l-61 -73l-326 274l61 73zM1173 1660h-615v78h615v-78zM863 1458q168 0 305 -56t228 -155t140 -234.5t49 -294.5q0 -161 -48.5 -297t-139 -235.5t-227.5 -155t-307 -55.5q-220 0 -384.5 96.5t-249.5 264t-85 382.5q0 159 48.5 294.5t138.5 234.5t227 155t305 56
zM863 1355q-186 0 -322.5 -81t-206 -224t-69.5 -332q0 -289 161 -464t437 -175q282 0 441 174t159 465q0 287 -160 462t-440 175z" />
    <glyph glyph-name="omacrongrave" unicode="&#x1e51;" horiz-adv-x="1312" 
d="M852 1516l-62 -73l-326 273l62 74zM964 1267h-614v78h614v-78zM657 1051q250 0 392.5 -148.5t142.5 -390.5q0 -158 -60.5 -278.5t-183 -190.5t-291.5 -70q-126 0 -228.5 41t-169 113.5t-102.5 171t-36 213.5t36 213.5t102.5 171t169 113.5t228.5 41zM657 956
q-194 0 -306.5 -122t-112.5 -322t112.5 -322t306.5 -122q197 0 307.5 120t110.5 324q0 205 -112 324.5t-306 119.5z" />
    <glyph glyph-name="Omacronacute" unicode="&#x1e52;" horiz-adv-x="1728" 
d="M1065 2105l-326 -274l-62 73l326 274zM1173 1660h-615v78h615v-78zM863 1458q168 0 305 -56t228 -155t140 -234.5t49 -294.5q0 -161 -48.5 -297t-139 -235.5t-227.5 -155t-307 -55.5q-220 0 -384.5 96.5t-249.5 264t-85 382.5q0 159 48.5 294.5t138.5 234.5t227 155
t305 56zM863 1355q-186 0 -322.5 -81t-206 -224t-69.5 -332q0 -289 161 -464t437 -175q282 0 441 174t159 465q0 287 -160 462t-440 175z" />
    <glyph glyph-name="omacronacute" unicode="&#x1e53;" horiz-adv-x="1312" 
d="M856 1725l-326 -274l-61 73l326 274zM964 1267h-614v78h614v-78zM657 1051q250 0 392.5 -148.5t142.5 -390.5q0 -158 -60.5 -278.5t-183 -190.5t-291.5 -70q-126 0 -228.5 41t-169 113.5t-102.5 171t-36 213.5t36 213.5t102.5 171t169 113.5t228.5 41zM657 956
q-194 0 -306.5 -122t-112.5 -322t112.5 -322t306.5 -122q197 0 307.5 120t110.5 324q0 205 -112 324.5t-306 119.5z" />
    <glyph glyph-name="Sdotbelow" unicode="&#x1e62;" horiz-adv-x="1400" 
d="M100 172l74 83q80 -82 225 -129t302 -47q71 0 136 10.5t123.5 33.5t101.5 56.5t68.5 83t25.5 109.5q0 65 -26 113t-54.5 75.5t-102.5 52t-114 33t-144 27.5q-46 9 -70 13q-62 12 -106.5 22t-98.5 26.5t-91.5 35.5t-76 47t-61 61.5t-37 80t-14.5 101.5q0 99 49.5 177
t133.5 125.5t188 72t219 24.5q129 0 253.5 -30.5t219.5 -87.5l-71 -88q-172 106 -416 106q-122 0 -222 -31t-165 -99t-65 -163q0 -48 14.5 -86t45 -65.5t62.5 -47t84 -35t90.5 -24.5t99.5 -21q223 -42 290 -62q193 -55 264 -162q50 -77 50 -191q0 -80 -33 -146.5t-89 -112
t-131.5 -77.5t-159.5 -46.5t-174 -14.5q-175 0 -340 52.5t-257 144.5zM699 -217q31 0 49 -18t18 -44t-18 -44.5t-49 -18.5t-49.5 18.5t-18.5 44.5t18.5 44t49.5 18z" />
    <glyph glyph-name="sdotbelow" unicode="&#x1e63;" horiz-adv-x="1028" 
d="M80 122l40 75q58 -56 166.5 -91t222.5 -35q134 0 222.5 51t88.5 151q0 37 -9 66t-34 50t-42.5 33.5t-64 25.5t-66.5 17t-80 15q-25 5 -37 7q-59 11 -97 19.5t-85 23t-75.5 33.5t-55 46t-38.5 65t-12 86q0 94 62.5 160.5t156 96.5t206.5 30q204 0 347 -89l-36 -78
q-62 36 -146 56.5t-168 20.5q-129 0 -217.5 -51t-88.5 -145q0 -38 13.5 -66.5t34 -46.5t56 -32.5t66.5 -22.5t79 -17q16 -3 49 -9q83 -15 124.5 -24t104 -31.5t92 -50.5t53 -76.5t23.5 -114.5q0 -95 -63.5 -162t-157 -96.5t-203.5 -29.5q-126 0 -245 37.5t-186 102.5z
M513 -213q31 0 49.5 -18.5t18.5 -44.5q0 -25 -18.5 -44.5t-49.5 -19.5t-49 19.5t-18 44.5q0 26 18 44.5t49 18.5z" />
    <glyph glyph-name="Tdotbelow" unicode="&#x1e6c;" horiz-adv-x="1363" 
d="M1276 1331h-533v-1331h-122v1331h-534v103h1189v-103zM683 -217q31 0 49 -18t18 -44t-18 -44.5t-49 -18.5t-49.5 18.5t-18.5 44.5t18.5 44t49.5 18z" />
    <glyph glyph-name="tdotbelow" unicode="&#x1e6d;" horiz-adv-x="813" 
d="M373 1024h311v-91h-311v-508q0 -151 81 -241q80 -89 236 -106v-90q-203 12 -316 121q-118 113 -118 316v508h-207v91h207v299h117v-299zM440 -158q31 0 49 -17.5t18 -43.5q0 -25 -18 -44.5t-49 -19.5t-49.5 19.5t-18.5 44.5q0 26 18.5 43.5t49.5 17.5z" />
    <glyph glyph-name="Tlinebelow" unicode="&#x1e6e;" horiz-adv-x="1363" 
d="M1276 1331h-533v-1331h-122v1331h-534v103h1189v-103zM990 -379h-615v78h615v-78z" />
    <glyph glyph-name="tlinebelow" unicode="&#x1e6f;" horiz-adv-x="813" 
d="M373 1024h311v-91h-311v-508q0 -151 81 -241q80 -89 236 -106v-90q-203 12 -316 121q-118 113 -118 316v508h-207v91h207v299h117v-299zM747 -317h-614v77h614v-77z" />
    <glyph glyph-name="Tcircumflexbelow" unicode="&#x1e70;" horiz-adv-x="1363" 
d="M1276 1331h-533v-1331h-122v1331h-534v103h1189v-103zM994 -393l-63 -62l-248 252l-248 -252l-64 62l312 313z" />
    <glyph glyph-name="tcircumflexbelow" unicode="&#x1e71;" horiz-adv-x="813" 
d="M373 1024h311v-91h-311v-508q0 -151 81 -241q80 -89 236 -106v-90q-203 12 -316 121q-118 113 -118 316v508h-207v91h207v299h117v-299zM751 -332l-63 -63l-248 252l-248 -252l-63 63l311 314z" />
    <glyph glyph-name="Wgrave" unicode="&#x1e80;" horiz-adv-x="2234" 
d="M1316 1627l-62 -73l-326 274l62 73zM1183 1434l408 -1252l421 1252h134l-496 -1434h-125l-408 1237l-408 -1237h-126l-496 1434h134l421 -1252l408 1252h133z" />
    <glyph glyph-name="wgrave" unicode="&#x1e81;" horiz-adv-x="1669" 
d="M1029 1218l-61 -74l-326 274l61 73zM1243 0h-125l-284 851l-283 -851h-126l-374 1024h120l316 -885l292 885h111l291 -885l316 885h120z" />
    <glyph glyph-name="Wacute" unicode="&#x1e82;" horiz-adv-x="2234" 
d="M1320 1828l-326 -274l-61 73l326 274zM1183 1434l408 -1252l421 1252h134l-496 -1434h-125l-408 1237l-408 -1237h-126l-496 1434h134l421 -1252l408 1252h133z" />
    <glyph glyph-name="wacute" unicode="&#x1e83;" horiz-adv-x="1669" 
d="M1034 1418l-326 -274l-62 74l326 273zM1243 0h-125l-284 851l-284 -851h-125l-374 1024h120l316 -885l292 885h111l291 -885l316 885h120z" />
    <glyph glyph-name="Wdieresis" unicode="&#x1e84;" horiz-adv-x="2234" 
d="M923 1771q31 0 49 -18t18 -44t-18 -44t-49 -18t-49.5 18t-18.5 44t18.5 44t49.5 18zM1319 1771q31 0 49 -18t18 -44t-18 -44t-49 -18t-49.5 18t-18.5 44t18.5 44t49.5 18zM1183 1434l408 -1252l421 1252h134l-496 -1434h-125l-408 1237l-408 -1237h-126l-496 1434h134
l421 -1252l408 1252h133z" />
    <glyph glyph-name="wdieresis" unicode="&#x1e85;" horiz-adv-x="1669" 
d="M637 1362q31 0 49 -18t18 -44t-18 -44.5t-49 -18.5t-49.5 18.5t-18.5 44.5t18.5 44t49.5 18zM1032 1362q31 0 49.5 -18t18.5 -44t-18.5 -44.5t-49.5 -18.5t-49 18.5t-18 44.5t18 44t49 18zM1243 0h-125l-284 851l-283 -851h-126l-374 1024h120l316 -885l292 885h111
l291 -885l316 885h120z" />
    <glyph glyph-name="Zdotbelow" unicode="&#x1e92;" horiz-adv-x="1310" 
d="M1195 1363l-930 -1261h946v-102h-1111v71l931 1260h-859v103h1023v-71zM669 -217q31 0 49.5 -18t18.5 -44t-18.5 -44.5t-49.5 -18.5t-49 18.5t-18 44.5t18 44t49 18z" />
    <glyph glyph-name="zdotbelow" unicode="&#x1e93;" horiz-adv-x="968" 
d="M869 972l-632 -881h644v-91h-796v54l629 879h-597v91h752v-52zM486 -217q31 0 49 -18t18 -44t-18 -44.5t-49 -18.5t-49.5 18.5t-18.5 44.5t18.5 44t49.5 18z" />
    <glyph glyph-name="adotbelow" unicode="&#x1ea1;" horiz-adv-x="1187" 
d="M227 875l-32 74q183 102 381 102q86 0 166 -24t145 -70t104 -120t39 -166v-671h-105l-4 154q-156 -179 -410 -179q-107 0 -196 36.5t-147 114.5t-58 184q0 86 36.5 152.5t99 106t139.5 59.5t165 20q205 0 363 -90v116q0 92 -54 160t-133 99.5t-170 31.5q-169 0 -329 -90z
M913 237v241q-68 44 -159 68.5t-185 24.5q-96 0 -172 -25.5t-126 -84.5t-50 -145q0 -119 91.5 -185.5t225.5 -66.5q236 0 375 173zM579 -217q31 0 49.5 -18t18.5 -44t-18.5 -44.5t-49.5 -18.5t-49 18.5t-18 44.5t18 44t49 18z" />
    <glyph glyph-name="Acircumflexdotbelow" unicode="&#x1eac;" horiz-adv-x="1497" 
d="M1057 1607l-63 -63l-248 253l-249 -253l-63 63l312 314zM1410 0h-128l-163 396h-741l-163 -396h-128l597 1434h129zM416 498h665l-332 805zM746 -217q31 0 49 -18t18 -44t-18 -44.5t-49 -18.5t-49.5 18.5t-18.5 44.5t18.5 44t49.5 18z" />
    <glyph glyph-name="acircumflexdotbelow" unicode="&#x1ead;" horiz-adv-x="1187" 
d="M910 1198l-63 -63l-248 253l-248 -253l-63 63l311 314zM227 875l-32 74q183 102 381 102q86 0 166 -24t145 -70t104 -120t39 -166v-671h-105l-4 154q-156 -179 -410 -179q-107 0 -196 36.5t-147 114.5t-58 184q0 86 36.5 152.5t99 106t139.5 59.5t165 20q205 0 363 -90
v116q0 92 -54 160t-133 99.5t-170 31.5q-169 0 -329 -90zM913 237v241q-68 44 -159 68.5t-185 24.5q-96 0 -172 -25.5t-126 -84.5t-50 -145q0 -119 91.5 -185.5t225.5 -66.5q236 0 375 173zM579 -217q31 0 49.5 -18t18.5 -44t-18.5 -44.5t-49.5 -18.5t-49 18.5t-18 44.5
t18 44t49 18z" />
    <glyph glyph-name="Edotbelow" unicode="&#x1eb8;" horiz-adv-x="1210" 
d="M1095 1331h-773v-541h709v-102h-709v-586h773v-102h-895v1434h895v-103zM613 -217q31 0 49 -18t18 -44t-18 -44.5t-49 -18.5t-49.5 18.5t-18.5 44.5t18.5 44t49.5 18z" />
    <glyph glyph-name="edotbelow" unicode="&#x1eb9;" 
d="M991 148l50 -63q-164 -110 -390 -110q-247 0 -388.5 150t-141.5 390q0 154 58 274t177 192t283 72q235 0 362.5 -120t127.5 -350q0 -71 -12 -134h-879q17 -175 126 -278t287 -104q187 -3 340 81zM238 522h775q6 44 6 82q0 358 -378 358q-189 0 -294.5 -115.5
t-108.5 -301.5v-23zM613 -217q31 0 49 -18t18 -44t-18 -44.5t-49 -18.5t-49.5 18.5t-18.5 44.5t18.5 44t49.5 18z" />
    <glyph glyph-name="Etilde" unicode="&#x1ebc;" horiz-adv-x="1210" 
d="M405 1669l-69 40q59 128 154 128q52 0 135 -46q85 -45 125 -45q50 0 80 69l69 -39q-47 -113 -137 -113q-55 0 -142 47q-81 45 -119 45q-55 0 -96 -86zM1095 1331h-773v-541h709v-102h-709v-586h773v-102h-895v1434h895v-103z" />
    <glyph glyph-name="etilde" unicode="&#x1ebd;" 
d="M405 1259l-69 40q59 129 154 129q52 0 135 -46q87 -46 125 -46q50 0 80 69l69 -39q-47 -112 -138 -112q-56 0 -141 46q-81 45 -119 45q-55 0 -96 -86zM991 148l50 -64q-163 -109 -390 -109q-247 0 -388.5 150t-141.5 390q0 154 58 274t177 192t283 72q235 0 362.5 -120
t127.5 -350q0 -71 -12 -134h-879q17 -175 126 -278t287 -104q187 -3 340 81zM238 522h775q6 44 6 82q0 358 -378 358q-189 0 -294.5 -115.5t-108.5 -301.5v-23z" />
    <glyph glyph-name="Ecircumflexdotbelow" unicode="&#x1ec6;" horiz-adv-x="1210" 
d="M924 1607l-63 -63l-248 253l-248 -253l-63 63l311 314zM1095 1331h-773v-541h709v-102h-709v-586h773v-102h-895v1434h895v-103zM613 -217q31 0 49 -18t18 -44t-18 -44.5t-49 -18.5t-49.5 18.5t-18.5 44.5t18.5 44t49.5 18z" />
    <glyph glyph-name="ecircumflexdotbelow" unicode="&#x1ec7;" 
d="M924 1198l-63 -63l-248 253l-249 -253l-63 63l312 314zM991 148l50 -64q-163 -109 -390 -109q-247 0 -388.5 150t-141.5 390q0 154 58 274t177 192t283 72q235 0 362.5 -120t127.5 -350q0 -71 -12 -134h-879q17 -175 126 -278t287 -104q187 -3 340 81zM238 522h775
q6 44 6 82q0 358 -378 358q-189 0 -294.5 -115.5t-108.5 -301.5v-23zM613 -217q31 0 49 -18t18 -44t-18 -44.5t-49 -18.5t-49.5 18.5t-18.5 44.5t18.5 44t49.5 18z" />
    <glyph glyph-name="Idotbelow" unicode="&#x1eca;" horiz-adv-x="522" 
d="M322 0h-122v1434h122v-1434zM260 -217q31 0 49 -18t18 -44t-18 -44.5t-49 -18.5t-49.5 18.5t-18.5 44.5t18.5 44t49.5 18z" />
    <glyph glyph-name="idotbelow" unicode="&#x1ecb;" horiz-adv-x="493" 
d="M257 1399q29 0 50.5 -19.5t21.5 -47.5t-21.5 -47.5t-50.5 -19.5t-50 19.5t-21 47.5t21 47.5t50 19.5zM316 0h-118v1024h118v-1024zM256 -217q31 0 49.5 -18t18.5 -44t-18.5 -44.5t-49.5 -18.5t-49 18.5t-18 44.5t18 44t49 18z" />
    <glyph glyph-name="Odotbelow" unicode="&#x1ecc;" horiz-adv-x="1728" 
d="M863 1458q168 0 305 -56t228 -155t140 -234.5t49 -294.5q0 -161 -48.5 -297t-139 -235.5t-227.5 -155t-307 -55.5q-220 0 -384.5 96.5t-249.5 264t-85 382.5q0 159 48.5 294.5t138.5 234.5t227 155t305 56zM863 1355q-186 0 -322.5 -81t-206 -224t-69.5 -332
q0 -289 161 -464t437 -175q282 0 441 174t159 465q0 287 -160 462t-440 175zM863 -217q31 0 49.5 -18t18.5 -44t-18.5 -44.5t-49.5 -18.5t-49 18.5t-18 44.5t18 44t49 18z" />
    <glyph glyph-name="odotbelow" unicode="&#x1ecd;" horiz-adv-x="1312" 
d="M657 1051q250 0 392.5 -148.5t142.5 -390.5q0 -158 -60.5 -278.5t-183 -190.5t-291.5 -70q-126 0 -228.5 41t-169 113.5t-102.5 171t-36 213.5t36 213.5t102.5 171t169 113.5t228.5 41zM657 956q-194 0 -306.5 -122t-112.5 -322t112.5 -322t306.5 -122q197 0 307.5 120
t110.5 324q0 205 -112 324.5t-306 119.5zM657 -217q31 0 49 -18t18 -44t-18 -44.5t-49 -18.5t-49.5 18.5t-18.5 44.5t18.5 44t49.5 18z" />
    <glyph glyph-name="Ocircumflexdotbelow" unicode="&#x1ed8;" horiz-adv-x="1728" 
d="M1176 1607l-63 -63l-248 253l-248 -253l-63 63l311 314zM863 1458q168 0 305 -56t228 -155t140 -234.5t49 -294.5q0 -161 -48.5 -297t-139 -235.5t-227.5 -155t-307 -55.5q-220 0 -384.5 96.5t-249.5 264t-85 382.5q0 159 48.5 294.5t138.5 234.5t227 155t305 56z
M863 1355q-186 0 -322.5 -81t-206 -224t-69.5 -332q0 -289 161 -464t437 -175q282 0 441 174t159 465q0 287 -160 462t-440 175zM863 -217q31 0 49.5 -18t18.5 -44t-18.5 -44.5t-49.5 -18.5t-49 18.5t-18 44.5t18 44t49 18z" />
    <glyph glyph-name="ocircumflexdotbelow" unicode="&#x1ed9;" horiz-adv-x="1312" 
d="M968 1198l-63 -63l-248 253l-249 -253l-63 63l312 314zM657 1051q250 0 392.5 -148.5t142.5 -390.5q0 -158 -60.5 -278.5t-183 -190.5t-291.5 -70q-126 0 -228.5 41t-169 113.5t-102.5 171t-36 213.5t36 213.5t102.5 171t169 113.5t228.5 41zM657 956q-194 0 -306.5 -122
t-112.5 -322t112.5 -322t306.5 -122q197 0 307.5 120t110.5 324q0 205 -112 324.5t-306 119.5zM657 -217q31 0 49 -18t18 -44t-18 -44.5t-49 -18.5t-49.5 18.5t-18.5 44.5t18.5 44t49.5 18z" />
    <glyph glyph-name="Udotbelow" unicode="&#x1ee4;" horiz-adv-x="1525" 
d="M1344 1434v-783q0 -125 -16.5 -224.5t-57.5 -186t-105.5 -144.5t-163.5 -90.5t-229 -32.5q-129 0 -227.5 32t-163.5 89t-106 142.5t-58 186.5t-17 228v783h122v-774q0 -144 22.5 -247.5t73.5 -179t139 -112.5t215 -37q128 0 216 38t139 114.5t73 179t22 244.5v774h122z
M772 -217q31 0 49.5 -18t18.5 -44t-18.5 -44.5t-49.5 -18.5t-49 18.5t-18 44.5t18 44t49 18z" />
    <glyph glyph-name="udotbelow" unicode="&#x1ee5;" horiz-adv-x="1253" 
d="M1097 0h-106l-4 157q-115 -99 -199.5 -142.5t-195.5 -43.5q-64 0 -125.5 15t-118 46t-99 75.5t-67.5 107.5t-25 137v672h117v-651q0 -97 51.5 -168.5t128.5 -104t165 -32.5q95 0 171 40t189 142v774h118v-1024zM631 -217q31 0 49 -18t18 -44t-18 -44.5t-49 -18.5
t-49 18.5t-18 44.5t18 44t49 18z" />
    <glyph glyph-name="Ygrave" unicode="&#x1ef2;" horiz-adv-x="1413" 
d="M901 1627l-62 -73l-326 274l62 73zM768 571v-571h-122v572l-559 862h141l479 -750l478 750h141z" />
    <glyph glyph-name="ygrave" unicode="&#x1ef3;" horiz-adv-x="1118" 
d="M752 1218l-62 -74l-326 274l62 73zM1067 1024l-495 -1225q-65 -157 -194 -235q-121 -72 -296 -72v90q149 0 253 66q96 65 146 188l65 164h-23l-421 1024h120l365 -907l360 907h120z" />
    <glyph glyph-name="endash" unicode="&#x2013;" horiz-adv-x="1083" 
d="M990 660h-898v99h898v-99z" />
    <glyph glyph-name="emdash" unicode="&#x2014;" horiz-adv-x="1347" 
d="M1256 660h-1164v99h1164v-99z" />
    <glyph glyph-name="quoteleft" unicode="&#x2018;" horiz-adv-x="331" 
d="M205 1521h-8q-25 0 -34 -14t-10 -51v-12q6 2 19 2q31 0 49.5 -18t18.5 -44t-18.5 -44t-49.5 -18q-40 0 -58 30q-22 32 -22 92q0 62 22 96t79 34h20z" />
    <glyph glyph-name="quoteright" unicode="&#x2019;" horiz-adv-x="331" 
d="M179 1440v12q-9 -3 -19 -3q-31 0 -49.5 18.5t-18.5 44.5t18.5 44t49.5 18q38 0 57 -28q22 -30 22 -95q0 -62 -21.5 -95.5t-78.5 -33.5h-20l8 53h8q25 0 34 13.5t10 51.5z" />
    <glyph glyph-name="quotesinglbase" unicode="&#x201a;" horiz-adv-x="331" 
d="M179 -23v13q-6 -2 -19 -2q-31 0 -49.5 17.5t-18.5 43.5t18.5 44t49.5 18q38 0 57 -27q22 -30 22 -94q0 -63 -21.5 -97t-78.5 -34h-20l8 53h8q25 0 34 14t10 51z" />
    <glyph glyph-name="quotedblleft" unicode="&#x201c;" horiz-adv-x="608" 
d="M482 1521h-9q-25 0 -33.5 -13.5t-9.5 -51.5l-1 -12q6 2 19 2q31 0 49.5 -18t18.5 -44t-18.5 -44t-49.5 -18q-38 0 -57 28q-22 30 -22 94q0 62 22 96t79 34h19zM205 1521h-8q-25 0 -34 -13.5t-10 -49.5v-14q6 2 19 2q31 0 49.5 -18t18.5 -44t-18.5 -44t-49.5 -18
q-40 0 -58 30q-22 32 -22 93q0 62 22 95.5t79 33.5h20z" />
    <glyph glyph-name="quotedblright" unicode="&#x201d;" horiz-adv-x="608" 
d="M179 1440v12q-9 -3 -19 -3q-31 0 -49.5 18.5t-18.5 44.5t18.5 44t49.5 18q38 0 57 -28q22 -30 22 -95q0 -62 -21.5 -95.5t-78.5 -33.5h-20l8 53h8q25 0 34 14t10 51zM455 1443v9q-9 -3 -19 -3q-31 0 -49 18.5t-18 44.5t18 44t49 18q41 0 59 -30q21 -30 21 -93
q0 -62 -22 -95.5t-79 -33.5h-20l8 53h9q26 0 34 14t9 54z" />
    <glyph glyph-name="quotedblbase" unicode="&#x201e;" horiz-adv-x="608" 
d="M179 -23v13q-6 -2 -19 -2q-31 0 -49.5 17.5t-18.5 43.5t18.5 44t49.5 18q38 0 57 -27q22 -30 22 -94q0 -63 -21.5 -97t-78.5 -34h-20l8 53h8q25 0 34 14t10 51zM455 -23v13q-6 -2 -19 -2q-31 0 -49 17.5t-18 43.5t18 44t49 18q38 0 57 -27q23 -31 23 -94t-22 -97t-79 -34
h-20l8 53h9q25 0 33.5 13.5t9.5 51.5z" />
    <glyph glyph-name="dagger" unicode="&#x2020;" horiz-adv-x="1071" 
d="M597 982h382v-99h-382v-1178h-122v1178h-383v99h383v487h122v-487z" />
    <glyph glyph-name="daggerdbl" unicode="&#x2021;" horiz-adv-x="1071" 
d="M597 982h382v-99h-382v-593h382v-98h-382v-487h-122v487h-383v98h383v593h-383v99h383v487h122v-487z" />
    <glyph glyph-name="bullet" unicode="&#x2022;" horiz-adv-x="589" 
d="M296 805q87 0 145 -57.5t58 -139.5t-58 -140t-145 -58t-145.5 58.5t-58.5 139.5t58.5 139t145.5 58z" />
    <glyph glyph-name="ellipsis" unicode="&#x2026;" horiz-adv-x="1087" 
d="M160 115q31 0 49 -18t18 -44t-18 -44.5t-49 -18.5t-49.5 18.5t-18.5 44.5t18.5 44t49.5 18zM544 115q31 0 49.5 -18t18.5 -44t-18.5 -44.5t-49.5 -18.5t-49 18.5t-18 44.5t18 44t49 18zM929 115q31 0 49 -18t18 -44t-18 -44.5t-49 -18.5t-49.5 18.5t-18.5 44.5t18.5 44
t49.5 18z" />
    <glyph glyph-name="perthousand" unicode="&#x2030;" horiz-adv-x="2539" 
d="M475 -35h-121l947 1503h121zM419 1446q78 0 136.5 -20.5t94.5 -55t58 -86t30 -107t8 -125.5q0 -89 -14.5 -156t-49.5 -123.5t-101.5 -86.5t-161.5 -30q-96 0 -162 30t-101 86.5t-49.5 123.5t-14.5 156q0 70 8 125t30 107t57.5 86.5t94 55t137.5 20.5zM419 1368
q-132 0 -181.5 -77.5t-49.5 -238.5q0 -162 50 -240t181 -78q130 0 180.5 78.5t50.5 239.5t-49.5 238.5t-181.5 77.5zM1362 777q97 0 163 -30t100.5 -86.5t48.5 -123t14 -154.5q0 -89 -14.5 -156t-49.5 -123.5t-101 -86t-161 -29.5q-77 0 -135 20.5t-94 54.5t-58.5 85.5
t-31 108t-8.5 126.5t8 125.5t30 107t58 86t94.5 55t136.5 20.5zM2120 777q97 0 163 -30t100.5 -86.5t48.5 -123t14 -154.5q0 -89 -14.5 -156t-49.5 -123.5t-101 -86t-161 -29.5t-161 29.5t-101 86t-49.5 123.5t-14.5 156q0 88 14 154.5t48.5 123t100.5 86.5t163 30z
M1362 700q-132 0 -181.5 -78t-49.5 -239t50.5 -239.5t180.5 -78.5t180 78t50 240q0 161 -49 239t-181 78zM2120 700q-132 0 -181 -78t-49 -239q0 -162 50 -240t180 -78t180 78t50 240q0 161 -49 239t-181 78z" />
    <glyph glyph-name="guilsinglleft" unicode="&#x2039;" horiz-adv-x="704" 
d="M612 1019l-383 -419l383 -418l-77 -61l-443 479l443 480z" />
    <glyph glyph-name="guilsinglright" unicode="&#x203a;" horiz-adv-x="704" 
d="M612 600l-443 -479l-77 61l383 418l-383 419l77 61z" />
    <glyph glyph-name="fraction" unicode="&#x2044;" horiz-adv-x="1216" 
d="M208 -35h-121l922 1503h121z" />
    <glyph glyph-name="Euro" unicode="&#x20ac;" horiz-adv-x="1331" 
d="M92 871h129q9 108 31.5 193.5t67 161.5t110 126t163.5 78.5t224 28.5q275 0 421 -135l-70 -74q-131 108 -351 108q-124 0 -212.5 -34t-140.5 -100.5t-78.5 -151.5t-35.5 -201h691v-91h-705v-63q0 -41 4 -115h621v-91h-606q12 -103 41 -179.5t82 -135.5t137.5 -89
t201.5 -30q220 0 351 108l70 -74q-147 -136 -421 -136q-149 0 -258 38.5t-176.5 112t-104.5 167t-52 218.5h-134v91h122q-3 64 -2 115v63h-120v91z" />
    <glyph glyph-name="trademark" unicode="&#x2122;" horiz-adv-x="1798" 
d="M768 1356h-292v-728h-92v728h-292v78h676v-78zM1706 628h-92v607l-270 -606h-83l-269 606v-607h-92v806h104l299 -687l298 687h105v-806z" />
    <glyph glyph-name="oneeighth" unicode="&#x215b;" horiz-adv-x="1554" 
d="M231 -35h-121l921 1503h121zM340 712h-92v638l-141 -31v76l170 38h63v-721zM1157 728q62 0 110 -8.5t89.5 -28.5t63.5 -59t22 -95q0 -122 -114 -162q133 -41 133 -180q0 -60 -23.5 -102t-67.5 -64.5t-95 -31.5t-118 -9t-119 9.5t-95.5 32t-67 64.5t-23.5 101
q0 137 135 180q-115 40 -115 162q0 55 22 93.5t63 59t89 29.5t111 9zM1157 656q-99 0 -145 -26.5t-46 -98.5q0 -71 46 -97.5t145 -26.5t144.5 26t45.5 98t-45.5 98.5t-144.5 26.5zM1157 336q-109 0 -160 -29.5t-51 -108.5t51 -108.5t160 -29.5q108 0 159 29t51 109t-51 109
t-159 29z" />
    <glyph glyph-name="threeeighths" unicode="&#x215c;" horiz-adv-x="1779" 
d="M458 -35h-121l921 1503h121zM200 1250h-89q0 196 271 196q59 0 105 -8.5t85.5 -29t61 -59.5t21.5 -95q0 -123 -111 -164q129 -41 129 -179q0 -60 -22.5 -101.5t-64.5 -63.5t-91 -31.5t-113 -9.5q-134 0 -211.5 47.5t-78.5 163.5h89q0 -79 48.5 -108t152.5 -29
q103 0 151.5 28.5t48.5 108.5t-48.5 109.5t-151.5 29.5h-104v68h104q93 0 137 26.5t44 99.5q0 72 -43.5 97.5t-137.5 25.5t-138 -26t-44 -96zM1384 728q62 0 110 -8.5t89.5 -28.5t63.5 -59t22 -95q0 -122 -114 -162q133 -41 133 -180q0 -60 -23.5 -102t-67.5 -64.5
t-95 -31.5t-118 -9t-119 9.5t-95.5 32t-67 64.5t-23.5 101q0 137 135 180q-115 40 -115 161q0 192 285 192zM1384 656q-99 0 -145 -26.5t-46 -98.5q0 -71 46 -97.5t145 -26.5t144.5 26t45.5 98t-45.5 98.5t-144.5 26.5zM1384 336q-109 0 -160 -29.5t-51 -108.5t51 -108.5
t160 -29.5q108 0 159 29t51 109t-51 109t-159 29z" />
    <glyph glyph-name="fiveeighths" unicode="&#x215d;" horiz-adv-x="1767" 
d="M444 -35h-121l922 1503h121zM619 1363h-405v-200h162q63 0 111 -10t89 -34t63 -70.5t22 -114.5t-22 -115.5t-63 -73t-89 -36t-111 -10.5q-132 0 -208 53.5t-75 182.5h93q1 -94 47.5 -128t144.5 -34t144.5 33.5t46.5 126.5q0 95 -46.5 129t-144.5 34h-256v338h497v-71z
M1371 728q62 0 110 -8.5t89 -28.5t63 -59t22 -95q0 -123 -113 -162q133 -41 133 -180q0 -60 -23.5 -102t-67.5 -64.5t-95 -31.5t-118 -9t-119 9.5t-95.5 32t-67 64.5t-23.5 101q0 138 134 180q-115 40 -115 162q0 55 22 93.5t63 59t89.5 29.5t111.5 9zM1371 656
q-99 0 -145.5 -27t-46.5 -98t46.5 -97.5t145.5 -26.5t144.5 26t45.5 98t-45.5 98.5t-144.5 26.5zM1371 336q-109 0 -160 -29.5t-51 -108.5t51 -108.5t160 -29.5q108 0 159 29t51 109t-51 109t-159 29z" />
    <glyph glyph-name="seveneighths" unicode="&#x215e;" horiz-adv-x="1644" 
d="M321 -35h-121l922 1503h121zM639 1384l-387 -672h-101l376 648h-435v74h547v-50zM1248 728q62 0 110 -8.5t89 -28.5t63 -59t22 -95q0 -123 -113 -162q133 -41 133 -180q0 -60 -23.5 -102t-67.5 -64.5t-95 -31.5t-118 -9t-119 9.5t-95.5 32t-67 64.5t-23.5 101
q0 138 134 180q-115 40 -115 161q0 192 286 192zM1247 656q-99 0 -145 -26.5t-46 -98.5q0 -71 46.5 -97.5t145.5 -26.5t144.5 26t45.5 98t-46 98.5t-145 26.5zM1248 336q-109 0 -160 -29.5t-51 -108.5t51 -108.5t160 -29.5q108 0 159 29t51 109t-51 109t-159 29z" />
    <glyph glyph-name="partialdiff" unicode="&#x2202;" horiz-adv-x="1495" 
 />
    <glyph glyph-name="emptyset" unicode="&#x2205;" horiz-adv-x="1495" 
 />
    <glyph glyph-name="product" unicode="&#x220f;" horiz-adv-x="1495" 
 />
    <glyph glyph-name="summation" unicode="&#x2211;" horiz-adv-x="1495" 
 />
    <glyph glyph-name="minus" unicode="&#x2212;" horiz-adv-x="1009" 
d="M917 550h-825v98h825v-98z" />
    <glyph glyph-name="radical" unicode="&#x221a;" horiz-adv-x="1495" 
 />
    <glyph glyph-name="infinity" unicode="&#x221e;" horiz-adv-x="1495" 
 />
    <glyph glyph-name="integral" unicode="&#x222b;" horiz-adv-x="1495" 
 />
    <glyph glyph-name="approxequal" unicode="&#x2248;" horiz-adv-x="1087" 
d="M156 715l-64 35q92 182 245 182q95 0 246 -86q114 -65 197 -65q114 0 151 105l65 -33q-30 -74 -86 -113.5t-126 -39.5q-93 0 -211 67q-148 84 -232 84q-118 0 -185 -136zM156 351l-64 36q91 181 245 181q95 0 246 -86q112 -64 197 -64q115 0 151 104l65 -33
q-30 -74 -86 -113t-126 -39q-95 0 -211 66q-148 84 -232 84q-118 0 -185 -136z" />
    <glyph glyph-name="notequal" unicode="&#x2260;" horiz-adv-x="1009" 
d="M673 836h244v-98h-283l-134 -299h417v-98h-456l-167 -376h-119l167 376h-250v98h289l134 299h-423v98h462l163 368h120z" />
    <glyph glyph-name="lessequal" unicode="&#x2264;" horiz-adv-x="956" 
d="M864 715v-118l-772 -409v109l667 359l-667 359v109zM864 -47h-771v98h771v-98z" />
    <glyph glyph-name="greaterequal" unicode="&#x2265;" horiz-adv-x="956" 
d="M864 1015l-667 -359l667 -359v-109l-772 409v118l772 409v-109zM863 -47h-771v98h771v-98z" />
    <glyph glyph-name="lozenge" unicode="&#x25ca;" horiz-adv-x="1495" 
 />
    <glyph glyph-name="a.ss01" horiz-adv-x="1251" 
d="M1092 0h-106l-4 152q-139 -177 -377 -177q-227 0 -355.5 145.5t-128.5 393.5q0 254 117.5 395.5t345.5 141.5q101 0 186.5 -38t211.5 -146l4 157h106v-1024zM974 256v514q-122 112 -197.5 149t-166.5 37q-372 0 -372 -442q0 -202 102 -323t295 -121q219 0 339 186z" />
    <glyph glyph-name="aacute.ss01" horiz-adv-x="1251" 
d="M825 1418l-326 -274l-61 74l326 273zM1092 0h-106l-4 152q-139 -177 -377 -177q-227 0 -355.5 145.5t-128.5 393.5q0 254 117.5 395.5t345.5 141.5q101 0 186.5 -38t211.5 -146l4 157h106v-1024zM974 256v514q-122 112 -197.5 149t-166.5 37q-372 0 -372 -442
q0 -202 102 -323t295 -121q219 0 339 186z" />
    <glyph glyph-name="abreve.ss01" horiz-adv-x="1251" 
d="M832 1441l83 -3q-11 -111 -93 -184.5t-196 -73.5t-196 73.5t-93 184.5l83 3q10 -83 69 -134.5t137 -51.5t137 51.5t69 134.5zM1092 0h-106l-4 152q-139 -177 -377 -177q-227 0 -355.5 145.5t-128.5 393.5q0 254 117.5 395.5t345.5 141.5q101 0 186.5 -38t211.5 -146
l4 157h106v-1024zM974 256v514q-122 112 -197.5 149t-166.5 37q-372 0 -372 -442q0 -202 102 -323t295 -121q219 0 339 186z" />
    <glyph glyph-name="acaron.ss01" horiz-adv-x="1251" 
d="M937 1438l-311 -314l-312 314l63 63l249 -253l248 253zM1092 0h-106l-4 152q-139 -177 -377 -177q-227 0 -355.5 145.5t-128.5 393.5q0 254 117.5 395.5t345.5 141.5q101 0 186.5 -38t211.5 -146l4 157h106v-1024zM974 256v514q-122 112 -197.5 149t-166.5 37
q-372 0 -372 -442q0 -202 102 -323t295 -121q219 0 339 186z" />
    <glyph glyph-name="acircumflex.ss01" horiz-adv-x="1251" 
d="M937 1198l-63 -63l-248 253l-249 -253l-63 63l312 314zM1092 0h-106l-4 152q-139 -177 -377 -177q-227 0 -355.5 145.5t-128.5 393.5q0 254 117.5 395.5t345.5 141.5q101 0 186.5 -38t211.5 -146l4 157h106v-1024zM974 256v514q-122 112 -197.5 149t-166.5 37
q-372 0 -372 -442q0 -202 102 -323t295 -121q219 0 339 186z" />
    <glyph glyph-name="acircumflexdotbelow.ss01" horiz-adv-x="1251" 
d="M937 1198l-63 -63l-248 253l-249 -253l-63 63l312 314zM1092 0h-106l-4 152q-139 -177 -377 -177q-227 0 -355.5 145.5t-128.5 393.5q0 254 117.5 395.5t345.5 141.5q101 0 186.5 -38t211.5 -146l4 157h106v-1024zM974 256v514q-122 112 -197.5 149t-166.5 37
q-372 0 -372 -442q0 -202 102 -323t295 -121q219 0 339 186zM626 -217q31 0 49 -18t18 -44t-18 -44.5t-49 -18.5t-49.5 18.5t-18.5 44.5t18.5 44t49.5 18z" />
    <glyph glyph-name="adieresis.ss01" horiz-adv-x="1251" 
d="M428 1362q31 0 49 -18t18 -44t-18 -44.5t-49 -18.5t-49.5 18.5t-18.5 44.5t18.5 44t49.5 18zM824 1362q31 0 49 -18t18 -44t-18 -44.5t-49 -18.5t-49.5 18.5t-18.5 44.5t18.5 44t49.5 18zM1092 0h-106l-4 152q-139 -177 -377 -177q-227 0 -355.5 145.5t-128.5 393.5
q0 254 117.5 395.5t345.5 141.5q101 0 186.5 -38t211.5 -146l4 157h106v-1024zM974 256v514q-122 112 -197.5 149t-166.5 37q-372 0 -372 -442q0 -202 102 -323t295 -121q219 0 339 186z" />
    <glyph glyph-name="adieresismacron.ss01" horiz-adv-x="1251" 
d="M933 1484h-614v78h614v-78zM428 1362q31 0 49 -18t18 -44t-18 -44.5t-49 -18.5t-49.5 18.5t-18.5 44.5t18.5 44t49.5 18zM824 1362q31 0 49 -18t18 -44t-18 -44.5t-49 -18.5t-49.5 18.5t-18.5 44.5t18.5 44t49.5 18zM1092 0h-106l-4 152q-139 -177 -377 -177
q-227 0 -355.5 145.5t-128.5 393.5q0 254 117.5 395.5t345.5 141.5q101 0 186.5 -38t211.5 -146l4 157h106v-1024zM974 256v514q-122 112 -197.5 149t-166.5 37q-372 0 -372 -442q0 -202 102 -323t295 -121q219 0 339 186z" />
    <glyph glyph-name="adotbelow.ss01" horiz-adv-x="1251" 
d="M1092 0h-106l-4 152q-139 -177 -377 -177q-227 0 -355.5 145.5t-128.5 393.5q0 254 117.5 395.5t345.5 141.5q101 0 186.5 -38t211.5 -146l4 157h106v-1024zM974 256v514q-122 112 -197.5 149t-166.5 37q-372 0 -372 -442q0 -202 102 -323t295 -121q219 0 339 186z
M626 -217q31 0 49 -18t18 -44t-18 -44.5t-49 -18.5t-49.5 18.5t-18.5 44.5t18.5 44t49.5 18z" />
    <glyph glyph-name="agrave.ss01" horiz-adv-x="1251" 
d="M821 1218l-62 -74l-326 274l62 73zM1092 0h-106l-4 152q-139 -177 -377 -177q-227 0 -355.5 145.5t-128.5 393.5q0 254 117.5 395.5t345.5 141.5q101 0 186.5 -38t211.5 -146l4 157h106v-1024zM974 256v514q-122 112 -197.5 149t-166.5 37q-372 0 -372 -442
q0 -202 102 -323t295 -121q219 0 339 186z" />
    <glyph glyph-name="amacron.ss01" horiz-adv-x="1251" 
d="M933 1385h-614v77h614v-77zM1092 0h-106l-4 152q-139 -177 -377 -177q-227 0 -355.5 145.5t-128.5 393.5q0 254 117.5 395.5t345.5 141.5q101 0 186.5 -38t211.5 -146l4 157h106v-1024zM974 256v514q-122 112 -197.5 149t-166.5 37q-372 0 -372 -442q0 -202 102 -323
t295 -121q219 0 339 186z" />
    <glyph glyph-name="aogonek.ss01" horiz-adv-x="1251" 
d="M986 0l-4 152q-139 -177 -377 -177q-227 0 -355.5 145.5t-128.5 393.5q0 254 117.5 395.5t345.5 141.5q101 0 186.5 -38t211.5 -146l4 157h105v-1034q-104 -74 -155 -148.5t-51 -136.5q0 -56 40.5 -93t107.5 -37q73 0 159 46l35 -67q-114 -54 -211 -54q-70 0 -122.5 27
t-79.5 74q-23 41 -23 93q0 73 48.5 152.5t146.5 153.5zM974 256v514q-121 112 -197 148.5t-167 36.5q-372 0 -372 -442q0 -202 102 -322.5t295 -120.5q219 0 339 186z" />
    <glyph glyph-name="aring.ss01" horiz-adv-x="1251" 
d="M626 1559q95 0 161 -64.5t66 -153.5t-66 -153.5t-161 -64.5q-94 0 -160 64.5t-66 153.5t66 153.5t160 64.5zM626 1493q-60 0 -106 -44t-46 -108t46 -108t106 -44t106.5 44t46.5 108t-46.5 108t-106.5 44zM1092 0h-106l-4 152q-139 -177 -377 -177q-227 0 -355.5 145.5
t-128.5 393.5q0 254 117.5 395.5t345.5 141.5q101 0 186.5 -38t211.5 -146l4 157h106v-1024zM974 256v514q-122 112 -197.5 149t-166.5 37q-372 0 -372 -442q0 -202 102 -323t295 -121q219 0 339 186z" />
    <glyph glyph-name="atilde.ss01" horiz-adv-x="1251" 
d="M418 1259l-69 40q59 129 154 129q52 0 135 -46q87 -46 125 -46q50 0 80 69l69 -39q-47 -112 -138 -112q-56 0 -141 46q-81 45 -119 45q-55 0 -96 -86zM1092 0h-106l-4 152q-139 -177 -377 -177q-227 0 -355.5 145.5t-128.5 393.5q0 254 117.5 395.5t345.5 141.5
q101 0 186.5 -38t211.5 -146l4 157h106v-1024zM974 256v514q-122 112 -197.5 149t-166.5 37q-372 0 -372 -442q0 -202 102 -323t295 -121q219 0 339 186z" />
    <glyph glyph-name="ae.ss01" horiz-adv-x="2115" 
d="M1092 1024v-251q51 130 162.5 205t273.5 75q136 0 239.5 -38t162.5 -109q82 -85 82 -211q0 -23 -1 -34q-21 -263 -507 -263q-152 0 -374 30q22 -166 130 -263t280 -98q187 -3 340 81l51 -64q-163 -109 -391 -109q-165 0 -280.5 75.5t-167.5 208.5v-259h-106l-4 152
q-139 -177 -377 -177q-227 0 -355.5 145.5t-128.5 393.5q0 254 117.5 395.5t345.5 141.5q101 0 186.5 -38t211.5 -146l4 157h106zM1526 966q-187 0 -291.5 -114.5t-106.5 -301.5v-10q0 -26 1 -39q185 -35 358 -35q80 0 147.5 9.5t127.5 31t96 62.5t41 98q12 148 -92.5 223.5
t-280.5 75.5zM974 256v514q-122 112 -197.5 149t-166.5 37q-372 0 -372 -442q0 -202 102 -323t295 -121q219 0 339 186z" />
    <glyph glyph-name="e.ss01" horiz-adv-x="1224" 
d="M991 148l50 -64q-163 -109 -390 -109q-247 0 -388.5 150t-141.5 390q0 154 58 274t177 192t283 72q136 0 239.5 -38t162.5 -109q82 -85 82 -211q0 -23 -1 -34q-21 -263 -507 -263q-153 0 -375 30q22 -166 130.5 -263t280.5 -98q187 -3 340 81zM636 966
q-189 0 -293.5 -115.5t-104.5 -303.5l2 -46q185 -35 358 -35q80 0 147.5 9.5t127.5 31t96 62.5t41 98q12 148 -93 223.5t-281 75.5z" />
    <glyph glyph-name="eacute.ss01" horiz-adv-x="1224" 
d="M813 1418l-326 -274l-62 74l326 273zM991 148l50 -64q-163 -109 -390 -109q-247 0 -388.5 150t-141.5 390q0 154 58 274t177 192t283 72q136 0 239.5 -38t162.5 -109q81 -86 81 -213q0 -13 -2 -41q-28 -255 -502 -255q-148 0 -378 31q22 -166 130.5 -263t280.5 -98
q187 -3 340 81zM636 966q-189 0 -293.5 -115.5t-104.5 -303.5l2 -46q185 -35 358 -35q80 0 147.5 9.5t127.5 31t96 62.5t41 98q12 148 -93 223.5t-281 75.5z" />
    <glyph glyph-name="ecaron.ss01" horiz-adv-x="1224" 
d="M924 1438l-311 -314l-311 314l63 63l248 -253l248 253zM991 148l50 -64q-163 -109 -390 -109q-247 0 -388.5 150t-141.5 390q0 154 58 274t177 192t283 72q136 0 239.5 -38t162.5 -109q81 -86 81 -213q0 -13 -2 -41q-28 -255 -502 -255q-148 0 -378 31
q22 -166 130.5 -263t280.5 -98q187 -3 340 81zM636 966q-189 0 -293.5 -115.5t-104.5 -303.5l2 -46q185 -35 358 -35q80 0 147.5 9.5t127.5 31t96 62.5t41 98q12 148 -93 223.5t-281 75.5z" />
    <glyph glyph-name="uni0229.ss01" horiz-adv-x="1224" 
d="M492 -158l84 140q-214 21 -334.5 166.5t-120.5 366.5q0 154 58 274t177 192t283 72q136 0 239.5 -38t162.5 -109q82 -85 82 -211q0 -23 -1 -34q-21 -263 -507 -263q-153 0 -375 30q22 -166 130.5 -263t280.5 -98q187 -3 340 81l51 -64q-153 -101 -367 -107h-17l-65 -102
q22 4 35 4q91 -2 146.5 -49t55.5 -130q0 -88 -65.5 -140t-165.5 -52q-137 0 -194 84l50 46q40 -58 138 -58q68 0 108.5 33t40.5 92q0 58 -41.5 91.5t-111.5 33.5q-37 0 -62 -8zM636 966q-187 0 -291 -114t-106 -301q0 -34 1 -50q185 -35 358 -35q80 0 147.5 9.5t127.5 31
t96 62.5t41 98q12 148 -93 223.5t-281 75.5z" />
    <glyph glyph-name="ecircumflex.ss01" horiz-adv-x="1224" 
d="M924 1198l-63 -63l-248 253l-248 -253l-63 63l311 314zM991 148l50 -64q-163 -109 -390 -109q-247 0 -388.5 150t-141.5 390q0 154 58 274t177 192t283 72q136 0 239.5 -38t162.5 -109q81 -87 81 -212q0 -22 -3 -46q-31 -251 -503 -251q-149 0 -376 31
q22 -166 130.5 -263t280.5 -98q187 -3 340 81zM636 966q-189 0 -293.5 -115.5t-104.5 -303.5l2 -46q185 -35 358 -35q80 0 147.5 9.5t127.5 31t96 62.5t41 98q12 148 -93 223.5t-281 75.5z" />
    <glyph glyph-name="ecircumflexdotbelow.ss01" horiz-adv-x="1224" 
d="M924 1198l-63 -63l-248 253l-248 -253l-63 63l311 314zM991 148l50 -64q-163 -109 -390 -109q-247 0 -388.5 150t-141.5 390q0 154 58 274t177 192t283 72q136 0 239.5 -38t162.5 -109q81 -86 81 -212q0 -22 -3 -45q-30 -252 -501 -252q-148 0 -378 31
q22 -166 130.5 -263t280.5 -98q187 -3 340 81zM636 966q-189 0 -293.5 -115.5t-104.5 -303.5l2 -46q185 -35 358 -35q80 0 147.5 9.5t127.5 31t96 62.5t41 98q12 148 -93 223.5t-281 75.5zM613 -217q31 0 49 -18t18 -44t-18 -44.5t-49 -18.5t-49.5 18.5t-18.5 44.5t18.5 44
t49.5 18z" />
    <glyph glyph-name="edieresis.ss01" horiz-adv-x="1224" 
d="M415 1362q31 0 49.5 -18t18.5 -44t-18.5 -44.5t-49.5 -18.5t-49 18.5t-18 44.5t18 44t49 18zM811 1362q31 0 49.5 -18t18.5 -44t-18.5 -44.5t-49.5 -18.5t-49 18.5t-18 44.5t18 44t49 18zM991 148l50 -64q-163 -109 -390 -109q-247 0 -388.5 150t-141.5 390q0 154 58 274
t177 192t283 72q136 0 239.5 -38t162.5 -109q80 -86 80 -212q0 -31 -2 -47q-31 -250 -501 -250q-148 0 -378 31q22 -166 130.5 -263t280.5 -98q187 -3 340 81zM636 966q-189 0 -293.5 -115.5t-104.5 -303.5l2 -46q185 -35 358 -35q80 0 147.5 9.5t127.5 31t96 62.5t41 98
q12 148 -93 223.5t-281 75.5z" />
    <glyph glyph-name="edotaccent.ss01" horiz-adv-x="1224" 
d="M613 1362q31 0 49 -18t18 -44t-18 -44.5t-49 -18.5t-49 18.5t-18 44.5t18 44t49 18zM991 148l50 -63q-164 -110 -390 -110q-247 0 -388.5 150t-141.5 390q0 154 58 274t177 192t283 72q136 0 239.5 -38t162.5 -109q80 -86 80 -212q0 -22 -3 -48q-32 -249 -500 -249
q-146 0 -378 31q22 -166 130.5 -263t280.5 -98q187 -3 340 81zM636 966q-189 0 -293.5 -115.5t-104.5 -303.5l2 -46q185 -35 358 -35q80 0 147.5 9.5t127.5 31t96 62.5t41 98q12 148 -93 223.5t-281 75.5z" />
    <glyph glyph-name="edotbelow.ss01" horiz-adv-x="1224" 
d="M991 148l50 -63q-164 -110 -390 -110q-247 0 -388.5 150t-141.5 390q0 154 58 274t177 192t283 72q136 0 239.5 -38t162.5 -109q81 -87 81 -212q0 -22 -3 -46q-31 -251 -502 -251q-150 0 -377 31q22 -166 130.5 -263t280.5 -98q187 -3 340 81zM636 966
q-189 0 -293.5 -115.5t-104.5 -303.5l2 -46q185 -35 358 -35q80 0 147.5 9.5t127.5 31t96 62.5t41 98q12 148 -93 223.5t-281 75.5zM613 -217q31 0 49 -18t18 -44t-18 -44.5t-49 -18.5t-49.5 18.5t-18.5 44.5t18.5 44t49.5 18z" />
    <glyph glyph-name="egrave.ss01" horiz-adv-x="1224" 
d="M808 1218l-61 -74l-327 274l62 73zM991 148l50 -64q-163 -109 -390 -109q-247 0 -388.5 150t-141.5 390q0 154 58 274t177 192t283 72q136 0 239.5 -38t162.5 -109q80 -86 80 -212q0 -24 -3 -48q-32 -249 -499 -249q-149 0 -379 31q22 -166 130.5 -263t280.5 -98
q187 -3 340 81zM636 966q-189 0 -293.5 -115.5t-104.5 -303.5l2 -46q185 -35 358 -35q80 0 147.5 9.5t127.5 31t96 62.5t41 98q12 148 -93 223.5t-281 75.5z" />
    <glyph glyph-name="emacron.ss01" horiz-adv-x="1224" 
d="M921 1385h-615v77h615v-77zM991 148l50 -63q-164 -110 -390 -110q-247 0 -388.5 150t-141.5 390q0 154 58 274t177 192t283 72q136 0 239.5 -38t162.5 -109q81 -86 81 -212q0 -22 -3 -45q-30 -252 -501 -252q-148 0 -378 31q22 -166 130.5 -263t280.5 -98q187 -3 340 81z
M636 966q-189 0 -293.5 -115.5t-104.5 -303.5l2 -46q185 -35 358 -35q80 0 147.5 9.5t127.5 31t96 62.5t41 98q12 148 -93 223.5t-281 75.5z" />
    <glyph glyph-name="eogonek.ss01" horiz-adv-x="1224" 
d="M1005 -352l35 -68q-110 -53 -209 -53q-71 0 -123.5 26.5t-79.5 73.5q-24 45 -24 93q0 136 148 267q-50 -6 -98 -6q-17 0 -53 2q-224 13 -352 159t-128 373q0 154 58 274t177 191.5t283 71.5q136 0 239.5 -38t162.5 -109q81 -87 81 -212q0 -22 -3 -46q-31 -250 -502 -250
q-157 0 -377 30q22 -166 130.5 -262.5t280.5 -97.5q187 -3 340 81l50 -64q-65 -45 -139 -70q-103 -74 -153.5 -147t-50.5 -134q0 -58 40.5 -94t107.5 -36q73 0 159 45zM636 965q-187 0 -291 -113t-106 -299q-1 -19 1 -53q180 -34 358 -34q81 0 147.5 9.5t127 30.5t96.5 62
t41 98q12 148 -93 223.5t-281 75.5z" />
    <glyph glyph-name="etilde.ss01" horiz-adv-x="1224" 
d="M405 1259l-69 40q59 129 154 129q52 0 135 -46q87 -46 125 -46q50 0 80 69l70 -39q-47 -112 -138 -112q-57 0 -142 46q-81 45 -118 45q-56 0 -97 -86zM991 148l50 -64q-163 -109 -390 -109q-247 0 -388.5 150t-141.5 390q0 154 58 274t177 192t283 72q136 0 239.5 -38
t162.5 -109q80 -88 80 -212q0 -24 -3 -49q-32 -248 -501 -248q-150 0 -377 31q22 -166 130.5 -263t280.5 -98q187 -3 340 81zM636 966q-189 0 -293.5 -115.5t-104.5 -303.5l2 -46q185 -35 358 -35q80 0 147.5 9.5t127.5 31t96 62.5t41 98q12 148 -93 223.5t-281 75.5z" />
    <glyph glyph-name="g.ss01" horiz-adv-x="1265" 
d="M974 -141v290q-139 -169 -369 -169q-227 0 -355.5 145.5t-128.5 391.5q0 252 117.5 393t345.5 141q101 0 186.5 -38t211.5 -146l4 157h106v-1163q0 -92 -39 -166t-104.5 -119.5t-145.5 -69.5t-166 -24q-201 0 -381 100l32 74q163 -88 328 -88q92 0 171 31t133 99t54 161z
M974 258v512q-122 112 -197.5 149t-166.5 37q-372 0 -372 -441q0 -202 102 -322.5t295 -120.5q218 0 339 186z" />
    <glyph glyph-name="gbreve.ss01" horiz-adv-x="1265" 
d="M840 1441l83 -3q-11 -111 -93 -184.5t-196 -73.5t-196.5 73.5t-93.5 184.5l84 3q10 -83 69 -134.5t137 -51.5t137 51.5t69 134.5zM974 -141v290q-139 -169 -369 -169q-227 0 -355.5 145.5t-128.5 391.5q0 252 117.5 393t345.5 141q101 0 186.5 -38t211.5 -146l4 157h106
v-1163q0 -92 -39 -166t-104.5 -119.5t-145.5 -69.5t-166 -24q-201 0 -381 100l32 74q163 -88 328 -88q92 0 171 31t133 99t54 161zM974 258v512q-122 112 -197.5 149t-166.5 37q-372 0 -372 -441q0 -202 102 -322.5t295 -120.5q218 0 339 186z" />
    <glyph glyph-name="gcaron.ss01" horiz-adv-x="1265" 
d="M945 1438l-312 -314l-311 314l63 63l248 -253l248 253zM974 -141v290q-139 -169 -369 -169q-227 0 -355.5 145.5t-128.5 391.5q0 252 117.5 393t345.5 141q101 0 186.5 -38t211.5 -146l4 157h106v-1163q0 -92 -39 -166t-104.5 -119.5t-145.5 -69.5t-166 -24
q-201 0 -381 100l32 74q163 -88 328 -88q92 0 171 31t133 99t54 161zM974 258v512q-122 112 -197.5 149t-166.5 37q-372 0 -372 -441q0 -202 102 -322.5t295 -120.5q218 0 339 186z" />
    <glyph glyph-name="gcommaaccent.ss01" horiz-adv-x="1265" 
d="M645 1498h-8q-26 0 -34.5 -12t-9.5 -45v-10q9 3 19 3q31 0 49.5 -18.5t18.5 -44.5t-18.5 -44t-49.5 -18q-38 0 -57 28q-22 30 -22 95q0 53 21.5 81t78.5 28h20zM974 -141v290q-139 -169 -369 -169q-227 0 -355.5 145.5t-128.5 391.5q0 252 117.5 393t345.5 141
q101 0 186.5 -38t211.5 -146l4 157h106v-1163q0 -92 -39 -166t-104.5 -119.5t-145.5 -69.5t-166 -24q-201 0 -381 100l32 74q163 -88 328 -88q92 0 171 31t133 99t54 161zM974 258v512q-122 112 -197.5 149t-166.5 37q-372 0 -372 -441q0 -202 102 -322.5t295 -120.5
q218 0 339 186z" />
    <glyph glyph-name="gdotaccent.ss01" horiz-adv-x="1265" 
d="M633 1362q31 0 49.5 -18t18.5 -44t-18.5 -44.5t-49.5 -18.5t-49 18.5t-18 44.5t18 44t49 18zM974 -141v290q-139 -169 -369 -169q-227 0 -355.5 145.5t-128.5 391.5q0 252 117.5 393t345.5 141q101 0 186.5 -38t211.5 -146l4 157h106v-1163q0 -92 -39 -166t-104.5 -119.5
t-145.5 -69.5t-166 -24q-201 0 -381 100l32 74q163 -88 328 -88q92 0 171 31t133 99t54 161zM974 258v512q-122 112 -197.5 149t-166.5 37q-372 0 -372 -441q0 -202 102 -322.5t295 -120.5q218 0 339 186z" />
    <glyph glyph-name="oe.ss01" horiz-adv-x="2181" 
d="M1946 148l50 -64q-163 -109 -390 -109q-181 0 -303.5 88.5t-168.5 241.5q-45 -155 -168 -243.5t-309 -88.5q-126 0 -228.5 41t-169 113.5t-102.5 171t-36 213.5t36 213.5t102.5 171t169 113.5t228.5 41q181 0 304.5 -88t170.5 -241q44 153 163 242t298 89q136 0 240 -38
t163 -109q81 -86 81 -212q0 -22 -3 -44q-30 -253 -502 -253q-147 0 -377 31q22 -166 130.5 -263t280.5 -98q187 -3 340 81zM1591 966q-187 0 -291.5 -114t-106.5 -301q0 -34 1 -50q185 -35 359 -35q80 0 147 9.5t127 31t96 62.5t41 98q12 148 -92.5 223.5t-280.5 75.5z
M657 956q-194 0 -306.5 -122t-112.5 -322t112.5 -322t306.5 -122q197 0 307.5 120t110.5 324q0 205 -112 324.5t-306 119.5z" />
    <glyph glyph-name="T_h" horiz-adv-x="2643" 
d="M1673 1434v-565q112 98 196 140.5t192 42.5q79 0 153.5 -24t136.5 -69.5t99.5 -120t37.5 -166.5v-672h-117v651q0 74 -29.5 133.5t-78 96t-108.5 56t-124 19.5q-95 0 -171 -41t-187 -146v-769h-117v1331h-813v-1331h-122v1331h-534v103h1586z" />
    <glyph glyph-name="c_h" horiz-adv-x="2340" 
d="M1370 1511v-642q113 98 196 140.5t191 42.5q63 0 123.5 -14.5t115.5 -46t97 -75.5t67 -107t25 -137v-672h-118v651q0 74 -29.5 133.5t-78 96t-108.5 56t-124 19.5q-95 0 -170 -41t-187 -146v-769h-118v1511h118zM893 129l64 -76q-57 -38 -139 -59t-161 -21
q-245 0 -390.5 151.5t-145.5 387.5q0 113 36 211t103 171t169.5 115t227.5 42q91 0 168 -20.5t123 -54.5l-65 -76q-74 56 -219 56q-196 0 -311 -124t-115 -320q0 -200 117 -322t309 -122q59 0 122.5 16t106.5 45z" />
    <glyph glyph-name="c_t" horiz-adv-x="1871" 
d="M1433 1001h311v-90h-311v-486q0 -151 81 -241q80 -89 235 -106v-90q-203 12 -316 121q-117 112 -117 316v486h-433q-79 45 -212 45q-196 0 -314.5 -123.5t-118.5 -320.5q0 -200 117 -322t309 -122q59 0 122.5 16t106.5 45l64 -76q-57 -38 -139 -59t-161 -21
q-245 0 -390.5 151.5t-145.5 387.5q0 113 36 211t103 171t169.5 115t227.5 42q152 0 252 -50h406v322h118v-322z" />
    <glyph glyph-name="f_b" horiz-adv-x="2066" 
d="M1091 1533v-658q124 104 208 140t182 36q228 0 346 -141.5t118 -395.5q0 -248 -128.5 -393.5t-355.5 -145.5q-238 0 -377 177l-4 -152h-106v1442h-174q-195 0 -308 -101q-61 -53 -89 -129t-28 -188h338v-91h-338v-933h-118v933h-188v91h188q0 264 162 394
q144 120 374 115h298zM1091 770v-514q120 -186 340 -186q193 0 295 121t102 323q0 442 -373 442q-91 0 -166.5 -37t-197.5 -149z" />
    <glyph glyph-name="f_f_j" horiz-adv-x="2103" 
d="M1599 1532v-90q-194 0 -307 -101q-61 -53 -89.5 -129t-28.5 -188h749v-1063q0 -231 -147 -352q-125 -121 -326 -133v90q167 19 263 125q93 98 93 270v972h-632v-933h-117v933h-682v-933h-118v933h-188v91h188q0 264 162 394q145 120 381 114v-90q-195 0 -308 -101
q-61 -53 -89 -129t-28 -188h682q0 265 161 394q145 120 381 114z" />
    <glyph glyph-name="f_h" horiz-adv-x="2080" 
d="M1109 1533v-664q112 98 196 140.5t192 42.5q79 0 153.5 -24t136.5 -69.5t99.5 -120t37.5 -166.5v-672h-117v651q0 74 -29.5 133.5t-78 96t-108.5 56t-124 19.5q-95 0 -171 -41t-187 -146v-769h-117v1442h-192q-195 0 -308 -101q-61 -53 -89 -129t-28 -188h338v-91h-338
v-933h-118v933h-188v91h188q0 264 162 394q144 120 374 115h316z" />
    <glyph glyph-name="f_j" horiz-adv-x="1302" 
d="M799 1532v-90q-194 0 -307 -101q-61 -53 -89 -129t-28 -188h749v-1063q0 -230 -148 -352q-125 -121 -325 -133v90q167 19 263 125q92 97 92 270v972h-631v-933h-118v933h-188v91h188q0 264 162 394q145 120 380 114z" />
    <glyph glyph-name="f_k" horiz-adv-x="1914" 
d="M1109 487l540 537h136l-399 -406l455 -618h-139l-389 535l-204 -200v-335h-117v1442h-192q-195 0 -308 -101q-61 -53 -89 -129t-28 -188h338v-91h-338v-933h-118v933h-188v91h188q0 264 162 394q144 120 374 115h316v-1046z" />
    <glyph glyph-name="s_p" horiz-adv-x="2312" 
d="M80 122l40 75q58 -56 166.5 -91t222.5 -35q134 0 222.5 51t88.5 151q0 37 -9 66t-34 50t-42.5 33.5t-64 25.5t-66.5 17t-80 15q-25 5 -37 7q-59 11 -97 19.5t-85 23t-75.5 33.5t-55 46t-38.5 65t-12 86q0 94 62.5 160.5t156 96.5t206.5 30q96 0 186 -23h591l4 -153
q139 178 377 178q230 0 357 -145t127 -394q0 -254 -118 -395.5t-346 -141.5q-98 0 -182 35.5t-207 140.5v-636h-118v1420h-493q-93 24 -181 24q-129 0 -217.5 -51t-88.5 -145q0 -38 13.5 -66.5t34 -46.5t56 -32.5t66.5 -22.5t79 -17q16 -3 49 -9q83 -15 124.5 -24t104 -31.5
t92 -50.5t53 -76.5t23.5 -114.5q0 -95 -63.5 -162t-157 -96.5t-203.5 -29.5q-126 0 -245 37.5t-186 102.5zM1338 768v-514q122 -112 197.5 -149t166.5 -37q372 0 372 442q0 202 -102 323t-295 121q-219 0 -339 -186z" />
    <glyph glyph-name="s_t" horiz-adv-x="1841" 
d="M1401 976h310v-91h-310v-460q0 -151 81 -241q80 -89 235 -106v-90q-202 12 -315 121q-118 113 -118 316v460h-439q-130 72 -299 72q-129 0 -217.5 -51t-88.5 -145q0 -38 13.5 -66.5t34 -46.5t56 -32.5t66.5 -22.5t79 -17q16 -3 49 -9q83 -15 124.5 -24t104 -31.5
t92 -50.5t53 -76.5t23.5 -114.5q0 -95 -63.5 -162t-157 -96.5t-203.5 -29.5q-126 0 -245 37.5t-186 102.5l40 75q58 -56 166.5 -91t222.5 -35q134 0 222.5 51t88.5 151q0 37 -9 66t-34 50t-42.5 33.5t-64 25.5t-66.5 17t-80 15q-25 5 -37 7q-59 11 -97 19.5t-85 23
t-75.5 33.5t-55 46t-38.5 65t-12 86q0 94 62.5 160.5t156 96.5t206.5 30q176 0 309 -71h426v347h117v-347z" />
    <glyph glyph-name="eight.lf" horiz-adv-x="1402" 
d="M702 1406q97 0 173 -9t146.5 -33.5t117 -64t74 -103.5t27.5 -149q0 -141 -70 -218t-202 -107q151 -31 231 -115.5t80 -242.5q0 -93 -29.5 -162.5t-79 -112.5t-125 -69.5t-157.5 -36.5t-186 -10t-187.5 10.5t-158.5 37.5t-125 70.5t-79 112.5t-29 160q0 157 81 241.5
t234 116.5q-134 31 -205 108.5t-71 216.5q0 84 27 147.5t74 103t117 64.5t147.5 34.5t174.5 9.5zM702 1308q-99 0 -171 -12.5t-128 -42.5t-84 -84t-28 -133t28 -133t84.5 -83.5t127.5 -42t171 -12.5q99 0 169.5 11.5t126.5 41t84 83.5t28 135t-28 135t-84 83.5t-126.5 41.5
t-169.5 12zM702 667q-86 0 -152.5 -8t-123.5 -28.5t-94 -54t-58 -85.5t-21 -122q0 -87 30.5 -146t92 -91.5t139.5 -46t187 -13.5q108 0 185.5 13t139 45t92.5 91.5t31 147.5q0 71 -21 123.5t-58 85.5t-94.5 53.5t-123 28t-151.5 7.5z" />
    <glyph glyph-name="eight.osf" horiz-adv-x="1402" 
d="M702 1406q97 0 173 -9t146.5 -33.5t117 -64t74 -103.5t27.5 -149q0 -141 -70 -218t-202 -107q151 -31 231 -115.5t80 -242.5q0 -93 -29.5 -162.5t-79 -112.5t-125 -69.5t-157.5 -36.5t-186 -10t-187.5 10.5t-158.5 37.5t-125 70.5t-79 112.5t-29 160q0 157 81 241.5
t234 116.5q-134 31 -205 108.5t-71 216.5q0 84 27 147.5t74 103t117 64.5t147.5 34.5t174.5 9.5zM702 1308q-99 0 -171 -12.5t-128 -42.5t-84 -84t-28 -133t28 -133t84.5 -83.5t127.5 -42t171 -12.5q99 0 169.5 11.5t126.5 41t84 83.5t28 135t-28 135t-84 83.5t-126.5 41.5
t-169.5 12zM702 667q-86 0 -152.5 -8t-123.5 -28.5t-94 -54t-58 -85.5t-21 -122q0 -87 30.5 -146t92 -91.5t139.5 -46t187 -13.5q108 0 185.5 13t139 45t92.5 91.5t31 147.5q0 71 -21 123.5t-58 85.5t-94.5 53.5t-123 28t-151.5 7.5z" />
    <glyph glyph-name="eight.tf" horiz-adv-x="1269" 
d="M636 1406q97 0 173 -9t146.5 -33.5t117 -64t74 -103.5t27.5 -149q0 -141 -70 -218t-202 -107q151 -31 231 -115.5t80 -242.5q0 -93 -29.5 -162.5t-79 -112.5t-125 -69.5t-157.5 -36.5t-186 -10t-187.5 10.5t-158.5 37.5t-125 70.5t-79 112.5t-29 160q0 157 81 241.5
t234 116.5q-134 31 -205 108.5t-71 216.5q0 84 27 147.5t74 103t117 64.5t147.5 34.5t174.5 9.5zM636 1308q-99 0 -171 -12.5t-128 -42.5t-84 -84t-28 -133t28 -133t84.5 -83.5t127.5 -42t171 -12.5q99 0 169.5 11.5t126.5 41t84 83.5t28 135t-28 135t-84 83.5t-126.5 41.5
t-169.5 12zM636 667q-109 0 -187 -13.5t-139.5 -46t-92.5 -92t-31 -146.5t31 -146t92.5 -91.5t139.5 -46t187 -13.5q108 0 185 13t139 45t92.5 91.5t30.5 147.5q0 71 -21 123.5t-58 85.5t-94.5 53t-122.5 28t-151 8z" />
    <glyph glyph-name="eight.tosf" horiz-adv-x="1269" 
d="M636 1406q97 0 173 -9t146.5 -33.5t117 -64t74 -103.5t27.5 -149q0 -141 -70 -218t-202 -107q151 -31 231 -115.5t80 -242.5q0 -93 -29.5 -162.5t-79 -112.5t-125 -69.5t-157.5 -36.5t-186 -10t-187.5 10.5t-158.5 37.5t-125 70.5t-79 112.5t-29 160q0 157 80.5 241.5
t233.5 116.5q-134 31 -204.5 108.5t-70.5 216.5q0 84 27 147.5t74 103t117 64.5t147.5 34.5t174.5 9.5zM636 1308q-99 0 -171 -12.5t-128 -42.5t-84 -84t-28 -133t28 -133t84.5 -83.5t127.5 -42t171 -12.5q99 0 169.5 11.5t126.5 41t84 83.5t28 135t-28 135t-84 83.5
t-126.5 41.5t-169.5 12zM636 667q-109 0 -187 -13.5t-139.5 -46t-92.5 -92t-31 -146.5t31 -146t92.5 -91.5t139.5 -46t187 -13.5q108 0 185 13t139 45t92.5 91.5t30.5 147.5q0 71 -21 123.5t-58 85.5t-94.5 53t-122.5 28t-151 8z" />
    <glyph glyph-name="five.lf" horiz-adv-x="1265" 
d="M1091 1295h-811v-430h357q97 0 174 -11.5t147.5 -42t116.5 -79.5t73.5 -128t27.5 -185t-27.5 -185t-73.5 -128t-116.5 -79.5t-147.5 -42t-174 -11.5q-120 0 -211 19.5t-166 65.5t-116 130.5t-44 206.5h126q3 -76 23.5 -132.5t55 -93t87 -58.5t112.5 -31t137 -9
q100 0 171 15t128 52t85.5 106.5t28.5 171.5q0 104 -28 174.5t-85 108t-128 52.5t-172 15h-483v627h933v-98z" />
    <glyph glyph-name="five.osf" horiz-adv-x="1265" 
d="M1091 926h-811v-430h357q97 0 174 -11.5t147.5 -42t116.5 -79.5t73.5 -128t27.5 -185q0 -105 -27.5 -184t-73.5 -128.5t-116.5 -79.5t-147.5 -41.5t-174 -11.5q-120 0 -211 19.5t-166 65.5t-116 130.5t-44 206.5h126q3 -95 33 -160t86.5 -100t127 -49.5t168.5 -14.5
q100 0 171 14.5t128 51.5t85.5 106t28.5 172q0 104 -28 174.5t-85 108t-128 52.5t-172 15h-483v627h933v-98z" />
    <glyph glyph-name="five.tf" horiz-adv-x="1269" 
d="M1087 1295h-810v-430h357q97 0 174 -11.5t147.5 -42t116.5 -79.5t73.5 -128t27.5 -185t-27.5 -185t-73.5 -128t-116.5 -79.5t-147.5 -42t-174 -11.5q-120 0 -211 19.5t-166 65.5t-116 130.5t-44 206.5h126q3 -95 33 -159.5t86 -100t126.5 -50t168.5 -14.5q100 0 171 15
t128.5 52t86 106.5t28.5 171.5q0 84 -19.5 146t-53.5 101t-87 62.5t-113.5 32t-140.5 8.5h-482v627h932v-98z" />
    <glyph glyph-name="five.tosf" horiz-adv-x="1269" 
d="M1087 926h-810v-430h357q97 0 174 -11.5t147.5 -42t116.5 -79.5t73.5 -128t27.5 -185q0 -105 -27.5 -184t-73.5 -128.5t-116.5 -79.5t-147.5 -41.5t-174 -11.5q-120 0 -211 19.5t-166 65.5t-116 130.5t-44 206.5h126q3 -95 33 -160t86.5 -100t126.5 -49.5t168 -14.5
q100 0 171 14.5t128.5 51.5t86 106t28.5 172q0 84 -19.5 146t-53.5 101t-87 62.5t-113.5 32t-140.5 8.5h-482v627h932v-98z" />
    <glyph glyph-name="four.lf" horiz-adv-x="1314" 
d="M1046 418h176v-98h-176v-320h-120v320h-839v105l839 970h120v-977zM220 418h705v819z" />
    <glyph glyph-name="four.osf" horiz-adv-x="1314" 
d="M1046 66h176v-99h-176v-319h-120v319h-839v106l839 969h120v-976zM220 66h705v819z" />
    <glyph glyph-name="four.tf" horiz-adv-x="1269" 
d="M1025 418h177v-98h-177v-320h-120v320h-838v105l838 970h120v-977zM199 418h706v819z" />
    <glyph glyph-name="four.tosf" horiz-adv-x="1269" 
d="M1025 66h177v-99h-177v-319h-120v319h-838v106l838 969h120v-976zM199 66h706v819z" />
    <glyph glyph-name="nine.lf" horiz-adv-x="1335" 
d="M1088 640v72q-49 -113 -164.5 -159.5t-290.5 -46.5q-94 0 -169 12t-144 43t-115 81t-73 130t-27 185q0 106 28 186t75.5 129.5t119.5 80t150.5 42t178.5 11.5t180 -19t137.5 -52t100 -84.5t68.5 -109.5t41.5 -134t21.5 -151t6 -168t-5.5 -166.5t-20.5 -150t-40.5 -133.5
t-68 -109t-100 -85t-138.5 -52t-182 -19q-418 0 -533 328l116 28q45 -129 143 -193t274 -64q77 0 138 13.5t106 38t77.5 63.5t53 83.5t33 105.5t17.5 123t6 141zM655 1308q-83 0 -146 -9t-118.5 -33t-91 -63.5t-56 -102t-20.5 -147.5q0 -106 29.5 -177t89.5 -109.5t134 -54
t179 -15.5q194 0 301.5 61.5t128.5 218.5q-9 104 -34 179t-73 134t-128.5 88.5t-194.5 29.5z" />
    <glyph glyph-name="nine.osf" horiz-adv-x="1335" 
d="M1088 271v72q-49 -113 -164.5 -159.5t-290.5 -46.5q-94 0 -169.5 12t-144 43.5t-114.5 81.5t-73 130t-27 185q0 106 28 186t75.5 129.5t119.5 79.5t150.5 41.5t178.5 11.5t180 -19t137.5 -52t100 -84.5t68.5 -109.5t41.5 -134t21.5 -151t6 -168t-5.5 -166.5t-20.5 -150
t-40.5 -134t-68 -109.5t-100 -85t-138.5 -52t-182 -19q-418 0 -533 327l116 29q46 -129 143.5 -193.5t273.5 -64.5q107 0 184 27t124 72.5t74.5 120.5t37.5 156t11 194zM655 939q-83 0 -146 -9t-118.5 -33t-91 -63.5t-56 -102t-20.5 -147.5q0 -106 29.5 -177t89.5 -109.5
t134 -54t179 -15.5q194 0 301.5 62t128.5 219q-9 104 -34 179t-73 133.5t-128.5 88t-194.5 29.5z" />
    <glyph glyph-name="nine.tf" horiz-adv-x="1269" 
d="M1064 640v72q-49 -113 -164.5 -159.5t-290.5 -46.5q-94 0 -169 12t-144 43t-115 81t-73 130t-27 185q0 106 28 186t75.5 129.5t119.5 80t150.5 42t178.5 11.5t180 -19t137.5 -52t100 -84.5t68.5 -109.5t41.5 -134t21.5 -151t6 -168t-5.5 -166.5t-20.5 -150t-40.5 -133.5
t-68 -109t-100 -85t-138.5 -52t-182 -19q-418 0 -533 328l117 28q45 -129 142.5 -193t273.5 -64q77 0 138 13.5t106 38t77.5 63.5t53 83.5t33 105.5t17.5 123t6 141zM631 1308q-83 0 -146 -9t-118.5 -33t-91 -63.5t-56 -102t-20.5 -147.5q0 -106 29.5 -177t89.5 -109.5
t134 -54t179 -15.5q194 0 301.5 61.5t128.5 218.5q-9 104 -34 179t-73 134t-128.5 88.5t-194.5 29.5z" />
    <glyph glyph-name="nine.tosf" horiz-adv-x="1269" 
d="M1063 271l-1 72q-49 -113 -164 -159.5t-290 -46.5q-94 0 -169.5 12t-144 43.5t-114.5 81.5t-73 130t-27 185q0 107 28 186.5t75 129t119 79.5t150.5 41.5t178.5 11.5t180 -19t137.5 -52t100 -84.5t69 -109.5t42 -134t21.5 -151t6 -168t-5.5 -166.5t-20.5 -150t-41 -134
t-68 -109.5t-99.5 -85t-139 -52t-182.5 -19q-417 0 -532 327l116 29q46 -129 143 -193.5t273 -64.5q107 0 184 27t124 72.5t75 120.5t38 156t11 194zM630 939q-83 0 -146 -9t-119 -33t-91.5 -63.5t-56 -102t-20.5 -147.5t20.5 -148t56 -102.5t91.5 -63.5t119 -33t146 -9
q194 0 301.5 62t128.5 219q-9 104 -34 179t-73 133.5t-128.5 88t-194.5 29.5z" />
    <glyph glyph-name="one.lf" horiz-adv-x="669" 
d="M475 0h-122v1283l-281 -63v102l313 71h90v-1393z" />
    <glyph glyph-name="one.osf" horiz-adv-x="460" 
d="M358 0h-109v927l-205 -46v89l237 54h77v-1024z" />
    <glyph glyph-name="one.tf" horiz-adv-x="1103" 
d="M754 0h-122v1283l-282 -63v102l313 71h91v-1393z" />
    <glyph glyph-name="one.tosf" horiz-adv-x="1024" 
d="M669 0h-109v927l-205 -46v89l237 54h77v-1024z" />
    <glyph glyph-name="seven.lf" horiz-adv-x="1216" 
d="M1123 1325l-762 -1325h-135l752 1296h-886v99h1031v-70z" />
    <glyph glyph-name="seven.osf" horiz-adv-x="1216" 
d="M1123 955l-762 -1326h-135l752 1297h-886v98h1031v-69z" />
    <glyph glyph-name="seven.tf" horiz-adv-x="1269" 
d="M1150 1325l-762 -1325h-135l752 1296h-886v99h1031v-70z" />
    <glyph glyph-name="seven.tosf" horiz-adv-x="1269" 
d="M1150 955l-762 -1326h-135l752 1297h-886v98h1031v-69z" />
    <glyph glyph-name="six.lf" horiz-adv-x="1335" 
d="M247 738v-70q48 114 163.5 160t296.5 46q92 0 167 -12.5t143 -43.5t113.5 -81.5t72.5 -130t27 -184.5q0 -106 -28 -186t-75.5 -129.5t-119.5 -80t-150.5 -42t-178.5 -11.5t-180 19t-137.5 52t-100 84.5t-68.5 109.5t-41.5 134t-21.5 151t-6 168t5.5 166.5t20.5 150
t40.5 133.5t68 109t100 85t138.5 52t182 19q418 0 533 -327l-116 -29q-45 129 -143 193.5t-274 64.5q-107 0 -184 -27t-124 -72.5t-74.5 -120.5t-37.5 -156t-11 -194zM680 782q-194 0 -301.5 -61.5t-128.5 -218.5q9 -104 34 -179t73 -133.5t128.5 -88t194.5 -29.5
q83 0 146 9t119 33t91.5 63.5t56 102t20.5 147.5t-20.5 147.5t-56 102t-91.5 63.5t-119 33t-146 9z" />
    <glyph glyph-name="six.osf" horiz-adv-x="1335" 
d="M247 738v-70q48 114 163.5 160t296.5 46q92 0 167 -12.5t143 -43.5t113.5 -81.5t72.5 -130t27 -184.5q0 -106 -28 -186t-75.5 -129.5t-119.5 -80t-150.5 -42t-178.5 -11.5t-180 19t-137.5 52t-100 84.5t-68.5 109.5t-41.5 134t-21.5 151t-6 168t5.5 166.5t20.5 150
t40.5 133.5t68 109t100 85t138.5 52t182 19q418 0 533 -327l-116 -29q-45 129 -143 193.5t-274 64.5q-107 0 -184 -27t-124 -72.5t-74.5 -120.5t-37.5 -156t-11 -194zM680 782q-194 0 -301.5 -61.5t-128.5 -218.5q9 -104 34 -179t73 -133.5t128.5 -88t194.5 -29.5
q83 0 146 9t119 33t91.5 63.5t56 102t20.5 147.5t-20.5 147.5t-56 102t-91.5 63.5t-119 33t-146 9z" />
    <glyph glyph-name="six.tf" horiz-adv-x="1269" 
d="M205 738v-70q48 114 163.5 160t296.5 46q92 0 167 -12.5t143 -43.5t113.5 -81.5t72.5 -130t27 -184.5q0 -107 -28 -186.5t-75.5 -129t-119 -80t-150 -42t-178.5 -11.5t-180 19t-137.5 52t-100 84.5t-69 109.5t-42 134t-21.5 151t-6 168t5.5 166.5t20.5 150t41 133.5
t68 109t99.5 85t139 52t182.5 19q417 0 532 -327l-116 -29q-45 129 -142.5 193.5t-273.5 64.5q-107 0 -184 -27t-124 -72.5t-75 -120.5t-38 -156t-11 -194zM638 782q-194 0 -301.5 -61.5t-128.5 -218.5q9 -104 34 -179t73 -133.5t128.5 -88t194.5 -29.5q83 0 146 9t119 33
t91.5 63.5t56 102t20.5 147.5t-20.5 147.5t-56 102t-91.5 63.5t-119 33t-146 9z" />
    <glyph glyph-name="six.tosf" horiz-adv-x="1269" 
d="M206 738v-70q48 114 163.5 160t296.5 46q92 0 167 -12.5t143 -43.5t113.5 -81.5t72.5 -130t27 -184.5q0 -106 -28 -186t-75.5 -129.5t-119.5 -80t-150.5 -42t-178.5 -11.5t-180 19t-137.5 52t-100 84.5t-68.5 109.5t-41.5 134t-21.5 151t-6 168t5.5 166.5t20.5 150
t40.5 133.5t68 109t100 85t138.5 52t182 19q418 0 533 -327l-117 -29q-45 129 -142.5 193.5t-273.5 64.5q-107 0 -184 -27t-124 -72.5t-74.5 -120.5t-37.5 -156t-11 -194zM639 782q-194 0 -301.5 -61.5t-128.5 -218.5q9 -104 34 -179t73 -133.5t128.5 -88t194.5 -29.5
q83 0 146 9t118.5 33t91 63.5t56 102t20.5 147.5t-20.5 147.5t-56 102t-91 63.5t-118.5 33t-146 9z" />
    <glyph glyph-name="three.lf" horiz-adv-x="1290" 
d="M244 1045h-117q3 105 41 177t109.5 111.5t158 56t202.5 16.5q92 0 165 -9t140.5 -33.5t112 -64t71 -103.5t26.5 -149q0 -143 -68.5 -221t-197.5 -108q147 -30 225 -114.5t78 -243.5q0 -92 -28 -160.5t-76 -111t-120 -69t-150.5 -36.5t-177.5 -10t-177 10.5t-148.5 37.5
t-117.5 70t-75.5 111.5t-29.5 159.5h115q2 -85 32.5 -143.5t89.5 -90t133.5 -44.5t177.5 -13q104 0 178.5 13t134 45.5t89 92.5t29.5 149q0 72 -20.5 124.5t-55.5 86t-91 53.5t-118.5 27.5t-145.5 7.5h-216v95h216q96 0 163.5 11.5t121.5 41t81 83.5t27 135t-27 135
t-81 83.5t-122 41.5t-163 12q-193 0 -291.5 -57t-102.5 -206z" />
    <glyph glyph-name="three.osf" horiz-adv-x="1290" 
d="M244 675h-117q3 105 41 177t109.5 111.5t158 56t202.5 16.5q92 0 165 -9.5t140.5 -34t112 -64t71 -103.5t26.5 -149q0 -143 -68.5 -220.5t-197.5 -107.5q147 -30 225 -114.5t78 -243.5q0 -92 -28 -160.5t-76 -111t-120 -69t-150.5 -36.5t-177.5 -10q-98 0 -176.5 10.5
t-149 37.5t-117.5 70.5t-75.5 111.5t-29.5 159h115q2 -85 32.5 -143.5t89.5 -90t133.5 -44.5t177.5 -13q104 0 178.5 13t134 45.5t89 92t29.5 148.5t-29.5 149t-89 92.5t-134 45.5t-178.5 13h-216v94h216q95 0 163 12t122 41.5t81 83.5t27 135t-27 135t-81 83.5t-122 41.5
t-163 12q-193 0 -291.5 -57t-102.5 -206z" />
    <glyph glyph-name="three.tf" horiz-adv-x="1269" 
d="M239 1045h-117q3 105 41 177t109.5 111.5t158 56t202.5 16.5q92 0 165 -9t140 -33.5t111.5 -64t71 -103.5t26.5 -149q0 -143 -68.5 -221t-197.5 -108q147 -30 225.5 -114.5t78.5 -243.5q0 -92 -28 -160.5t-76 -111t-120 -69t-150.5 -36.5t-177.5 -10t-177 10.5
t-148.5 37.5t-117.5 70t-75.5 111.5t-29.5 159.5h115q2 -85 32.5 -143.5t89.5 -90t133.5 -44.5t177.5 -13q104 0 178.5 13t134 45.5t89 92.5t29.5 149q0 72 -20.5 124.5t-55.5 86t-91 53.5t-118.5 27.5t-145.5 7.5h-216v95h216q96 0 163.5 11.5t121.5 41t81 83.5t27 135
t-27 135t-81 83.5t-122 41.5t-163 12q-193 0 -291.5 -57t-102.5 -206z" />
    <glyph glyph-name="three.tosf" horiz-adv-x="1269" 
d="M239 675h-117q3 105 41 177t109.5 111.5t158 56t202.5 16.5q92 0 165 -9.5t140 -34t111.5 -64t71 -103.5t26.5 -149q0 -143 -68.5 -220.5t-197.5 -107.5q147 -30 225.5 -114.5t78.5 -243.5q0 -92 -28 -160.5t-76 -111t-120 -69t-150.5 -36.5t-177.5 -10
q-98 0 -176.5 10.5t-149 37.5t-117.5 70.5t-75.5 111.5t-29.5 159h115q2 -85 32.5 -143.5t89.5 -90t133.5 -44.5t177.5 -13q104 0 178.5 13t134 45.5t89 92t29.5 148.5t-29.5 149t-89 92.5t-134 45.5t-178.5 13h-216v94h216q95 0 163 12t122 41.5t81 83.5t27 135t-27 135
t-81 83.5t-122 41.5t-163 12q-193 0 -291.5 -57t-102.5 -206z" />
    <glyph glyph-name="two.lf" horiz-adv-x="1273" 
d="M222 1036h-114q0 109 37.5 183t111.5 114.5t166 57.5t219 17q100 0 176.5 -9.5t145.5 -34.5t113.5 -66.5t70.5 -107t26 -154.5q0 -111 -31 -185t-97.5 -116t-150 -61t-210.5 -26q-117 -7 -198 -25.5t-142.5 -56.5t-90.5 -100t-29 -152v-212h943v-102h-1060v313
q0 113 39.5 194t117 129.5t176.5 73.5t234 32q102 6 168.5 20.5t118 46.5t74.5 87t23 138q0 66 -19.5 114.5t-54 79.5t-88 50t-115 26t-141.5 7q-101 0 -174 -12.5t-130 -42.5t-86 -85t-29 -135z" />
    <glyph glyph-name="two.osf" horiz-adv-x="923" 
d="M168 752h-104q-1 83 26.5 140.5t83.5 88.5t125 44t163 13q92 0 160 -12t124 -42t85 -85.5t29 -137.5t-24 -137.5t-74 -87t-112.5 -46t-155.5 -19.5q-169 -10 -246.5 -61t-77.5 -174v-147h685v-89h-791v235q0 83 30 143.5t87.5 97t132 55.5t172.5 24q146 9 207.5 50
t61.5 154q0 111 -72.5 152.5t-220.5 41.5q-150 0 -222.5 -43.5t-71.5 -157.5z" />
    <glyph glyph-name="two.tf" horiz-adv-x="1269" 
d="M221 1036h-115q0 108 37.5 182.5t112 115t166.5 57.5t219 17q100 0 176.5 -9.5t145.5 -34.5t113.5 -66.5t70.5 -107t26 -154.5t-21.5 -154.5t-59.5 -107.5t-101.5 -68.5t-135 -39t-172.5 -18.5q-117 -7 -198 -25.5t-142 -56.5t-90 -100t-29 -152v-212h942v-102h-1059v313
q0 113 39.5 194t117 129.5t176.5 73.5t234 32q102 6 168 20.5t117.5 46.5t74.5 87t23 138q0 82 -28.5 137.5t-86 85.5t-129.5 42t-173 12t-174 -12.5t-130 -42.5t-86 -85t-29 -135z" />
    <glyph glyph-name="two.tosf" horiz-adv-x="1024" 
d="M222 752h-104q-1 83 26.5 140.5t83.5 88.5t125 44t163 13q92 0 160 -12t124 -42t85 -85.5t29 -137.5t-24 -137.5t-74 -87t-112.5 -46t-155.5 -19.5q-169 -10 -246.5 -61t-77.5 -174v-147h685v-89h-791v235q0 83 30 143.5t87.5 97t132 55.5t172.5 24q146 9 207.5 50
t61.5 154q0 111 -72.5 152.5t-220.5 41.5q-150 0 -222.5 -43.5t-71.5 -157.5z" />
    <glyph glyph-name="zero.lf" horiz-adv-x="1417" 
d="M708 1406q140 0 245 -36.5t169 -98.5t103.5 -155.5t54 -194.5t14.5 -230t-15.5 -231.5t-55.5 -196t-104.5 -155.5t-168.5 -98.5t-242 -36.5t-241.5 36.5t-168.5 98.5t-105 155.5t-55 196t-15 231.5t14.5 229.5t53.5 194.5t103.5 156t169 98.5t244.5 36.5zM708 1308
q-111 0 -192.5 -28.5t-133 -79t-82.5 -130t-43 -169.5t-12 -210t12.5 -211.5t44.5 -170.5t83.5 -129.5t132.5 -79t190 -28.5q135 0 227.5 42t143.5 126t72 192t21 259t-20 257t-70.5 191t-143 127t-230.5 42z" />
    <glyph glyph-name="zero.osf" horiz-adv-x="1050" 
d="M525 1040q104 0 182 -27.5t126 -73t77 -115t40 -143.5t11 -168t-11.5 -169.5t-41 -144.5t-78 -115t-125.5 -73t-180 -27t-180 27t-125 73t-77.5 115t-41 144.5t-11.5 169.5t10.5 168t40 143.5t77 115t125.5 73t182 27.5zM525 954q-78 0 -135.5 -20.5t-94 -56t-58 -92
t-30 -121.5t-8.5 -151q0 -109 14.5 -186t50.5 -137.5t101 -90t160 -29.5t160 29.5t101 89.5t51 137.5t15 186.5q0 86 -8.5 151t-30.5 121.5t-58.5 92t-94 56t-135.5 20.5z" />
    <glyph glyph-name="zero.tf" horiz-adv-x="1269" 
d="M635 1406q140 0 244.5 -36.5t169 -98.5t103.5 -156t53.5 -194.5t14.5 -229.5t-15 -231.5t-55 -196t-105 -155.5t-168.5 -98.5t-241.5 -36.5t-241.5 36.5t-168.5 98.5t-105 155.5t-55 196t-15 231.5t14.5 229.5t53.5 194.5t103.5 156t169 98.5t244.5 36.5zM635 1308
q-138 0 -230.5 -42t-143 -127t-70.5 -191t-20 -257t21 -259t72 -192t143.5 -126t227.5 -42q109 0 190 28.5t132.5 79t83.5 129.5t44.5 170.5t12.5 211.5t-12 210t-43 169.5t-82.5 130t-133 79t-192.5 28.5z" />
    <glyph glyph-name="zero.tosf" horiz-adv-x="1024" 
d="M516 1040q104 0 182 -27.5t125.5 -73t77 -115t40 -143.5t10.5 -168t-11.5 -169.5t-41 -144.5t-77.5 -115t-125 -73t-180 -27t-180 27t-125.5 73t-78 115t-41 144.5t-11.5 169.5t11 168t40 143.5t77 115t126 73t182 27.5zM516 954q-78 0 -135.5 -20.5t-94 -56t-58.5 -92
t-30.5 -121.5t-8.5 -151q0 -109 15 -186.5t51 -137.5t101 -89.5t160 -29.5t160 29.5t101 90t50.5 137.5t14.5 186q0 86 -8.5 151t-30 121.5t-58 92t-94 56t-135.5 20.5z" />
    <glyph glyph-name="eight.dnom" horiz-adv-x="776" 
d="M389 728q62 0 110 -8.5t89 -28.5t63 -59t22 -95q0 -123 -113 -162q133 -41 133 -180q0 -60 -23.5 -102t-67.5 -64.5t-95 -31.5t-118 -9t-119 9.5t-95.5 32t-67 64.5t-23.5 101q0 138 134 180q-115 40 -115 162q0 55 22 93.5t63 59t89.5 29.5t111.5 9zM389 656
q-99 0 -145.5 -27t-46.5 -98t46.5 -97.5t145.5 -26.5t144.5 26t45.5 98t-45.5 98.5t-144.5 26.5zM389 336q-109 0 -160 -29.5t-51 -108.5t51 -108.5t160 -29.5q108 0 159 29t51 109t-51 109t-159 29z" />
    <glyph glyph-name="eight.numr" horiz-adv-x="776" 
d="M389 1446q62 0 110 -8.5t89 -29t63 -59.5t22 -95q0 -123 -113 -162q133 -41 133 -179q0 -60 -23.5 -102.5t-67.5 -64.5t-95.5 -31.5t-117.5 -9.5q-305 0 -305 208q0 137 134 179q-115 40 -115 162q0 192 286 192zM389 1373q-99 0 -145.5 -26.5t-46.5 -97.5t46.5 -97.5
t145.5 -26.5t144.5 26t45.5 98t-45.5 98t-144.5 26zM389 1053q-109 0 -160 -29.5t-51 -108.5q0 -78 51 -107.5t160 -29.5q108 0 159 29t51 108q0 80 -51 109t-159 29z" />
    <glyph glyph-name="five.dnom" horiz-adv-x="665" 
d="M562 652h-405v-200h163q63 0 111 -10t89 -34t63 -70.5t22 -114.5t-22 -115.5t-63 -73t-89 -36t-111 -10.5q-132 0 -208.5 53t-75.5 182h94q1 -94 47.5 -128t144.5 -34t144.5 34t46.5 127q0 95 -46 128.5t-145 33.5h-257v338h497v-70z" />
    <glyph glyph-name="five.numr" horiz-adv-x="665" 
d="M562 1363h-405v-200h163q63 0 111 -10t89 -34t63 -70.5t22 -114.5t-22 -115.5t-63 -73t-89 -36t-111 -10.5q-132 0 -208.5 53.5t-75.5 182.5h94q1 -94 47.5 -128t144.5 -34t144.5 33.5t46.5 126.5q0 95 -46.5 129t-144.5 34h-257v338h497v-71z" />
    <glyph glyph-name="four.dnom" horiz-adv-x="667" 
d="M530 233h88v-73h-88v-160h-83v160h-428v68l427 494h84v-489zM123 233h324v379z" />
    <glyph glyph-name="four.numr" horiz-adv-x="667" 
d="M530 945h88v-73h-88v-160h-83v160h-428v68l427 494h84v-489zM123 945h324v379z" />
    <glyph glyph-name="nine.dnom" horiz-adv-x="733" 
d="M540 327l1 11q-51 -78 -213 -78q-278 0 -278 232q0 69 22.5 116.5t64.5 73t91.5 36t113.5 10.5q73 0 126.5 -19.5t85 -51.5t50 -82t25 -100.5t6.5 -117.5t-6 -116.5t-24.5 -99.5t-49.5 -81.5t-85 -51.5t-128 -20q-223 0 -283 172l88 21q21 -63 67 -93.5t128 -30.5
q50 0 85.5 12.5t57 34t33.5 57t16.5 73.5t5.5 93zM341 655q-103 0 -152 -34.5t-49 -130.5t49 -131t152 -35q93 0 141.5 27.5t57.5 100.5q-9 103 -52.5 153t-146.5 50z" />
    <glyph glyph-name="nine.numr" horiz-adv-x="733" 
d="M540 1045l1 11q-51 -78 -213 -78q-278 0 -278 231q0 69 22.5 117t64.5 73.5t91.5 36t113.5 10.5q73 0 126.5 -19.5t85 -51.5t50 -82t25 -100.5t6.5 -117.5t-6 -116.5t-24.5 -100t-49.5 -82t-85 -51.5t-128 -20q-223 0 -283 172l88 21q21 -63 67 -93.5t128 -30.5
q62 0 102 18t60 56t27.5 83t8.5 114zM341 1372q-103 0 -152 -34.5t-49 -130.5t49 -131t152 -35q93 0 141.5 27.5t57.5 100.5q-9 103 -52.5 153t-146.5 50z" />
    <glyph glyph-name="one.dnom" horiz-adv-x="366" 
d="M251 0h-92v638l-141 -32v76l171 39h62v-721z" />
    <glyph glyph-name="one.numr" horiz-adv-x="366" 
d="M251 713h-92v638l-141 -32v76l171 39h62v-721z" />
    <glyph glyph-name="seven.dnom" horiz-adv-x="585" 
d="M567 673l-386 -673h-101l376 648h-436v74h547v-49z" />
    <glyph glyph-name="seven.numr" horiz-adv-x="585" 
d="M567 1384l-386 -672h-101l376 648h-436v74h547v-50z" />
    <glyph glyph-name="six.dnom" horiz-adv-x="733" 
d="M193 389v-11q51 78 212 78q278 0 278 -232q0 -69 -22 -116.5t-64 -73t-91.5 -36t-113.5 -10.5q-73 0 -126.5 19.5t-85 51.5t-50 82t-25 100.5t-6.5 117.5t6 116.5t24.5 99.5t49.5 81.5t85 51.5t128 20q222 0 282 -172l-88 -20q-21 63 -66.5 93t-127.5 30
q-50 0 -85.5 -12.5t-57 -34t-34 -57t-17 -74t-5.5 -92.5zM393 392q-93 0 -142 -27.5t-58 -100.5q9 -103 53 -153t147 -50t151.5 35t48.5 131t-48.5 130.5t-151.5 34.5z" />
    <glyph glyph-name="six.numr" horiz-adv-x="733" 
d="M193 1106v-11q51 78 212 78q278 0 278 -231q0 -55 -15 -97t-41 -68.5t-64 -42.5t-79 -22.5t-92 -6.5q-73 0 -126.5 19.5t-85 51.5t-50 82t-25 100.5t-6.5 117.5t6 116.5t24.5 100t49.5 82t85 51.5t128 20q222 0 282 -172l-88 -21q-21 63 -66.5 93.5t-127.5 30.5
q-62 0 -102 -18t-60.5 -56t-28 -83t-8.5 -114zM393 1110q-93 0 -142 -27.5t-58 -100.5q9 -103 53 -153t147 -50t151.5 34.5t48.5 130.5t-48.5 131t-151.5 35z" />
    <glyph glyph-name="three.dnom" horiz-adv-x="700" 
d="M143 532h-90q0 196 272 196q47 0 85 -5t74 -18.5t60 -34.5t38.5 -55t14.5 -79q0 -123 -110 -163q129 -41 129 -180q0 -60 -22.5 -101.5t-64.5 -63.5t-91 -31t-113 -9t-113.5 10t-90.5 32.5t-63.5 65t-22.5 102.5h88q0 -79 48.5 -108t152.5 -29q103 0 152 29t49 109
t-49 109.5t-152 29.5h-104v68h105q94 0 137.5 26.5t43.5 98.5t-43.5 98t-137.5 26t-138 -26t-44 -97z" />
    <glyph glyph-name="three.numr" horiz-adv-x="700" 
d="M143 1250h-90q0 196 272 196q47 0 85 -5t74 -18.5t60 -34.5t38.5 -55t14.5 -79q0 -124 -110 -164q129 -41 129 -179q0 -60 -22.5 -101.5t-64.5 -63.5t-91 -31.5t-113 -9.5q-134 0 -211.5 47.5t-78.5 163.5h88q0 -79 48.5 -108t152.5 -29t152.5 28.5t48.5 108.5t-49 109.5
t-152 29.5h-104v68h105q93 0 137 26.5t44 99.5q0 72 -43.5 97.5t-137.5 25.5t-138 -26t-44 -96z" />
    <glyph glyph-name="two.dnom" horiz-adv-x="669" 
d="M127 518h-87q-4 117 70 163.5t212 46.5q64 0 112 -9t88 -30t61 -61t21 -98q0 -112 -64 -155.5t-196 -50.5q-110 -6 -161.5 -38.5t-52.5 -110.5v-100h470v-75h-560v169q0 114 78 166.5t220 60.5q98 6 137.5 32t39.5 101q0 74 -46 100t-147 26q-104 0 -150 -28.5
t-45 -108.5z" />
    <glyph glyph-name="two.numr" horiz-adv-x="669" 
d="M127 1236h-87q-4 117 70 163.5t212 46.5q64 0 112 -9t88 -30t61 -61t21 -98q0 -112 -64 -156t-196 -51q-111 -6 -162 -38.5t-52 -109.5v-100h470v-75h-560v168q0 114 78 166.5t220 60.5q98 6 137.5 32.5t39.5 101.5q0 74 -46 100t-147 26q-104 0 -150 -28.5t-45 -108.5z
" />
    <glyph glyph-name="zero.dnom" horiz-adv-x="784" 
d="M392 728q74 0 129 -19.5t88.5 -51.5t54.5 -81t28.5 -100.5t7.5 -116.5t-8 -117.5t-29 -101t-55 -81t-89 -52t-127 -19.5t-127 19.5t-89 52t-55 81t-29 101t-8 117.5t7.5 116.5t28.5 100.5t54.5 81t88.5 51.5t129 19.5zM392 655q-125 0 -170.5 -72.5t-45.5 -223.5
t46.5 -224.5t169.5 -73.5t169.5 73.5t46.5 224.5t-45.5 223.5t-170.5 72.5z" />
    <glyph glyph-name="zero.numr" horiz-adv-x="784" 
d="M392 1446q74 0 129 -19.5t88.5 -52t54.5 -81t28.5 -100.5t7.5 -117t-8 -117.5t-29 -101t-55 -81t-89 -52t-127 -19.5t-127 19.5t-89 52t-55 81t-29 101t-8 117.5t7.5 117t28.5 100.5t54.5 81t88.5 52t129 19.5zM392 1372q-125 0 -170.5 -72.5t-45.5 -223.5t46.5 -224
t169.5 -73t169.5 73t46.5 224t-45.5 223.5t-170.5 72.5z" />
    </font>
</defs>
</svg>
